{"glyphs":{"0":{"ha":0,"x_min":0,"x_max":0,"o":"b 573 -118 100 0 573 -14 b 673 28 573 -189 672 28 b 847 346 675 243 743 346 b 1021 28 951 346 1021 243 "},"1":{"ha":-182,"x_min":0,"x_max":0,"o":"m 521 982 l 305 982 l 62 830 l 62 629 l 283 765 l 289 765 l 289 0 l 521 0 z "},"2":{"ha":0,"x_min":0,"x_max":0,"o":""},"3":{"ha":51,"x_min":0,"x_max":0,"o":"m 445 -14 b 837 278 674 -14 838 109 l 604 278 b 989 -22 606 102 765 -22 z "},"4":{"ha":0,"x_min":0,"x_max":0,"o":""},"5":{"ha":39,"x_min":0,"x_max":0,"o":"m 448 -14 l 635 -14 l 635 -642 z "},"6":{"ha":60,"x_min":0,"x_max":0,"o":"m 465 -14 b 846 332 692 -14 846 127 b 543 647 846 515 720 647 b 292 506 433 647 334 594 l 285 506 b 471 798 285 685 346 798 b 608 700 540 798 593 764 l 836 700 b 471 996 817 864 677 996 b 56 473 220 996 57 799 b 465 -14 56 114 251 -14 z m 464 165 b 307 324 373 165 307 236 b 465 484 307 415 374 484 b 621 326 556 484 623 416 b 464 165 623 233 555 165 z "},"7":{"ha":-36,"x_min":0,"x_max":0,"o":"m 113 0 l 351 0 l 754 793 l 754 982 l 45 982 l 45 795 l 514 795 l 514 788 z "},"8":{"ha":63,"x_min":0,"x_max":0,"o":"m 456 -14 b 852 266 685 -14 852 106 b 631 506 852 388 753 487 l 631 513 b 815 730 736 533 815 621 b 456 996 815 883 662 996 b 95 730 247 996 95 883 b 279 513 95 621 171 533 l 279 506 b 58 266 155 487 58 388 b 456 -14 58 106 225 -14 z m 456 157 b 301 290 363 157 300 213 b 456 425 300 368 366 425 b 609 290 544 425 609 368 b 456 157 609 213 547 157 z m 456 583 b 321 705 377 583 321 635 b 456 825 321 776 376 825 b 589 705 533 825 589 774 b 456 583 589 633 533 583 z "},"9":{"ha":60,"x_min":0,"x_max":0,"o":"m 442 996 b 61 651 214 996 60 854 b 363 339 61 471 187 339 b 616 479 475 339 572 391 l 623 479 b 437 184 621 297 560 184 b 300 285 366 184 313 218 l 71 285 b 437 -14 90 117 229 -14 b 850 513 688 -14 852 183 b 442 996 850 868 656 996 z m 444 818 b 601 659 533 818 600 746 b 442 500 601 572 532 500 b 285 659 350 500 286 570 b 444 818 285 747 351 818 z "}," ":{"ha":-536,"x_min":0,"x_max":0,"o":""}," ":{"ha":-536,"x_min":0,"x_max":0,"o":""},"A":{"ha":0,"x_min":0,"x_max":0,"o":""},"Á":{"ha":0,"x_min":0,"x_max":0,"o":""},"Ă":{"ha":0,"x_min":0,"x_max":0,"o":""},"Ắ":{"ha":0,"x_min":0,"x_max":0,"o":""},"Ặ":{"ha":0,"x_min":0,"x_max":0,"o":""},"Ằ":{"ha":0,"x_min":0,"x_max":0,"o":""},"Ẳ":{"ha":0,"x_min":0,"x_max":0,"o":""},"Ẵ":{"ha":0,"x_min":0,"x_max":0,"o":""},"Ǎ":{"ha":0,"x_min":0,"x_max":0,"o":""},"Â":{"ha":0,"x_min":0,"x_max":0,"o":""},"Ấ":{"ha":0,"x_min":0,"x_max":0,"o":""},"Ậ":{"ha":0,"x_min":0,"x_max":0,"o":""},"Ầ":{"ha":0,"x_min":0,"x_max":0,"o":""},"Ẩ":{"ha":0,"x_min":0,"x_max":0,"o":""},"Ẫ":{"ha":184,"x_min":0,"x_max":0,"o":"m -292 -949 l 252 252 l 363 605 l 372 605 l 483 252 z "},"Ȁ":{"ha":0,"x_min":0,"x_max":0,"o":""},"Ä":{"ha":0,"x_min":0,"x_max":0,"o":""},"Ǟ":{"ha":0,"x_min":0,"x_max":0,"o":""},"Ạ":{"ha":0,"x_min":0,"x_max":0,"o":""},"Ǡ":{"ha":0,"x_min":0,"x_max":0,"o":""},"À":{"ha":0,"x_min":0,"x_max":0,"o":"l 184 0 l 184 410 l 1259 410 l 1259 205 "},"Ả":{"ha":0,"x_min":0,"x_max":0,"o":""},"Ȃ":{"ha":0,"x_min":0,"x_max":0,"o":""},"Ā":{"ha":0,"x_min":0,"x_max":0,"o":""},"Ą":{"ha":0,"x_min":0,"x_max":0,"o":"l 184 0 l 184 7 "},"Å":{"ha":0,"x_min":0,"x_max":0,"o":""},"Ǻ":{"ha":0,"x_min":0,"x_max":0,"o":""},"Ḁ":{"ha":0,"x_min":0,"x_max":0,"o":""},"Ã":{"ha":0,"x_min":0,"x_max":0,"o":""},"Æ":{"ha":554,"x_min":0,"x_max":0,"o":"m 0 -595 l 144 -231 l 212 -231 l 212 -595 z "},"Ǽ":{"ha":0,"x_min":0,"x_max":0,"o":""},"Ǣ":{"ha":0,"x_min":0,"x_max":0,"o":""},"B":{"ha":44,"x_min":0,"x_max":0,"o":""},"Ḃ":{"ha":0,"x_min":0,"x_max":0,"o":""},"Ḅ":{"ha":0,"x_min":0,"x_max":0,"o":""},"Ɓ":{"ha":342,"x_min":0,"x_max":0,"o":"m 345 795 l 345 822 l -450 822 l -450 389 l -245 389 l -245 452 b -146 575 -245 510 -227 575 "},"Ḇ":{"ha":0,"x_min":0,"x_max":0,"o":""},"Ƃ":{"ha":0,"x_min":0,"x_max":0,"o":""},"C":{"ha":173,"x_min":0,"x_max":0,"o":""},"Ć":{"ha":0,"x_min":0,"x_max":0,"o":""},"Č":{"ha":0,"x_min":0,"x_max":0,"o":""},"Ç":{"ha":0,"x_min":0,"x_max":0,"o":""},"Ḉ":{"ha":0,"x_min":0,"x_max":0,"o":""},"Ĉ":{"ha":0,"x_min":0,"x_max":0,"o":""},"Ċ":{"ha":0,"x_min":0,"x_max":0,"o":""},"Ƈ":{"ha":303,"x_min":0,"x_max":0,"o":"m 960 628 l 960 700 b 1100 829 960 798 1039 829 l 1165 827 l 1165 1010 b 1058 1016 1126 1016 1095 1016 b 804 914 958 1016 863 981 b 526 996 730 968 635 996 l 203 1194 l 22 1459 z "},"D":{"ha":0,"x_min":0,"x_max":0,"o":""},"Ǳ":{"ha":0,"x_min":0,"x_max":0,"o":""},"Ɖ":{"ha":0,"x_min":0,"x_max":0,"o":""},"Ď":{"ha":0,"x_min":0,"x_max":0,"o":""},"Ḑ":{"ha":0,"x_min":0,"x_max":0,"o":""},"Ḓ":{"ha":0,"x_min":0,"x_max":0,"o":""},"Đ":{"ha":0,"x_min":0,"x_max":0,"o":""},"Ḋ":{"ha":0,"x_min":0,"x_max":0,"o":""},"Ḍ":{"ha":0,"x_min":0,"x_max":0,"o":""},"Ɗ":{"ha":435,"x_min":0,"x_max":0,"o":"m 41 713 l 41 609 l 245 609 l 245 671 b 345 785 245 730 264 785 l 376 785 l 376 0 l 735 0 l 345 0 b 41 -269 157 0 41 -102 "},"Ḏ":{"ha":0,"x_min":0,"x_max":0,"o":""},"Ƌ":{"ha":68,"x_min":0,"x_max":0,"o":"m 471 0 l 838 0 l 838 983 l 171 983 l 171 798 l 609 798 l 609 633 l 471 633 b 79 320 232 633 79 509 b 471 0 79 132 232 0 z m 609 182 l 471 182 b 308 323 363 182 308 245 b 471 452 308 396 363 452 l 609 452 z "},"ǲ":{"ha":912,"x_min":0,"x_max":0,"o":"m 981 0 "},"ǅ":{"ha":912,"x_min":0,"x_max":0,"o":"m 981 0 "},"Ð":{"ha":0,"x_min":0,"x_max":0,"o":""},"E":{"ha":-20,"x_min":0,"x_max":0,"o":""},"É":{"ha":0,"x_min":0,"x_max":0,"o":""},"Ĕ":{"ha":0,"x_min":0,"x_max":0,"o":""},"Ě":{"ha":0,"x_min":0,"x_max":0,"o":""},"Ḝ":{"ha":-20,"x_min":0,"x_max":0,"o":"m 75 0 "},"Ê":{"ha":0,"x_min":0,"x_max":0,"o":""},"Ế":{"ha":0,"x_min":0,"x_max":0,"o":""},"Ḙ":{"ha":0,"x_min":0,"x_max":0,"o":""},"Ệ":{"ha":0,"x_min":0,"x_max":0,"o":""},"Ề":{"ha":-20,"x_min":0,"x_max":0,"o":""},"Ể":{"ha":-20,"x_min":0,"x_max":0,"o":""},"Ễ":{"ha":0,"x_min":0,"x_max":0,"o":""},"Ȅ":{"ha":0,"x_min":0,"x_max":0,"o":""},"Ë":{"ha":0,"x_min":0,"x_max":0,"o":""},"Ė":{"ha":0,"x_min":0,"x_max":0,"o":""},"Ẹ":{"ha":0,"x_min":0,"x_max":0,"o":""},"È":{"ha":0,"x_min":0,"x_max":0,"o":""},"Ẻ":{"ha":0,"x_min":0,"x_max":0,"o":""},"Ȇ":{"ha":-20,"x_min":0,"x_max":0,"o":""},"Ē":{"ha":0,"x_min":0,"x_max":0,"o":""},"Ḗ":{"ha":0,"x_min":0,"x_max":0,"o":""},"Ḕ":{"ha":0,"x_min":0,"x_max":0,"o":""},"Ę":{"ha":-20,"x_min":0,"x_max":0,"o":"m 75 0 l 513 0 l 488 0 l 488 -42 l 481 -42 l 481 -96 l 494 -96 l 494 -145 l 495 -145 l 495 43 l 45 43 l 45 -636 z "},"Ɛ":{"ha":68,"x_min":0,"x_max":0,"o":"m 72 274 b 463 -14 72 85 222 -14 b 842 267 681 -14 841 94 l 612 267 b 454 168 612 208 559 168 b 302 289 361 168 302 201 b 456 412 302 370 350 412 l 579 412 l 579 586 l 456 586 b 317 700 359 586 317 631 b 463 811 317 773 363 811 b 600 720 551 811 598 780 l 827 720 b 464 996 826 883 674 996 b 88 713 232 996 88 891 b 245 503 88 618 149 543 b 72 274 134 465 72 387 z "},"Ʃ":{"ha":71,"x_min":0,"x_max":0,"o":"m 811 187 l 422 187 l 635 488 l 635 496 l 423 795 l 800 795 l 800 983 l 102 983 l 102 882 l 393 492 l 102 102 l 102 0 l 811 0 z "},"Ẽ":{"ha":0,"x_min":0,"x_max":0,"o":""},"Ḛ":{"ha":0,"x_min":0,"x_max":0,"o":""},"Ǝ":{"ha":-20,"x_min":0,"x_max":0,"o":"m 753 982 l 72 982 l 72 793 l 522 793 l 522 585 l 109 585 l 109 396 l 522 396 l 522 189 l 73 189 l 73 0 l 753 0 z "},"Ə":{"ha":196,"x_min":0,"x_max":0,"o":"m 511 -14 b 955 420 779 -14 955 167 l 955 559 b 476 996 955 817 787 996 b 155 948 343 996 191 966 l 189 757 b 449 792 250 774 357 792 b 727 562 669 792 726 693 l 88 562 l 88 442 b 511 -14 88 160 251 -14 z m 316 355 l 316 374 l 724 374 b 511 189 710 265 644 189 b 316 355 385 189 316 254 z "},"Ʒ":{"ha":77,"x_min":0,"x_max":0,"o":""},"Ǯ":{"ha":0,"x_min":0,"x_max":0,"o":""},"Ƹ":{"ha":77,"x_min":0,"x_max":0,"o":"m 883 79 l 650 79 b 467 -98 644 -27 567 -98 b 281 136 349 -98 281 0 b 492 380 281 288 369 380 l 608 380 l 608 544 l 347 783 l 347 791 l 829 791 l 829 982 l 64 982 l 64 815 l 377 532 l 377 522 b 39 140 174 503 39 351 b 464 -292 39 -111 216 -292 b 883 79 701 -292 878 -137 z "},"F":{"ha":-62,"x_min":0,"x_max":0,"o":"m 75 0 l 305 0 l 305 397 z "},"Ḟ":{"ha":-62,"x_min":0,"x_max":0,"o":"m 75 0 l 305 0 l 305 397 "},"Ƒ":{"ha":-25,"x_min":0,"x_max":0,"o":"m 113 982 l 113 -37 b 11 -100 113 -88 62 -100 b -31 -100 0 -100 -18 -102 l -31 -271 b 65 -277 -3 -277 43 -277 b 343 -37 206 -277 343 -243 l 343 397 z "},"G":{"ha":182,"x_min":0,"x_max":0,"o":""},"Ǵ":{"ha":0,"x_min":0,"x_max":0,"o":""},"Ǥ":{"ha":181,"x_min":0,"x_max":0,"o":"m 1004 323 l 959 323 b 964 406 962 349 964 376 l 964 534 l 544 534 l 544 365 l 742 365 b 736 323 741 350 740 336 l 544 323 l 544 255 l 704 255 b 627 174 663 255 627 198 b 676 163 627 97 724 163 b 616 NaN 593 163 616 NaN l 851 NaN b 1022 NaN 1046 NaN 1022 NaN b 1318 NaN 1022 NaN 1220 NaN b 1544 NaN 1489 NaN 1544 NaN l 1607 NaN z "},"Ğ":{"ha":0,"x_min":0,"x_max":0,"o":""},"Ǧ":{"ha":0,"x_min":0,"x_max":0,"o":""},"Ĝ":{"ha":0,"x_min":0,"x_max":0,"o":""},"Ģ":{"ha":0,"x_min":0,"x_max":0,"o":""},"Ġ":{"ha":0,"x_min":0,"x_max":0,"o":""},"Ɠ":{"ha":296,"x_min":0,"x_max":0,"o":"m 718 662 l 955 662 l 954 671 l 954 825 b 1086 920 954 905 1017 920 b 1149 914 1107 920 1127 916 l 1149 1095 b 1044 1108 1111 1103 1078 1108 b 746 948 917 1108 798 1052 b 713 892 777 948 713 875 b 762 877 713 812 806 877 b 710 NaN 685 877 710 NaN z "},"Ḡ":{"ha":0,"x_min":0,"x_max":0,"o":""},"Ȝ":{"ha":67,"x_min":0,"x_max":0,"o":"m 156 378 l 156 206 b 560 345 325 247 458 292 b 605 237 593 330 605 296 b 156 -107 605 61 438 -54 l 156 -288 b 833 231 560 -239 833 -52 b 709 449 833 332 787 406 b 819 704 785 520 819 604 b 448 996 819 902 677 996 b 81 720 233 996 81 883 l 309 720 b 448 812 309 777 362 812 b 593 673 545 812 593 770 b 156 378 593 538 495 477 z "},"H":{"ha":158,"x_min":0,"x_max":0,"o":""},"Ħ":{"ha":254,"x_min":0,"x_max":0,"o":"m 1061 822 l 979 822 l 979 982 l 749 982 l 749 822 l 354 822 l 354 982 l 123 982 l 123 822 l 41 822 l 41 701 l 123 701 l 123 0 l 354 0 l 354 397 l 749 397 l 749 0 l 979 0 l 979 701 l 1061 701 z m 354 586 l 354 701 l 749 701 l 749 586 z "},"Ḫ":{"ha":158,"x_min":0,"x_max":0,"o":"m 675 -1034 l 750 -1034 l 750 -1184 b 777 -1293 722 -1225 678 -1293 b NaN NaN 694 -1293 842 NaN b NaN NaN NaN NaN NaN NaN z "},"Ḩ":{"ha":158,"x_min":0,"x_max":0,"o":"m 75 0 z "},"Ĥ":{"ha":0,"x_min":0,"x_max":0,"o":""},"Ḧ":{"ha":0,"x_min":0,"x_max":0,"o":""},"Ḣ":{"ha":0,"x_min":0,"x_max":0,"o":""},"Ḥ":{"ha":0,"x_min":0,"x_max":0,"o":""},"I":{"ha":-467,"x_min":0,"x_max":0,"o":""},"Ĳ":{"ha":0,"x_min":0,"x_max":0,"o":""},"Í":{"ha":0,"x_min":0,"x_max":0,"o":""},"Ĭ":{"ha":0,"x_min":0,"x_max":0,"o":""},"Ǐ":{"ha":0,"x_min":0,"x_max":0,"o":""},"Î":{"ha":0,"x_min":0,"x_max":0,"o":""},"Ȉ":{"ha":0,"x_min":0,"x_max":0,"o":""},"Ï":{"ha":0,"x_min":0,"x_max":0,"o":""},"Ḯ":{"ha":0,"x_min":0,"x_max":0,"o":""},"İ":{"ha":0,"x_min":0,"x_max":0,"o":""},"Ị":{"ha":0,"x_min":0,"x_max":0,"o":""},"Ì":{"ha":0,"x_min":0,"x_max":0,"o":""},"Ỉ":{"ha":0,"x_min":0,"x_max":0,"o":""},"Ȋ":{"ha":-467,"x_min":0,"x_max":0,"o":""},"Ī":{"ha":0,"x_min":0,"x_max":0,"o":""},"Į":{"ha":-467,"x_min":0,"x_max":0,"o":"m 305 982 l 75 982 l 75 18 z "},"Ɩ":{"ha":-393,"x_min":0,"x_max":0,"o":""},"Ɨ":{"ha":-467,"x_min":0,"x_max":0,"o":"m 305 982 l 75 982 l 75 586 l -382 586 l -382 817 l 75 817 z "},"Ĩ":{"ha":0,"x_min":0,"x_max":0,"o":""},"Ḭ":{"ha":0,"x_min":0,"x_max":0,"o":""},"J":{"ha":0,"x_min":0,"x_max":0,"o":""},"Ĵ":{"ha":0,"x_min":0,"x_max":0,"o":""},"K":{"ha":93,"x_min":0,"x_max":0,"o":""},"Ḱ":{"ha":0,"x_min":0,"x_max":0,"o":""},"Ǩ":{"ha":0,"x_min":0,"x_max":0,"o":""},"Ķ":{"ha":0,"x_min":0,"x_max":0,"o":""},"Ḳ":{"ha":0,"x_min":0,"x_max":0,"o":""},"Ƙ":{"ha":153,"x_min":0,"x_max":0,"o":"m 75 0 l 305 0 l 305 235 l 426 362 l 700 0 l 977 0 l 572 526 l 792 751 b 924 785 834 795 867 814 l 994 948 b 624 894 859 1025 731 1005 l 319 576 l 305 576 l 305 982 l 75 982 z "},"Ḵ":{"ha":0,"x_min":0,"x_max":0,"o":""},"L":{"ha":-83,"x_min":0,"x_max":0,"o":""},"Ǉ":{"ha":0,"x_min":0,"x_max":0,"o":""},"Ĺ":{"ha":0,"x_min":0,"x_max":0,"o":""},"Ƚ":{"ha":-83,"x_min":0,"x_max":0,"o":"m 75 0 l 718 0 l 718 189 l 305 189 l 305 457 l 701 457 l 701 227 l 305 227 z "},"Ľ":{"ha":0,"x_min":0,"x_max":0,"o":""},"Ḽ":{"ha":0,"x_min":0,"x_max":0,"o":""},"Ļ":{"ha":0,"x_min":0,"x_max":0,"o":""},"Ŀ":{"ha":-63,"x_min":0,"x_max":0,"o":"m 79 0 l 722 0 l 722 189 l 309 189 l 309 982 l 79 982 "},"Ḷ":{"ha":0,"x_min":0,"x_max":0,"o":""},"Ḹ":{"ha":0,"x_min":0,"x_max":0,"o":""},"ǈ":{"ha":0,"x_min":0,"x_max":0,"o":""},"Ḻ":{"ha":0,"x_min":0,"x_max":0,"o":""},"Ł":{"ha":-52,"x_min":0,"x_max":0,"o":"m 473 640 l 358 609 l 358 982 l 127 982 l 127 547 l 15 515 l 15 396 l 127 427 l 127 0 l 770 0 l 770 189 l 358 189 l 358 488 l 473 519 z "},"M":{"ha":393,"x_min":0,"x_max":0,"o":""},"Ḿ":{"ha":0,"x_min":0,"x_max":0,"o":""},"Ṁ":{"ha":0,"x_min":0,"x_max":0,"o":""},"Ṃ":{"ha":0,"x_min":0,"x_max":0,"o":""},"N":{"ha":135,"x_min":0,"x_max":0,"o":""},"Ǌ":{"ha":0,"x_min":0,"x_max":0,"o":""},"Ń":{"ha":0,"x_min":0,"x_max":0,"o":""},"Ň":{"ha":0,"x_min":0,"x_max":0,"o":""},"Ṋ":{"ha":0,"x_min":0,"x_max":0,"o":""},"Ņ":{"ha":0,"x_min":0,"x_max":0,"o":""},"Ṅ":{"ha":0,"x_min":0,"x_max":0,"o":""},"Ṇ":{"ha":0,"x_min":0,"x_max":0,"o":""},"Ɲ":{"ha":162,"x_min":0,"x_max":0,"o":"m 102 0 l 102 -37 b 1 -100 102 -88 53 -100 b -42 -100 -11 -100 -28 -102 l -42 -271 b 62 -277 -16 -277 37 -277 b 334 -37 193 -277 334 -243 l 334 576 l 340 576 l 739 0 l 936 0 l 936 982 z "},"ǋ":{"ha":0,"x_min":0,"x_max":0,"o":""},"Ṉ":{"ha":0,"x_min":0,"x_max":0,"o":""},"Ñ":{"ha":0,"x_min":0,"x_max":0,"o":""},"Ŋ":{"ha":135,"x_min":0,"x_max":0,"o":"m 711 0 l 711 -33 b 597 -122 711 -92 666 -122 b 517 -114 568 -122 538 -119 l 517 -283 b 593 -296 540 -292 570 -296 b 907 -28 785 -296 907 -232 l 907 982 l 677 982 l 677 406 l 669 406 l 274 982 l 75 982 l 75 0 l 305 0 l 305 576 l 312 576 z "},"O":{"ha":211,"x_min":0,"x_max":0,"o":""},"Ƣ":{"ha":436,"x_min":0,"x_max":0,"o":"m 886 121 l 886 665 l 990 713 l 990 -277 l 1208 -277 l 1208 982 l 1044 982 l 853 894 b 513 996 785 946 666 996 b 62 529 228 996 62 825 l 62 453 b 510 -14 62 160 228 -14 b 886 121 693 -14 830 58 z m 294 453 l 294 529 b 519 812 294 711 347 812 b 665 773 575 812 632 800 l 665 210 b 518 168 636 187 585 168 b 294 453 351 168 294 281 z "},"Ó":{"ha":0,"x_min":0,"x_max":0,"o":""},"Ɵ":{"ha":0,"x_min":0,"x_max":0,"o":""},"Ŏ":{"ha":0,"x_min":0,"x_max":0,"o":""},"Ǒ":{"ha":0,"x_min":0,"x_max":0,"o":""},"Ô":{"ha":0,"x_min":0,"x_max":0,"o":""},"Ố":{"ha":0,"x_min":0,"x_max":0,"o":""},"Ộ":{"ha":0,"x_min":0,"x_max":0,"o":""},"Ồ":{"ha":211,"x_min":0,"x_max":0,"o":""},"Ổ":{"ha":211,"x_min":0,"x_max":0,"o":""},"Ỗ":{"ha":0,"x_min":0,"x_max":0,"o":""},"Ȍ":{"ha":0,"x_min":0,"x_max":0,"o":""},"Ö":{"ha":0,"x_min":0,"x_max":0,"o":""},"Ọ":{"ha":0,"x_min":0,"x_max":0,"o":""},"Ò":{"ha":0,"x_min":0,"x_max":0,"o":""},"Ỏ":{"ha":0,"x_min":0,"x_max":0,"o":""},"Ơ":{"ha":260,"x_min":0,"x_max":0,"o":""},"Ớ":{"ha":0,"x_min":0,"x_max":0,"o":""},"Ợ":{"ha":0,"x_min":0,"x_max":0,"o":""},"Ờ":{"ha":0,"x_min":0,"x_max":0,"o":""},"Ở":{"ha":0,"x_min":0,"x_max":0,"o":""},"Ỡ":{"ha":0,"x_min":0,"x_max":0,"o":""},"Ő":{"ha":0,"x_min":0,"x_max":0,"o":""},"Ȏ":{"ha":211,"x_min":0,"x_max":0,"o":""},"Ō":{"ha":0,"x_min":0,"x_max":0,"o":""},"Ṓ":{"ha":0,"x_min":0,"x_max":0,"o":""},"Ṑ":{"ha":0,"x_min":0,"x_max":0,"o":""},"Ǫ":{"ha":0,"x_min":0,"x_max":0,"o":"b 722 702 0 211 996 702 b 695 861 867 702 695 907 b 665 779 671 819 665 766 b 865 920 665 730 865 779 b 1135 NaN 865 1090 1135 NaN m 899 NaN z "},"Ǭ":{"ha":0,"x_min":0,"x_max":0,"o":"b 722 702 0 211 996 702 b 695 861 867 702 695 907 b 665 779 671 819 665 766 b 865 920 665 730 865 779 b 1135 NaN 865 1090 1135 NaN m 899 NaN "},"Ɔ":{"ha":173,"x_min":0,"x_max":0,"o":""},"Ø":{"ha":211,"x_min":0,"x_max":0,"o":"m -461 0 b -231 301 -461 195 -374 301 b -113 271 -186 301 -146 291 l -427 -178 b -461 0 -450 -131 -461 -72 z "},"Ǿ":{"ha":211,"x_min":0,"x_max":0,"o":"m -250 -802 b 422 -917 -250 -1112 335 -917 b 671 -833 528 -917 671 -872 b NaN -809 671 -843 652 -809 l NaN -1258 b NaN -1080 NaN -1211 NaN -1152 z "},"Õ":{"ha":0,"x_min":0,"x_max":0,"o":""},"Ṍ":{"ha":0,"x_min":0,"x_max":0,"o":""},"Ṏ":{"ha":0,"x_min":0,"x_max":0,"o":""},"Œ":{"ha":546,"x_min":0,"x_max":0,"o":"m 511 0 l 1321 0 l 1321 189 l 871 189 l 871 397 l 1284 397 l 1284 586 l 871 586 l 871 793 l 1320 793 l 1320 982 l 511 982 b 62 490 256 982 61 815 b 511 0 61 165 256 0 z m 296 490 b 511 793 296 709 385 793 l 640 793 l 640 189 l 511 189 b 296 490 385 189 296 270 z "},"P":{"ha":0,"x_min":0,"x_max":0,"o":""},"Ṕ":{"ha":28,"x_min":0,"x_max":0,"o":"m 75 0 "},"Ṗ":{"ha":28,"x_min":0,"x_max":0,"o":"m 75 0 "},"Ƥ":{"ha":325,"x_min":0,"x_max":0,"o":"m 245 609 l 245 671 b 345 795 245 730 264 795 l 372 795 l 372 0 l 602 0 l 602 308 l 766 308 b 1130 644 991 308 1130 441 l 1130 216 "},"Þ":{"ha":0,"x_min":0,"x_max":0,"o":""},"Q":{"ha":212,"x_min":0,"x_max":0,"o":"m 449 350 l 570 193 b 529 190 556 191 543 190 b 363 78 433 190 412 115 l 299 157 b 498 576 299 515 440 576 b 527 NaN 508 576 527 629 l 603 NaN l 813 NaN l 669 NaN b 821 NaN 764 NaN 821 NaN z "},"Ɋ":{"ha":286,"x_min":0,"x_max":0,"o":"m 979 -37 l 979 982 l 753 982 l 753 841 l 743 841 b 472 996 696 926 605 996 b 62 492 239 996 62 774 b 472 -14 62 209 235 -14 b 743 142 605 -14 696 54 l 751 142 l 751 -37 b 1019 -277 751 -232 871 -277 b 1135 -269 1072 -277 1109 -271 l 1135 -98 b 1081 -100 1118 -99 1099 -100 b 979 -37 1031 -100 979 -88 z m 525 190 b 298 491 382 190 298 300 b 525 793 298 681 381 793 b 751 491 675 793 751 677 b 525 190 751 304 677 190 z "},"R":{"ha":0,"x_min":0,"x_max":0,"o":""},"Ŕ":{"ha":0,"x_min":0,"x_max":0,"o":""},"Ř":{"ha":0,"x_min":0,"x_max":0,"o":""},"Ŗ":{"ha":0,"x_min":0,"x_max":0,"o":""},"Ȑ":{"ha":0,"x_min":0,"x_max":0,"o":""},"Ṙ":{"ha":0,"x_min":0,"x_max":0,"o":""},"Ṛ":{"ha":0,"x_min":0,"x_max":0,"o":""},"Ṝ":{"ha":0,"x_min":0,"x_max":0,"o":""},"Ȓ":{"ha":0,"x_min":0,"x_max":0,"o":""},"Ṟ":{"ha":0,"x_min":0,"x_max":0,"o":""},"S":{"ha":39,"x_min":0,"x_max":0,"o":""},"Ś":{"ha":0,"x_min":0,"x_max":0,"o":""},"Ṥ":{"ha":0,"x_min":0,"x_max":0,"o":""},"Š":{"ha":0,"x_min":0,"x_max":0,"o":""},"Ṧ":{"ha":0,"x_min":0,"x_max":0,"o":""},"Ş":{"ha":0,"x_min":0,"x_max":0,"o":"b 177 287 39 605 43 397 b NaN NaN 390 271 370 187 l NaN NaN l NaN NaN "},"Ŝ":{"ha":0,"x_min":0,"x_max":0,"o":""},"Ș":{"ha":0,"x_min":0,"x_max":0,"o":""},"Ṡ":{"ha":0,"x_min":0,"x_max":0,"o":""},"Ṣ":{"ha":0,"x_min":0,"x_max":0,"o":""},"Ṩ":{"ha":0,"x_min":0,"x_max":0,"o":""},"ẞ":{"ha":130,"x_min":0,"x_max":0,"o":"m 75 646 l 75 0 l 305 0 l 305 646 b 435 815 305 745 347 815 b 614 755 505 815 570 791 l 439 568 l 439 438 l 528 438 b 709 286 618 438 709 397 b 557 165 709 212 652 165 b 412 197 511 165 458 178 l 351 28 b 576 -14 411 3 500 -14 b 930 286 784 -14 930 107 b 669 572 930 433 826 548 l 888 821 b 434 996 755 921 576 996 b 75 646 217 996 75 857 z "},"T":{"ha":60,"x_min":0,"x_max":0,"o":""},"Ŧ":{"ha":60,"x_min":0,"x_max":0,"o":"m 41 793 l 339 793 l 339 525 l -57 525 l -57 754 l 339 754 l 339 1023 l 637 1023 l 637 1211 l -189 1211 z "},"Ť":{"ha":0,"x_min":0,"x_max":0,"o":""},"Ṱ":{"ha":0,"x_min":0,"x_max":0,"o":""},"Ţ":{"ha":60,"x_min":0,"x_max":0,"o":"m 41 793 l 339 793 l 339 0 l 407 0 l 407 68 l 1200 68 l 1200 366 l 1389 366 l 1389 -460 z "},"Ṫ":{"ha":0,"x_min":0,"x_max":0,"o":""},"Ṭ":{"ha":0,"x_min":0,"x_max":0,"o":""},"Ƭ":{"ha":105,"x_min":0,"x_max":0,"o":"m 911 982 l 330 982 b 41 712 141 982 41 880 l 41 609 l 231 609 l 231 671 b 330 793 231 731 248 793 l 385 793 l 385 0 l 613 0 l 613 793 l 911 793 z "},"Ṯ":{"ha":0,"x_min":0,"x_max":0,"o":""},"Ƽ":{"ha":21,"x_min":0,"x_max":0,"o":"m 800 982 l 46 982 l 46 795 l 157 795 b -264 1176 123 795 -264 1023 b -194 1507 -264 1320 -62 1507 b -240 1339 -61 1507 -240 1415 b NaN 1267 -240 1301 -294 1267 l NaN 1267 l NaN 1501 l NaN 1501 z "},"Ƅ":{"ha":239,"x_min":0,"x_max":0,"o":"m 511 982 l 41 982 l 41 793 l 279 793 l 279 0 l 647 0 z m 647 -448 l 647 -179 l 783 -179 b 944 -309 887 -179 944 -236 b 783 -448 944 -387 887 -448 z "},"Ƨ":{"ha":39,"x_min":0,"x_max":0,"o":"m 58 690 l 281 690 b 434 804 288 762 339 804 b 576 708 528 804 575 764 b 430 598 578 647 518 617 l 345 578 b 45 285 156 536 46 442 b 434 -14 46 99 190 -14 b 841 323 680 -14 837 98 l 618 323 b 437 179 613 228 543 179 b 279 285 339 179 281 222 b 439 396 281 342 331 372 l 543 420 b 815 692 712 460 815 544 b 433 996 817 873 655 996 b 58 690 206 996 61 872 z "},"Ʈ":{"ha":60,"x_min":0,"x_max":0,"o":"m 568 -37 l 568 793 l -260 793 b 9 552 -260 586 -123 552 l 113 552 l 113 728 l 71 728 b -31 792 20 728 -31 741 z "},"U":{"ha":130,"x_min":0,"x_max":0,"o":""},"Ú":{"ha":0,"x_min":0,"x_max":0,"o":""},"Ŭ":{"ha":0,"x_min":0,"x_max":0,"o":""},"Ǔ":{"ha":0,"x_min":0,"x_max":0,"o":""},"Û":{"ha":0,"x_min":0,"x_max":0,"o":""},"Ṷ":{"ha":0,"x_min":0,"x_max":0,"o":""},"Ȕ":{"ha":0,"x_min":0,"x_max":0,"o":""},"Ü":{"ha":0,"x_min":0,"x_max":0,"o":""},"Ǘ":{"ha":0,"x_min":0,"x_max":0,"o":""},"Ṳ":{"ha":130,"x_min":0,"x_max":0,"o":"m 359 0 z "},"Ǚ":{"ha":0,"x_min":0,"x_max":0,"o":""},"Ǜ":{"ha":0,"x_min":0,"x_max":0,"o":""},"Ǖ":{"ha":0,"x_min":0,"x_max":0,"o":""},"Ụ":{"ha":0,"x_min":0,"x_max":0,"o":""},"Ù":{"ha":0,"x_min":0,"x_max":0,"o":""},"Ủ":{"ha":0,"x_min":0,"x_max":0,"o":""},"Ư":{"ha":325,"x_min":0,"x_max":0,"o":""},"Ứ":{"ha":0,"x_min":0,"x_max":0,"o":""},"Ự":{"ha":0,"x_min":0,"x_max":0,"o":""},"Ừ":{"ha":0,"x_min":0,"x_max":0,"o":""},"Ử":{"ha":0,"x_min":0,"x_max":0,"o":""},"Ữ":{"ha":325,"x_min":0,"x_max":0,"o":"m -898 64 l -777 62 b -724 136 -777 109 -757 136 b -547 61 -670 136 -644 61 b -388 258 -458 62 -389 130 l -506 260 b -562 186 -507 214 -525 186 b -739 260 -612 184 -646 260 b -898 64 -827 259 -898 193 z "},"Ű":{"ha":0,"x_min":0,"x_max":0,"o":""},"Ȗ":{"ha":0,"x_min":0,"x_max":0,"o":""},"Ū":{"ha":0,"x_min":0,"x_max":0,"o":""},"Ṻ":{"ha":0,"x_min":0,"x_max":0,"o":""},"Ų":{"ha":130,"x_min":0,"x_max":0,"o":"m 670 982 b 972 631 670 797 787 667 l 950 589 l 944 536 l 956 488 l 954 490 b 1237 837 1127 531 1237 659 l 1237 1470 z "},"Ʊ":{"ha":205,"x_min":0,"x_max":0,"o":"m 53 445 b 526 -14 53 176 250 -14 b 1000 445 803 -14 1000 176 b 822 785 1000 604 930 718 l 822 793 l 1000 793 l 1000 982 l 600 982 l 600 746 b 765 465 697 707 765 597 b 526 191 765 308 666 191 b 288 465 387 191 288 308 b 453 746 288 597 357 707 l 453 982 l 53 982 l 53 793 l 231 793 l 231 785 b 53 445 122 716 53 604 z "},"Ů":{"ha":0,"x_min":0,"x_max":0,"o":""},"Ũ":{"ha":0,"x_min":0,"x_max":0,"o":""},"Ṹ":{"ha":0,"x_min":0,"x_max":0,"o":""},"Ṵ":{"ha":130,"x_min":0,"x_max":0,"o":"m -636 -1248 l -515 -1249 b -463 -1176 -515 -1203 -495 -1176 b -285 -1251 -408 -1176 -382 -1251 b -126 -1054 -197 -1249 -127 -1181 l -244 -1051 b -300 -1126 -245 -1097 -263 -1126 b -477 -1051 -350 -1127 -384 -1051 b -636 -1248 -566 -1053 -636 -1119 z "},"V":{"ha":184,"x_min":0,"x_max":0,"o":""},"Ɣ":{"ha":195,"x_min":0,"x_max":0,"o":"m 50 982 l 407 282 b 258 -102 281 11 258 -50 b 521 -292 258 -220 363 -292 b 777 -107 675 -292 777 -214 b 637 282 777 -41 728 82 l 991 982 l 726 982 l 522 532 l 315 982 z m 487 -91 b 522 49 487 -53 500 -5 b 555 -90 543 -4 555 -52 b 521 -137 555 -121 544 -137 b 487 -91 498 -137 487 -121 z "},"Ʋ":{"ha":64,"x_min":0,"x_max":0,"o":"m 457 -14 b 846 335 689 -14 846 111 l 846 715 b 568 996 846 895 743 996 b 465 985 532 996 502 991 l 465 803 b 529 808 490 806 510 808 b 614 715 595 808 614 787 l 614 335 b 457 168 614 229 568 168 b 296 335 345 168 296 229 l 296 982 l 66 982 l 66 335 b 457 -14 66 110 228 -14 z "},"Ṿ":{"ha":0,"x_min":0,"x_max":0,"o":""},"Ṽ":{"ha":0,"x_min":0,"x_max":0,"o":""},"W":{"ha":580,"x_min":0,"x_max":0,"o":""},"Ẃ":{"ha":0,"x_min":0,"x_max":0,"o":""},"Ŵ":{"ha":0,"x_min":0,"x_max":0,"o":""},"Ẅ":{"ha":0,"x_min":0,"x_max":0,"o":""},"Ẇ":{"ha":0,"x_min":0,"x_max":0,"o":""},"Ẉ":{"ha":0,"x_min":0,"x_max":0,"o":""},"Ẁ":{"ha":0,"x_min":0,"x_max":0,"o":""},"X":{"ha":139,"x_min":0,"x_max":0,"o":""},"Ẍ":{"ha":0,"x_min":0,"x_max":0,"o":""},"Ẋ":{"ha":0,"x_min":0,"x_max":0,"o":""},"Y":{"ha":149,"x_min":0,"x_max":0,"o":""},"Ʀ":{"ha":192,"x_min":0,"x_max":0,"o":"m 61 1050 l 61 0 l 292 0 l 292 358 l 425 358 l 732 -229 l 978 -229 l 978 -220 l 637 414 b 822 692 749 461 822 536 b 448 982 822 880 677 982 l 290 982 l 290 1050 z m 292 540 l 292 799 l 448 799 b 594 667 544 799 594 749 b 448 540 594 589 543 540 z "},"Ý":{"ha":0,"x_min":0,"x_max":0,"o":""},"Ŷ":{"ha":0,"x_min":0,"x_max":0,"o":""},"Ÿ":{"ha":0,"x_min":0,"x_max":0,"o":""},"Ẏ":{"ha":0,"x_min":0,"x_max":0,"o":""},"Ỵ":{"ha":0,"x_min":0,"x_max":0,"o":""},"Ỳ":{"ha":0,"x_min":0,"x_max":0,"o":""},"Ƴ":{"ha":245,"x_min":0,"x_max":0,"o":"m 33 982 l 420 373 l 420 0 l 651 0 l 651 373 l 887 742 b 1028 799 926 802 958 819 l 1076 970 b 713 853 948 1017 802 1000 l 543 570 l 529 570 l 282 982 z "},"Ỷ":{"ha":0,"x_min":0,"x_max":0,"o":""},"Ỹ":{"ha":0,"x_min":0,"x_max":0,"o":""},"Z":{"ha":63,"x_min":0,"x_max":0,"o":""},"Ź":{"ha":0,"x_min":0,"x_max":0,"o":""},"Ƶ":{"ha":63,"x_min":0,"x_max":0,"o":"m 69 0 l 841 0 l 841 189 l 362 189 l 557 457 l 720 457 l 720 586 l 651 586 l 841 849 l 690 642 l 518 642 l 518 513 l 597 513 l 361 189 z "},"Ž":{"ha":0,"x_min":0,"x_max":0,"o":""},"Ẑ":{"ha":0,"x_min":0,"x_max":0,"o":""},"Ż":{"ha":0,"x_min":0,"x_max":0,"o":""},"Ẓ":{"ha":0,"x_min":0,"x_max":0,"o":""},"Ẕ":{"ha":0,"x_min":0,"x_max":0,"o":""},"Ɯ":{"ha":454,"x_min":0,"x_max":0,"o":"m 103 277 b 350 -14 103 66 183 -14 b 575 100 452 -14 528 28 b 788 -14 616 19 690 -14 b 993 79 876 -14 945 20 l 1002 0 l 1200 0 l 1200 982 l 979 982 l 979 221 b 857 163 956 184 918 163 b 758 277 796 163 758 199 l 758 982 l 541 982 l 541 277 b 544 224 541 258 542 240 b 419 163 521 186 481 163 b 321 277 358 163 321 199 l 321 982 l 103 982 z "},"Ƕ":{"ha":668,"x_min":0,"x_max":0,"o":"m 1072 -14 b 1442 335 1299 -14 1442 115 l 1442 712 l 1211 712 l 1211 335 b 1072 179 1211 235 1158 179 b 930 335 983 179 930 235 l 930 982 l 700 982 l 700 920 b 1072 571 700 701 844 571 z "},"Ƿ":{"ha":200,"x_min":0,"x_max":0,"o":"m 347 982 l 119 982 l 119 -277 l 347 -277 l 347 -95 b 930 519 726 32 929 250 l 930 553 b 517 996 930 840 758 996 b 347 962 448 996 391 983 z m 347 96 l 347 747 b 519 812 391 787 452 812 b 696 556 670 812 696 682 l 696 519 b 347 96 696 335 578 190 z "},"Ǹ":{"ha":0,"x_min":0,"x_max":0,"o":""},"Ț":{"ha":0,"x_min":0,"x_max":0,"o":""},"Ȟ":{"ha":0,"x_min":0,"x_max":0,"o":""},"Ƞ":{"ha":70,"x_min":0,"x_max":0,"o":"m 826 -274 l 826 707 b 500 996 826 884 684 996 b 313 954 433 996 371 981 l 313 982 l 92 982 l 92 0 l 313 0 l 313 776 b 468 821 363 805 414 821 b 604 707 555 821 604 785 l 604 -274 z "},"Ȣ":{"ha":68,"x_min":0,"x_max":0,"o":"m 452 457 l 465 457 b 610 312 555 457 610 404 b 465 167 610 218 555 167 l 452 167 b 304 311 362 167 304 220 b 452 457 304 403 362 457 z m 465 642 l 449 642 b 304 736 354 642 304 656 b 370 819 304 785 323 810 l 370 996 b 72 736 183 997 71 902 b 178 541 72 647 109 583 b 72 311 109 489 71 411 b 452 -14 71 110 225 -14 l 465 -14 b 844 312 692 -14 844 110 b 738 541 844 412 806 489 b 846 736 807 583 846 647 b 545 996 846 902 732 997 l 545 819 b 614 736 593 808 613 785 b 465 642 614 658 562 642 z "},"Ȥ":{"ha":63,"x_min":0,"x_max":0,"o":"m 69 793 l 555 793 l 69 133 l 69 0 l 568 0 b 670 -121 654 0 670 -57 l 670 -175 l 857 -175 l 857 -80 b 568 189 859 88 755 189 l 355 189 l 841 849 l 841 982 l 69 982 z "},"Ȧ":{"ha":0,"x_min":0,"x_max":0,"o":""},"Ȩ":{"ha":-20,"x_min":0,"x_max":0,"o":"m 75 0 z "},"Ȫ":{"ha":0,"x_min":0,"x_max":0,"o":""},"Ȭ":{"ha":0,"x_min":0,"x_max":0,"o":""},"Ȯ":{"ha":0,"x_min":0,"x_max":0,"o":""},"Ȱ":{"ha":0,"x_min":0,"x_max":0,"o":""},"Ȳ":{"ha":0,"x_min":0,"x_max":0,"o":""},"Ⱥ":{"ha":184,"x_min":0,"x_max":0,"o":"m 841 1107 l 711 1107 l 670 978 l 669 982 l 362 982 l 28 0 l 278 0 l 345 210 l 429 210 l 323 -125 l 453 -125 l 559 210 l 686 210 l 753 0 l 1001 0 l 738 779 z m 400 387 l 511 739 l 519 739 l 557 620 l 484 387 z m 614 387 l 623 414 l 631 387 z "},"Ȼ":{"ha":173,"x_min":0,"x_max":0,"o":"m 254 -125 l 384 -125 l 422 -3 b 526 -14 455 -10 490 -14 b 330 -167 509 -110 435 -167 b 283 -163 313 -167 298 -165 l 458 396 b 526 271 496 368 519 324 l 760 271 b 524 602 743 434 654 547 l 570 750 l 441 750 l 404 633 b 326 639 379 637 353 639 b 122 631 102 639 197 483 z m 115 1085 b 349 1386 115 1276 203 1386 l 359 1386 l 190 848 b 115 1085 142 897 115 977 z "},"Ⱦ":{"ha":60,"x_min":0,"x_max":0,"o":"m 213 -125 l 342 -125 l 381 0 l 568 0 l 568 594 l 631 793 l 867 793 l 867 982 l 690 982 l 730 1107 l 601 1107 l 562 982 l 41 982 l 41 793 l 339 793 l 339 277 z "},"Ɂ":{"ha":-62,"x_min":0,"x_max":0,"o":"m 381 349 l 275 349 l 275 0 l 506 0 l 506 184 b 732 525 652 231 732 362 l 732 631 b 377 996 732 838 604 996 b 52 699 194 996 52 880 l 271 699 b 381 810 270 760 307 810 b 500 631 490 810 500 703 l 500 525 b 381 349 500 422 479 349 z "},"Ƀ":{"ha":132,"x_min":0,"x_max":0,"o":"m 163 0 l -448 0 l -448 -138 l -576 -138 l -576 0 z m -194 -56 z "},"Ʉ":{"ha":181,"x_min":0,"x_max":0,"o":"m 1038 555 l 933 555 l 933 982 l 701 982 l 701 555 l 336 555 l 336 982 l 106 982 l 106 555 l -9 555 l -9 426 l 106 426 l 106 349 l 106 426 l 210 426 z m -491 368 z "},"Ʌ":{"ha":192,"x_min":0,"x_max":0,"o":"m 727 0 l 981 0 l 642 982 l 396 982 l 57 0 l 312 0 l 519 718 z "},"Ɇ":{"ha":-20,"x_min":0,"x_max":0,"o":"m 674 1107 l 566 1107 l 530 982 l 75 982 l 75 0 l 247 0 l 210 -125 l 320 -125 l 357 0 l 755 0 l 755 189 l 411 189 l 471 397 l 719 397 l 719 586 l 525 586 l 585 793 l 754 793 l 754 982 l 639 982 z m 305 205 l 305 397 l 361 397 z m 305 586 l 305 793 l 476 793 l 415 586 z "},"Ɉ":{"ha":-73,"x_min":0,"x_max":0,"o":"m 472 982 l 472 652 l 338 652 l 338 524 l 472 524 l 472 302 l 693 302 l 693 632 z "},"Ɍ":{"ha":71,"x_min":0,"x_max":0,"o":"m 99 0 l 330 0 l 330 338 l 458 338 b -15 719 458 518 121 719 b -111 NaN 110 719 -111 NaN l -513 NaN l -513 NaN l -605 NaN l -605 NaN l -513 NaN "},"Ɏ":{"ha":149,"x_min":0,"x_max":0,"o":"m 985 776 l 857 776 l 971 982 l 713 982 l 608 776 l 388 776 l 282 982 l 23 982 l 137 776 l 11 776 l 11 663 l 199 663 l 382 332 l 566 663 l 754 663 z m 216 663 l 320 663 l 271 570 l 263 570 z "},"Ỻ":{"ha":463,"x_min":0,"x_max":0,"o":"m 122 0 l 1099 0 l 1099 189 l 686 189 l 686 982 l 456 982 l 456 189 l 353 189 l 353 982 l 122 982 z "},"Ỽ":{"ha":70,"x_min":0,"x_max":0,"o":"m 585 639 l 480 484 b 594 297 553 441 595 380 b 465 170 595 217 543 170 b 330 340 372 170 330 235 l 330 404 b 648 796 330 673 476 768 l 628 975 b 96 418 338 947 96 745 l 96 374 b 471 -14 96 126 252 -14 b 823 312 678 -14 823 104 b 585 639 823 460 713 579 z "},"Ỿ":{"ha":188,"x_min":0,"x_max":0,"o":"m 365 982 l 122 982 l 350 551 b 317 552 339 551 328 552 b 30 269 159 552 30 423 b 317 -14 30 113 160 -14 b 575 141 430 -14 527 50 l 575 140 l 1017 982 l 773 982 l 570 555 z m 317 171 b 221 271 262 171 221 206 b 317 369 221 335 262 369 b 415 271 372 369 415 335 b 317 171 415 206 372 171 z "},"Ɀ":{"ha":63,"x_min":0,"x_max":0,"o":"m 728 -288 b 845 -266 774 -288 815 -278 l 845 -90 b 747 -103 815 -99 784 -103 b 346 159 613 -103 534 90 l 833 861 l 833 982 l 68 982 l 68 798 l 540 798 l 68 123 l 68 0 l 137 0 b 728 -288 419 0 472 -288 z "},"Ａ":{"ha":455,"x_min":0,"x_max":0,"o":"m 414 0 "},"Ｂ":{"ha":455,"x_min":0,"x_max":0,"o":"m 281 0 "},"Ｃ":{"ha":0,"x_min":0,"x_max":0,"o":""},"Ｄ":{"ha":455,"x_min":0,"x_max":0,"o":"m 595 0 l 236 0 l 236 -982 z m 467 -784 "},"Ｅ":{"ha":455,"x_min":0,"x_max":0,"o":"m 312 0 z "},"Ｆ":{"ha":455,"x_min":0,"x_max":0,"o":"m 334 0 l 564 0 l 564 397 z "},"Ｇ":{"ha":455,"x_min":0,"x_max":0,"o":"m 857 662 l 1092 662 b 1263 625 1287 662 1263 487 b 1312 465 1263 399 1359 465 b 1252 NaN 1229 465 1252 NaN z "},"Ｈ":{"ha":455,"x_min":0,"x_max":0,"o":"m 224 0 z "},"Ｉ":{"ha":455,"x_min":0,"x_max":0,"o":""},"Ｊ":{"ha":455,"x_min":0,"x_max":0,"o":"m 736 982 "},"Ｋ":{"ha":455,"x_min":0,"x_max":0,"o":"m 256 0 l 487 0 l 487 269 l 585 389 l 833 0 l 1109 0 l 753 544 l 1104 982 l 830 982 l 500 563 l 487 563 l 487 982 l 256 982 z "},"Ｌ":{"ha":455,"x_min":0,"x_max":0,"o":""},"Ｍ":{"ha":455,"x_min":0,"x_max":0,"o":"m 106 982 l 106 0 l 331 0 l 331 613 l 339 613 l 578 5 l 724 5 l 963 610 l 971 610 l 971 0 l 1196 0 l 1196 982 l 910 982 l 656 363 l 646 363 l 392 982 z "},"Ｎ":{"ha":455,"x_min":0,"x_max":0,"o":"m 1067 982 l 1298 982 l 1298 1558 l 1305 1558 l 1704 982 l 1900 982 z "},"Ｏ":{"ha":455,"x_min":0,"x_max":0,"o":""},"Ｐ":{"ha":455,"x_min":0,"x_max":0,"o":"m 289 0 z "},"Ｑ":{"ha":455,"x_min":0,"x_max":0,"o":"m 571 350 l 692 193 b 651 190 678 191 665 190 b 485 78 555 190 534 115 l 421 157 b 621 576 421 515 562 576 b 649 NaN 630 576 649 629 l 725 NaN l 935 NaN l 791 NaN b 943 NaN 886 NaN 943 NaN z "},"Ｒ":{"ha":455,"x_min":0,"x_max":0,"o":"m 282 0 l 513 0 l 513 338 l 642 338 b 168 719 642 518 304 719 b 72 NaN 293 719 72 NaN l -330 NaN "},"Ｓ":{"ha":455,"x_min":0,"x_max":0,"o":"m 814 690 l 1036 690 b 662 996 1034 872 888 996 b 279 692 439 996 278 873 l 382 667 b 543 556 491 643 541 613 b 385 450 541 494 483 450 b 203 594 279 450 209 499 l -19 594 b 388 258 -15 369 144 258 b 777 556 632 258 776 370 "},"Ｔ":{"ha":455,"x_min":0,"x_max":0,"o":"m 239 793 l 537 793 l 537 0 l 766 0 l 766 793 l 1065 793 l 1065 982 l 239 982 z "},"Ｕ":{"ha":455,"x_min":0,"x_max":0,"o":"m 833 982 l 833 1615 z "},"Ｖ":{"ha":0,"x_min":0,"x_max":0,"o":""},"Ｗ":{"ha":455,"x_min":0,"x_max":0,"o":"m 244 0 "},"Ｘ":{"ha":455,"x_min":0,"x_max":0,"o":"m 464 982 "},"Ｙ":{"ha":455,"x_min":0,"x_max":0,"o":"m 176 982 l 536 332 l 894 982 l 636 982 l 425 570 l 416 570 l 205 982 z "},"Ｚ":{"ha":455,"x_min":0,"x_max":0,"o":"m 266 0 l 1038 0 l 1038 189 l 559 189 l 1038 849 l 557 189 z "},"ɢ":{"ha":70,"x_min":0,"x_max":0,"o":"m 817 109 l 817 393 l 469 393 l 469 251 l 609 251 l 609 183 b 475 164 586 170 562 164 b 323 305 374 164 323 224 l 323 414 b 461 553 323 496 373 553 b 591 471 541 553 579 532 l 810 471 b 461 727 791 650 667 727 b 102 412 251 727 102 600 l 102 305 b 475 -12 102 117 256 -12 b 817 109 684 -12 766 56 z "},"ʛ":{"ha":199,"x_min":0,"x_max":0,"o":"m 821 471 l 821 568 b 910 658 821 635 853 658 b 964 652 929 658 947 654 l 964 798 b 873 808 933 804 907 808 b 666 693 775 808 702 768 b 472 727 614 716 549 727 b 111 412 260 727 111 600 l 111 305 b 484 -12 111 117 266 -12 b 826 109 693 -12 776 56 l 826 393 l 479 393 l 479 251 l 620 251 l 620 183 b 484 164 595 170 571 164 b 332 305 384 164 332 224 l 332 414 b 472 553 332 496 382 553 b 602 471 551 553 589 532 z "},"ɪ":{"ha":-180,"x_min":0,"x_max":0,"o":"m 547 713 l 121 713 l 121 538 l 222 538 l 222 176 l 121 176 l 121 0 l 547 0 l 547 176 l 442 176 l 442 538 l 547 538 z "},"ʟ":{"ha":-189,"x_min":0,"x_max":0,"o":"m 600 175 l 279 175 l 279 713 l 58 713 l 58 0 l 600 0 z "},"ɴ":{"ha":3,"x_min":0,"x_max":0,"o":"m 777 736 l 551 736 l 551 354 l 543 354 l 258 736 l 73 736 l 73 0 l 294 0 l 294 357 l 301 357 l 564 0 l 777 0 z "},"ɶ":{"ha":321,"x_min":0,"x_max":0,"o":"m 1097 175 l 760 175 l 760 270 l 1038 270 l 1038 445 l 760 445 l 760 538 l 1097 538 l 1097 713 l 688 713 b 425 727 549 713 509 727 b 69 365 197 727 69 571 l 69 349 b 426 -14 69 142 197 -14 b 688 0 509 -14 547 0 l 1097 0 z m 292 349 l 292 365 b 425 552 290 464 323 552 b 538 545 462 552 494 548 l 538 171 b 426 164 494 168 462 164 b 292 349 321 164 290 244 z "},"ʀ":{"ha":73,"x_min":0,"x_max":0,"o":"m 454 713 l 123 713 l 123 0 l 342 0 l 342 235 l 448 235 l 578 0 l 798 0 l 646 273 b 780 465 730 313 780 382 b 454 713 780 609 655 713 z m 342 380 l 342 538 l 454 538 b 562 458 526 538 562 500 b 454 380 562 418 525 380 z "},"ʁ":{"ha":73,"x_min":0,"x_max":0,"o":"m 454 0 b 780 248 654 0 780 104 b 646 442 780 331 731 401 l 798 713 l 578 713 l 448 480 l 342 480 l 342 713 l 123 713 l 123 0 z m 342 175 l 342 334 l 454 334 b 562 255 525 334 562 292 b 454 175 562 218 525 175 z "},"ʏ":{"ha":-71,"x_min":0,"x_max":0,"o":"m 251 713 l 12 713 l 278 231 l 278 0 l 495 0 l 495 221 l 764 713 l 529 713 l 389 412 z "},"a":{"ha":0,"x_min":0,"x_max":0,"o":""},"á":{"ha":0,"x_min":0,"x_max":0,"o":""},"ă":{"ha":0,"x_min":0,"x_max":0,"o":""},"ắ":{"ha":0,"x_min":0,"x_max":0,"o":""},"ặ":{"ha":0,"x_min":0,"x_max":0,"o":""},"ằ":{"ha":0,"x_min":0,"x_max":0,"o":""},"ẳ":{"ha":-63,"x_min":0,"x_max":0,"o":"m -285 -779 l 363 -779 l 363 182 l 260 182 l 260 397 l 761 397 "},"ẵ":{"ha":-63,"x_min":0,"x_max":0,"o":"m -557 -937 l 88 -937 l 88 24 l -15 24 l -15 240 l 486 240 "},"ǎ":{"ha":0,"x_min":0,"x_max":0,"o":""},"â":{"ha":0,"x_min":0,"x_max":0,"o":""},"ấ":{"ha":0,"x_min":0,"x_max":0,"o":""},"ậ":{"ha":0,"x_min":0,"x_max":0,"o":""},"ầ":{"ha":0,"x_min":0,"x_max":0,"o":""},"ẩ":{"ha":0,"x_min":0,"x_max":0,"o":""},"ẫ":{"ha":-63,"x_min":0,"x_max":0,"o":"m -538 -886 l -80 -886 l -80 71 l -183 71 l -183 286 l 317 286 "},"ȁ":{"ha":0,"x_min":0,"x_max":0,"o":""},"ä":{"ha":0,"x_min":0,"x_max":0,"o":""},"ǟ":{"ha":0,"x_min":0,"x_max":0,"o":""},"ạ":{"ha":0,"x_min":0,"x_max":0,"o":""},"ǡ":{"ha":0,"x_min":0,"x_max":0,"o":""},"à":{"ha":0,"x_min":0,"x_max":0,"o":"l -63 0 l -63 324 l 767 324 l 767 119 "},"ả":{"ha":0,"x_min":0,"x_max":0,"o":""},"ȃ":{"ha":0,"x_min":0,"x_max":0,"o":""},"ā":{"ha":0,"x_min":0,"x_max":0,"o":""},"ą":{"ha":0,"x_min":0,"x_max":0,"o":"l 0 -63 l 624 -63 l 624 -334 l 1124 -334 l 1057 -334 "},"ẚ":{"ha":0,"x_min":0,"x_max":0,"o":""},"å":{"ha":-63,"x_min":0,"x_max":0,"o":"m -362 -699 l -465 -699 l -465 -483 l 35 -483 "},"ǻ":{"ha":0,"x_min":0,"x_max":0,"o":""},"ḁ":{"ha":0,"x_min":0,"x_max":0,"o":""},"ɑ":{"ha":0,"x_min":0,"x_max":0,"o":""},"ɒ":{"ha":68,"x_min":0,"x_max":0,"o":"m 830 355 l 830 376 b 556 746 830 600 728 746 b 359 629 463 746 401 702 b 174 746 326 707 261 746 b 87 732 142 746 115 742 l 103 567 b 114 570 109 567 110 570 b 163 484 149 570 163 543 l 163 0 l 355 0 l 372 88 b 555 -15 414 24 472 -15 b 830 355 730 -15 830 141 z m 609 376 l 609 355 b 486 161 609 247 575 161 b 384 213 437 161 405 180 l 384 486 l 382 524 b 486 571 403 554 435 571 b 609 376 587 571 609 480 z "},"ã":{"ha":0,"x_min":0,"x_max":0,"o":""},"ɐ":{"ha":-63,"x_min":0,"x_max":0,"o":"m 66 236 b 391 -9 66 77 209 -9 b 718 228 597 -9 708 98 l 505 228 b 396 153 495 179 457 153 b 296 233 334 153 296 182 l 296 293 b 472 301 327 294 419 298 b 745 532 618 311 745 369 b 502 750 745 678 643 750 b 288 633 399 750 328 708 l 282 633 l 282 736 l 66 736 z m 294 475 b 433 598 293 548 355 598 b 528 522 488 598 528 572 b 434 435 528 473 491 442 b 294 427 400 432 322 429 z "},"æ":{"ha":0,"x_min":0,"x_max":0,"o":""},"ǽ":{"ha":0,"x_min":0,"x_max":0,"o":""},"ǣ":{"ha":0,"x_min":0,"x_max":0,"o":""},"b":{"ha":12,"x_min":0,"x_max":0,"o":""},"ɤ":{"ha":62,"x_min":0,"x_max":0,"o":"m 26 646 l 127 517 b 198 556 146 537 175 556 b 340 419 234 556 266 525 l 339 418 b 233 153 279 316 233 233 b 454 -14 233 42 323 -14 b 674 153 583 -14 674 39 b 575 407 674 233 629 317 l 570 416 b 709 556 637 517 667 556 b 780 517 732 556 760 537 l 884 646 b 684 746 837 699 777 746 b 454 597 596 746 531 702 b 225 746 376 703 311 746 b 26 646 133 746 71 699 z m 426 165 b 453 239 425 181 434 205 b 481 165 471 205 481 181 b 454 138 480 153 475 138 b 426 165 430 138 425 153 z "},"ƀ":{"ha":12,"x_min":0,"x_max":0,"o":"m 75 0 l 248 0 l 248 69 l 20 69 l 20 0 l -114 0 l -114 -129 l 20 -129 "},"ḃ":{"ha":0,"x_min":0,"x_max":0,"o":""},"ḅ":{"ha":0,"x_min":0,"x_max":0,"o":""},"ɓ":{"ha":12,"x_min":0,"x_max":0,"o":"m 515 -11 l 661 -11 b 773 53 713 -11 773 1 b 416 42 773 71 628 42 l 416 -713 l 643 -713 l 643 -594 l 650 -594 b 857 -724 680 -661 745 -724 z m 780 -545 z "},"ḇ":{"ha":0,"x_min":0,"x_max":0,"o":""},"ƃ":{"ha":12,"x_min":0,"x_max":0,"o":"m 704 982 l 75 982 l 75 0 l 289 0 l 289 401 "},"ʘ":{"ha":0,"x_min":0,"x_max":0,"o":""},"c":{"ha":-48,"x_min":0,"x_max":0,"o":""},"ć":{"ha":0,"x_min":0,"x_max":0,"o":""},"č":{"ha":0,"x_min":0,"x_max":0,"o":""},"ç":{"ha":0,"x_min":0,"x_max":0,"o":""},"ḉ":{"ha":0,"x_min":0,"x_max":0,"o":""},"ĉ":{"ha":0,"x_min":0,"x_max":0,"o":""},"ɕ":{"ha":-44,"x_min":0,"x_max":0,"o":"m 420 -14 b 755 218 647 -14 755 94 b 540 391 754 330 667 391 b 290 281 440 391 362 351 b 279 369 283 307 279 336 b 420 572 279 500 336 572 b 543 450 490 572 533 525 l 757 450 b 416 746 750 629 618 746 b 46 366 187 746 46 591 b 141 98 46 255 79 163 l 85 18 l 229 -76 l 285 7 b 420 -14 326 -7 371 -14 z m 397 160 b 522 245 450 220 488 245 b 557 212 541 245 559 233 b 420 157 555 180 510 157 b 397 160 412 157 405 158 z "},"ċ":{"ha":0,"x_min":0,"x_max":0,"o":""},"ƈ":{"ha":28,"x_min":0,"x_max":0,"o":"m 757 450 l 757 566 b 838 656 757 631 781 656 b 892 651 859 656 875 652 l 892 795 b 802 808 861 804 831 808 b 590 711 711 808 634 774 b 563 665 612 711 563 652 b 183 736 563 598 338 736 b 620 983 415 736 620 864 b NaN NaN 620 1162 627 NaN z "},"ʗ":{"ha":-63,"x_min":0,"x_max":0,"o":"m 406 -117 b 285 71 294 -117 285 -12 l 285 384 b 404 571 285 467 294 571 b 514 458 479 571 513 519 l 720 458 b 408 746 720 642 593 746 b 64 384 180 746 64 590 l 64 71 b 410 -292 64 -137 180 -292 b 720 -22 583 -292 720 -184 l 514 -22 b 406 -117 513 -81 471 -117 z "},"d":{"ha":12,"x_min":0,"x_max":0,"o":""},"ď":{"ha":0,"x_min":0,"x_max":0,"o":""},"ḑ":{"ha":0,"x_min":0,"x_max":0,"o":""},"ḓ":{"ha":0,"x_min":0,"x_max":0,"o":""},"đ":{"ha":12,"x_min":0,"x_max":0,"o":""},"ḋ":{"ha":0,"x_min":0,"x_max":0,"o":""},"ḍ":{"ha":0,"x_min":0,"x_max":0,"o":""},"ƍ":{"ha":73,"x_min":0,"x_max":0,"o":"m 732 -247 l 732 -137 b 529 54 693 -96 586 9 l 553 54 b 817 392 696 79 817 205 l 817 406 b 461 746 817 609 688 746 b 106 376 232 746 106 597 l 106 362 b 330 7 106 221 198 109 b 448 -73 387 -37 427 -57 l 176 -73 l 176 -247 z m 597 376 l 597 362 b 460 163 597 251 562 163 b 429 167 448 163 438 163 b 326 362 373 198 326 264 l 326 376 b 461 571 326 488 355 571 b 597 376 572 571 597 479 z "},"ɗ":{"ha":50,"x_min":0,"x_max":0,"o":"m 343 -11 b 551 119 457 -11 521 53 l 557 119 l 557 0 l 784 0 l 784 749 b 902 819 784 823 861 819 b 955 815 918 819 933 818 l 955 986 b 840 996 932 990 886 996 b 556 749 720 996 556 963 l 556 610 l 551 610 z "},"ḏ":{"ha":0,"x_min":0,"x_max":0,"o":""},"ɖ":{"ha":0,"x_min":0,"x_max":0,"o":"b 13 -41 10 0 -39 -53 l 13 978 l -215 978 l -215 606 l -220 606 b -13 736 -108 606 -43 670 l -6 736 l -6 581 b 260 340 -6 385 112 340 "},"ƌ":{"ha":12,"x_min":0,"x_max":0,"o":"m 155 982 l 155 825 l 556 825 l 556 610 l 551 610 z m 327 -3 b 187 -203 327 -125 275 -203 z "},"ʤ":{"ha":509,"x_min":0,"x_max":0,"o":"m 750 0 l 750 562 l 1040 562 l 814 304 l 814 174 l 905 174 b 1085 22 1005 174 1085 138 b 928 -117 1085 -65 1029 -117 b 754 -39 825 -117 780 -84 l 534 -39 b 935 -292 583 -247 758 -292 b 1306 4 1150 -292 1306 -189 b 1044 304 1306 170 1211 274 l 1290 590 l 1290 736 l 750 736 l 750 982 l 522 982 l 522 661 l 514 661 b 342 746 488 718 420 746 b 47 368 190 746 47 627 b 343 -11 47 117 182 -11 b 514 72 422 -11 488 16 l 525 72 l 525 0 z m 263 369 b 411 567 263 495 312 567 b 548 369 515 567 548 477 b 411 168 548 262 518 168 b 263 369 312 168 263 241 z "},"ǳ":{"ha":677,"x_min":0,"x_max":0,"o":"m 400 -168 z "},"ʣ":{"ha":677,"x_min":0,"x_max":0,"o":"m 821 0 l 1142 410 l 1142 553 l 487 553 l 487 799 l 259 799 l 259 427 l 254 427 l 812 427 l 812 808 l 807 808 l 463 387 z m 62 423 b -111 256 -60 423 -111 345 z "},"ǆ":{"ha":677,"x_min":0,"x_max":0,"o":"m 400 -168 "},"ʥ":{"ha":0,"x_min":0,"x_max":0,"o":"l 886 0 l 886 343 l 1447 343 l 1447 716 l 1110 282 l 1110 156 l 1369 156 b 1387 389 1301 156 1387 278 b 1197 575 1387 500 1299 575 b 882 332 1091 575 1006 497 l 779 332 l 1114 766 l 1114 892 l 460 892 l 460 1138 l 233 1138 l 233 766 l 227 766 m 1217 774 b 1304 846 1257 827 1278 846 b 1341 821 1323 846 1339 836 b 1262 774 1339 793 1320 774 z "},"ð":{"ha":-35,"x_min":0,"x_max":0,"o":"m 623 922 l 616 1021 l 439 930 b 164 1034 355 980 260 1015 l 152 918 b 289 853 197 901 244 879 l 151 781 l 159 684 l 376 795 b 541 602 446 740 507 674 l 530 602 b 346 680 491 646 429 680 b 45 338 164 680 45 529 b 403 -15 45 126 187 -15 b 768 382 629 -15 768 142 b 524 872 768 589 669 756 z m 408 156 b 262 353 315 156 262 236 b 408 543 262 467 311 543 b 557 351 509 543 557 463 b 408 156 557 232 500 156 z "},"e":{"ha":0,"x_min":0,"x_max":0,"o":""},"é":{"ha":0,"x_min":0,"x_max":0,"o":""},"ĕ":{"ha":0,"x_min":0,"x_max":0,"o":""},"ě":{"ha":0,"x_min":0,"x_max":0,"o":""},"ḝ":{"ha":0,"x_min":0,"x_max":0,"o":""},"ê":{"ha":0,"x_min":0,"x_max":0,"o":""},"ế":{"ha":0,"x_min":0,"x_max":0,"o":""},"ḙ":{"ha":0,"x_min":0,"x_max":0,"o":""},"ệ":{"ha":0,"x_min":0,"x_max":0,"o":""},"ề":{"ha":0,"x_min":0,"x_max":0,"o":""},"ể":{"ha":0,"x_min":0,"x_max":0,"o":""},"ễ":{"ha":0,"x_min":0,"x_max":0,"o":""},"ȅ":{"ha":0,"x_min":0,"x_max":0,"o":""},"ë":{"ha":0,"x_min":0,"x_max":0,"o":""},"ė":{"ha":0,"x_min":0,"x_max":0,"o":""},"ẹ":{"ha":0,"x_min":0,"x_max":0,"o":""},"è":{"ha":0,"x_min":0,"x_max":0,"o":"l -39 0 l -39 -88 l 805 -88 l 805 -293 "},"ẻ":{"ha":0,"x_min":0,"x_max":0,"o":""},"ȇ":{"ha":0,"x_min":0,"x_max":0,"o":""},"ē":{"ha":0,"x_min":0,"x_max":0,"o":""},"ḗ":{"ha":0,"x_min":0,"x_max":0,"o":""},"ḕ":{"ha":0,"x_min":0,"x_max":0,"o":""},"ę":{"ha":0,"x_min":0,"x_max":0,"o":"b 466 -214 -39 0 466 -247 b 509 -154 466 -192 488 -154 b 711 62 619 -120 691 -43 b 1008 -311 711 -146 821 -283 "},"ɛ":{"ha":0,"x_min":0,"x_max":0,"o":""},"ɜ":{"ha":-55,"x_min":0,"x_max":0,"o":"m 270 450 l 270 302 l 378 302 b 510 224 442 302 509 282 b 384 149 509 186 467 149 b 254 212 297 149 258 171 l 39 212 b 369 -14 42 61 201 -14 b 726 201 568 -14 724 68 b 555 374 724 286 667 349 b 713 536 656 402 713 466 "},"ɞ":{"ha":-55,"x_min":0,"x_max":0,"o":"m 392 -14 b 727 201 585 -14 727 68 b 570 376 727 286 677 349 b 713 536 665 403 713 467 b 392 746 713 671 585 746 b 50 377 210 746 50 635 b 392 -14 50 107 218 -14 z m 266 377 b 407 585 264 543 336 585 b 496 515 473 585 496 551 b 400 446 496 475 467 446 l 373 446 l 373 305 l 400 305 b 509 224 465 305 509 281 b 407 151 509 186 480 151 b 266 377 320 151 264 216 z "},"ɝ":{"ha":279,"x_min":0,"x_max":0,"o":"m 273 450 l 273 302 l 381 302 b 513 224 445 302 511 282 b 387 149 511 186 469 149 b 256 212 300 149 260 171 l 42 212 b 372 -14 45 61 203 -14 b 728 201 571 -14 727 68 b 557 374 727 286 670 349 b 686 452 615 391 659 418 l 738 465 b 929 255 765 347 793 255 b 1040 282 966 255 1008 263 l 1012 419 b 972 418 1000 418 989 418 b 873 636 895 418 895 498 l 704 601 "},"ʚ":{"ha":-55,"x_min":0,"x_max":0,"o":"m 400 -14 b 742 377 574 -14 743 107 b 400 746 743 635 583 746 b 79 536 209 746 79 671 b 224 376 79 467 127 403 b 65 201 115 349 65 286 b 400 -14 65 68 208 -14 z m 283 224 b 392 305 283 281 327 305 l 419 305 l 419 446 l 392 446 b 296 515 326 446 296 475 b 385 585 296 551 319 585 b 528 377 456 585 528 543 b 385 151 528 216 472 151 b 283 224 312 151 283 186 z "},"ɘ":{"ha":-64,"x_min":0,"x_max":0,"o":"m 361 -14 b 735 343 595 -14 735 146 l 735 369 b 378 746 735 579 614 746 b 49 388 175 746 49 614 l 49 296 l 510 296 b 338 164 494 210 434 164 b 170 235 281 164 216 182 l 66 113 b 361 -14 118 45 220 -14 z m 262 435 l 262 446 b 380 571 264 529 311 571 b 510 435 468 571 500 505 z "},"ʃ":{"ha":-191,"x_min":0,"x_max":0,"o":"m 216 770 l 216 -35 l 1021 -35 b 1126 46 1021 19 1059 46 b 1184 39 1154 46 1168 43 l 1184 206 b 1103 NaN 1192 206 1103 39 z "},"ʆ":{"ha":-70,"x_min":0,"x_max":0,"o":"m 31 -99 b 286 -288 31 -210 113 -288 b 529 -175 416 -288 490 -243 l 654 -275 l 750 -141 l 563 1 l 563 770 b 669 852 563 825 604 852 b 727 845 694 852 713 849 l 727 1012 b 623 1027 693 1021 658 1027 b 342 770 452 1027 342 937 l 342 81 b 266 84 318 83 293 84 b 31 -99 111 84 31 11 z m 220 -104 b 290 -61 220 -75 248 -61 b 342 -68 308 -61 325 -63 l 342 -79 b 281 -153 342 -123 327 -153 b 220 -104 250 -153 220 -141 z "},"ƪ":{"ha":68,"x_min":0,"x_max":0,"o":"m 90 745 b 378 461 91 587 220 461 b 449 471 403 461 427 464 l 449 -7 b 720 -288 449 -189 552 -288 b 826 -278 760 -288 793 -285 l 826 -106 b 762 -111 800 -110 783 -111 b 669 -7 703 -111 669 -76 l 669 745 b 378 1027 669 898 537 1027 b 90 745 218 1027 90 898 z m 380 646 b 281 746 321 646 281 680 b 380 842 282 810 321 842 b 475 746 430 842 475 811 b 380 646 476 680 431 646 z "},"ʅ":{"ha":-189,"x_min":0,"x_max":0,"o":"m 441 -35 l 441 490 b 160 746 441 655 332 746 b 54 734 123 746 88 741 l 53 564 b 111 571 69 570 85 571 b 220 490 179 571 220 543 l 220 -35 b 496 -292 220 -203 327 -292 b 605 -278 540 -292 574 -285 l 606 -111 b 545 -117 589 -115 572 -117 b 441 -35 479 -117 441 -90 z "},"ẽ":{"ha":0,"x_min":0,"x_max":0,"o":""},"ḛ":{"ha":0,"x_min":0,"x_max":0,"o":""},"ǝ":{"ha":0,"x_min":0,"x_max":0,"o":""},"ə":{"ha":0,"x_min":0,"x_max":0,"o":""},"ɚ":{"ha":325,"x_min":0,"x_max":0,"o":"m 392 727 b 100 604 245 727 142 662 l 201 479 b 377 552 243 530 307 552 b 524 477 443 552 494 524 l 83 373 l 83 335 b 415 -14 81 122 203 -14 b 766 355 643 -14 766 151 l 766 380 l 766 389 l 789 395 b 978 182 814 277 844 182 b 1090 213 1017 182 1057 194 l 1063 349 b 1023 346 1050 349 1036 346 b 922 567 945 346 947 423 l 736 525 b 392 727 683 642 564 727 z m 296 270 l 296 282 l 548 339 b 416 164 545 260 519 164 b 296 270 331 164 296 205 z "},"ʒ":{"ha":0,"x_min":0,"x_max":0,"o":""},"ǯ":{"ha":0,"x_min":0,"x_max":0,"o":""},"ʓ":{"ha":83,"x_min":0,"x_max":0,"o":"m 110 736 l 110 553 l 517 553 l 517 547 l 301 335 l 301 178 l 426 178 b 583 53 524 178 583 123 l 583 42 b 320 121 515 87 425 121 b 60 -69 163 121 60 49 b 385 -288 60 -225 241 -288 b 677 -203 513 -288 610 -256 l 780 -281 l 869 -168 l 764 -90 b 784 20 777 -56 784 -18 b 525 309 784 174 692 290 l 525 317 l 798 583 l 795 736 z m 259 -61 b 328 -19 259 -35 285 -19 b 515 -84 395 -19 463 -48 b 408 -113 488 -102 453 -113 b 259 -61 320 -113 258 -94 z "},"ƹ":{"ha":45,"x_min":0,"x_max":0,"o":"m 836 41 l 602 41 b 450 -71 598 -27 533 -71 b 304 53 362 -71 304 -22 b 471 178 304 126 365 178 l 585 178 l 585 335 l 373 543 l 373 549 l 785 549 l 785 736 l 94 736 l 94 570 l 358 317 l 358 309 b 61 35 141 286 61 157 b 450 -259 61 -141 229 -259 b 836 41 677 -259 831 -137 z "},"ƺ":{"ha":-62,"x_min":0,"x_max":0,"o":"m 107 736 l 107 562 l 374 562 l 220 430 l 220 305 l 392 305 b 483 243 448 305 483 283 b 347 159 483 194 434 175 b 69 -66 155 125 69 56 b 391 -292 69 -199 195 -292 b 715 -50 601 -292 715 -164 l 509 -50 b 384 -141 505 -121 445 -141 b 282 -79 327 -141 283 -122 b 414 3 282 -46 313 -20 b 692 233 563 37 692 98 b 506 439 692 328 625 408 l 708 612 l 708 736 z "},"f":{"ha":-322,"x_min":0,"x_max":0,"o":""},"ḟ":{"ha":0,"x_min":0,"x_max":0,"o":""},"ʩ":{"ha":0,"x_min":0,"x_max":0,"o":""},"ʪ":{"ha":193,"x_min":0,"x_max":0,"o":"m 743 202 b 614 142 743 160 712 142 b 296 231 535 142 414 165 l 296 982 l 66 982 l 66 0 l 296 0 l 296 47 b 614 -14 405 3 505 -14 b 956 208 831 -14 956 80 b 690 433 956 339 863 400 b 544 511 595 449 544 464 b 636 579 544 553 585 579 b 738 494 707 579 736 548 l 956 494 b 637 727 955 631 834 727 b 336 500 448 727 335 621 b 598 279 335 370 457 311 b 743 202 707 256 743 240 z "},"ʭ":{"ha":-192,"x_min":0,"x_max":0,"o":"m 608 385 l 46 385 l 46 0 l 206 0 l 206 262 l 448 262 l 448 0 l 608 0 z m 608 960 l 46 960 l 46 576 l 206 576 l 206 837 l 448 837 l 448 576 l 608 576 z "},"g":{"ha":12,"x_min":0,"x_max":0,"o":""},"ǵ":{"ha":0,"x_min":0,"x_max":0,"o":""},"ɣ":{"ha":64,"x_min":0,"x_max":0,"o":"m 458 -292 b 712 -107 616 -292 713 -231 b 656 80 711 -57 696 8 l 572 233 l 852 736 l 621 736 l 457 444 l 296 736 l 65 736 l 345 241 l 250 72 b 197 -104 213 8 197 -54 b 458 -292 198 -231 298 -292 z m 423 -100 b 460 27 423 -65 437 -24 b 491 -100 479 -20 491 -64 b 458 -141 491 -130 479 -141 b 423 -100 431 -141 423 -126 z "},"ǥ":{"ha":12,"x_min":0,"x_max":0,"o":"m 415 -292 b 785 -4 635 -292 785 -191 b 1397 111 1104 -4 1397 66 b NaN 83 1397 65 1320 83 l NaN 83 l NaN -46 l NaN -46 b NaN -183 NaN -133 NaN -183 z "},"ğ":{"ha":0,"x_min":0,"x_max":0,"o":""},"ǧ":{"ha":0,"x_min":0,"x_max":0,"o":""},"ĝ":{"ha":0,"x_min":0,"x_max":0,"o":""},"ģ":{"ha":0,"x_min":0,"x_max":0,"o":""},"ɡ":{"ha":12,"x_min":0,"x_max":0,"o":""},"ġ":{"ha":0,"x_min":0,"x_max":0,"o":""},"ɠ":{"ha":39,"x_min":0,"x_max":0,"o":"m 788 -4 l 788 755 b 898 821 788 808 846 821 b 951 817 916 821 916 819 l 951 989 b 834 996 922 991 891 996 b 562 755 704 996 562 963 b 541 1126 543 755 541 975 b NaN NaN 541 1226 728 NaN b NaN NaN NaN NaN NaN NaN b NaN NaN NaN NaN NaN NaN b NaN NaN NaN NaN NaN NaN z "},"ʡ":{"ha":-63,"x_min":0,"x_max":0,"o":"m 642 213 l 507 213 l 507 221 l 415 221 l 415 60 l 279 60 l 279 -68 l 415 -68 l 415 -153 l 635 -153 l 635 -68 l 769 -68 z "},"ƾ":{"ha":-62,"x_min":0,"x_max":0,"o":"m 503 202 b 400 137 503 159 464 137 b 277 229 343 137 282 160 l 71 229 b 396 -14 71 117 184 -14 b 715 208 591 -14 716 80 b 472 545 716 429 473 353 l 472 556 l 595 556 l 595 713 l 472 713 l 472 892 l 251 892 l 251 713 l 153 713 l 153 556 l 251 556 l 251 548 b 503 202 252 281 503 304 z "},"ʢ":{"ha":0,"x_min":0,"x_max":0,"o":"l 0 -63 l -30 -63 l -30 -199 l -159 -199 l -159 -63 l -216 -63 l -216 158 l -159 158 l -159 295 l -30 295 l -30 158 l 160 158 "},"ʖ":{"ha":-63,"x_min":0,"x_max":0,"o":"m 380 640 b 499 453 490 640 500 540 l 499 349 b 380 164 500 269 490 164 b 270 275 307 164 270 213 l 64 275 b 376 -14 64 91 194 -14 b 720 349 605 -14 720 144 l 720 453 b 494 799 720 620 645 754 l 494 982 l 273 982 l 273 640 z "},"ʕ":{"ha":0,"x_min":0,"x_max":0,"o":"l 0 -63 l -216 -63 l -216 158 l 160 158 "},"ḡ":{"ha":0,"x_min":0,"x_max":0,"o":""},"ȝ":{"ha":-60,"x_min":0,"x_max":0,"o":"m 164 251 l 164 92 b 472 210 290 127 392 165 b 488 138 482 191 488 167 b 164 -127 488 30 408 -39 l 164 -288 b 709 126 525 -210 709 -71 b 606 307 709 210 673 271 b 696 514 666 368 696 436 b 393 746 696 666 591 746 b 77 506 195 746 76 655 l 298 506 b 389 583 297 555 331 583 b 476 494 448 583 476 555 b 164 251 476 391 391 326 z "},"h":{"ha":3,"x_min":0,"x_max":0,"o":""},"ħ":{"ha":0,"x_min":0,"x_max":0,"o":""},"ḫ":{"ha":0,"x_min":0,"x_max":0,"o":""},"ḩ":{"ha":0,"x_min":0,"x_max":0,"o":"l 3 0 l 3 302 l 70 302 l 70 372 "},"ĥ":{"ha":0,"x_min":0,"x_max":0,"o":""},"ḧ":{"ha":0,"x_min":0,"x_max":0,"o":""},"ḣ":{"ha":0,"x_min":0,"x_max":0,"o":""},"ḥ":{"ha":0,"x_min":0,"x_max":0,"o":""},"ɧ":{"ha":2,"x_min":0,"x_max":0,"o":"m 549 426 l 549 -37 b 448 -100 549 -88 496 -100 b 393 -98 427 -100 411 -99 l 393 -269 b 509 -277 420 -271 454 -277 b 777 -37 656 -277 777 -232 l 1283 -37 l 1283 -45 l 1438 -45 b 1550 15 1491 -45 1550 -34 b 1208 4 1550 35 1416 4 l 1208 -753 l 1438 -753 l 1438 -331 z "},"ɦ":{"ha":2,"x_min":0,"x_max":0,"o":"m 290 602 l 290 757 b 399 821 290 810 350 821 b 453 817 419 821 435 818 l 453 989 b 339 996 426 991 392 996 b 73 757 208 996 73 964 l 73 0 l 302 0 l 302 422 z "},"ẖ":{"ha":0,"x_min":0,"x_max":0,"o":""},"ɥ":{"ha":3,"x_min":0,"x_max":0,"o":"m 548 315 b 420 178 548 229 496 178 b 300 311 343 178 298 228 l 300 736 l 71 736 l 71 267 b 327 -9 71 99 172 -9 b 548 134 437 -9 514 45 l 556 134 l 556 -245 l 777 -245 l 777 736 l 548 736 z "},"ʯ":{"ha":0,"x_min":0,"x_max":0,"o":"l 130 0 l 130 -171 b 395 -411 130 -366 246 -411 b 511 -403 450 -411 482 -406 l 511 -232 b 458 -235 494 -233 474 -235 b 351 -171 406 -235 351 -222 l 351 602 l 123 602 l 123 182 "},"ʮ":{"ha":0,"x_min":0,"x_max":0,"o":"l 113 0 l 113 -411 l 334 -411 l 334 602 l 106 602 l 106 182 "},"ƕ":{"ha":489,"x_min":0,"x_max":0,"o":"m 73 0 l 302 0 l 302 422 b 430 559 302 507 354 559 b 551 426 507 559 551 509 l 551 286 b 863 -14 551 102 659 -14 b 1263 661 1146 -14 1263 212 l 1263 736 l 1034 736 l 1034 661 b 869 174 1034 342 983 174 b 780 286 821 174 780 205 l 963 286 l 963 666 l 742 666 z "},"i":{"ha":-471,"x_min":0,"x_max":0,"o":""},"ı":{"ha":-471,"x_min":0,"x_max":0,"o":""},"í":{"ha":0,"x_min":0,"x_max":0,"o":""},"ɨ":{"ha":0,"x_min":0,"x_max":0,"o":""},"ĭ":{"ha":0,"x_min":0,"x_max":0,"o":""},"ǐ":{"ha":0,"x_min":0,"x_max":0,"o":""},"î":{"ha":0,"x_min":0,"x_max":0,"o":""},"ȉ":{"ha":0,"x_min":0,"x_max":0,"o":""},"ï":{"ha":0,"x_min":0,"x_max":0,"o":""},"ḯ":{"ha":0,"x_min":0,"x_max":0,"o":""},"ị":{"ha":0,"x_min":0,"x_max":0,"o":""},"ì":{"ha":0,"x_min":0,"x_max":0,"o":""},"ỉ":{"ha":0,"x_min":0,"x_max":0,"o":""},"ȋ":{"ha":0,"x_min":0,"x_max":0,"o":""},"ī":{"ha":0,"x_min":0,"x_max":0,"o":""},"į":{"ha":0,"x_min":0,"x_max":0,"o":"l -458 0 l -458 195 l -729 195 l -729 197 l 7 197 l 7 -33 l -707 -33 "},"ĩ":{"ha":-458,"x_min":0,"x_max":0,"o":"m 80 0 "},"ḭ":{"ha":0,"x_min":0,"x_max":0,"o":""},"ĳ":{"ha":0,"x_min":0,"x_max":0,"o":""},"j":{"ha":0,"x_min":0,"x_max":0,"o":""},"ȷ":{"ha":-471,"x_min":0,"x_max":0,"o":""},"ǰ":{"ha":0,"x_min":0,"x_max":0,"o":""},"ĵ":{"ha":0,"x_min":0,"x_max":0,"o":""},"ʝ":{"ha":0,"x_min":0,"x_max":0,"o":""},"ɟ":{"ha":0,"x_min":0,"x_max":0,"o":""},"ʄ":{"ha":-191,"x_min":0,"x_max":0,"o":"m 216 770 l 216 145 l 81 145 l 81 16 l 216 16 l 216 -35 l 267 -35 l 267 99 l 396 99 l 396 -35 l 1021 -35 b 1126 46 1021 19 1059 46 b 1184 39 1154 46 1168 43 l 1184 206 b 1103 NaN 1192 206 1103 39 z "},"k":{"ha":-52,"x_min":0,"x_max":0,"o":""},"ḱ":{"ha":0,"x_min":0,"x_max":0,"o":""},"ǩ":{"ha":0,"x_min":0,"x_max":0,"o":""},"ķ":{"ha":0,"x_min":0,"x_max":0,"o":""},"ḳ":{"ha":0,"x_min":0,"x_max":0,"o":""},"ĸ":{"ha":0,"x_min":0,"x_max":0,"o":""},"ƙ":{"ha":-56,"x_min":0,"x_max":0,"o":"m 545 0 l 792 0 l 505 422 l 780 736 l 515 736 l 312 498 l 302 498 l 302 755 b 404 821 302 808 354 821 b 457 817 422 821 439 818 l 457 989 b 343 996 430 991 391 996 b 73 755 214 996 73 963 l 73 0 l 302 0 l 302 187 l 369 259 z "},"ḵ":{"ha":0,"x_min":0,"x_max":0,"o":""},"ʞ":{"ha":-52,"x_min":0,"x_max":0,"o":"m 722 736 l 492 736 l 492 513 l 445 454 l 263 736 l -1 736 l 275 321 l 9 0 l 270 0 l 483 267 l 492 267 l 492 -245 l 722 -245 z "},"l":{"ha":-471,"x_min":0,"x_max":0,"o":""},"ĺ":{"ha":0,"x_min":0,"x_max":0,"o":""},"ƛ":{"ha":64,"x_min":0,"x_max":0,"o":"m 579 911 l 477 880 l 467 903 b 275 1019 435 978 374 1019 b 151 1004 243 1019 184 1013 l 156 840 b 198 842 175 842 187 842 b 273 817 231 842 255 833 l 140 774 l 140 639 l 326 697 l 69 0 l 305 0 l 444 412 l 543 141 b 761 -14 576 53 640 -14 b 841 -9 793 -14 821 -14 l 842 163 l 819 163 b 745 241 780 163 758 206 l 526 761 l 579 777 z "},"ƚ":{"ha":-471,"x_min":0,"x_max":0,"o":"m 302 982 l 73 982 l 73 576 l -374 576 l -374 806 l 73 806 z "},"ɬ":{"ha":-142,"x_min":0,"x_max":0,"o":"m 244 354 l 320 354 l 320 0 l 548 0 l 548 354 l 692 354 l 692 500 l 548 500 l 548 982 l 320 982 l 320 743 b 273 746 305 745 290 746 b 18 540 99 746 18 651 b 244 354 18 431 92 354 z m 209 545 b 269 590 208 568 235 590 b 320 517 305 590 320 563 l 320 500 l 269 500 b 209 545 228 500 208 524 z "},"ľ":{"ha":0,"x_min":0,"x_max":0,"o":""},"ḽ":{"ha":0,"x_min":0,"x_max":0,"o":""},"ļ":{"ha":0,"x_min":0,"x_max":0,"o":""},"ȴ":{"ha":-254,"x_min":0,"x_max":0,"o":"m 60 982 l 60 11 b -35 -47 26 -8 -5 -28 l -132 -121 l -23 -247 l 102 -148 b 346 -277 158 -237 260 -277 b 568 -71 483 -277 568 -172 b 365 118 568 28 487 118 b 288 109 340 118 315 115 l 288 982 z m 288 -52 l 288 -39 b 343 -33 306 -35 324 -33 b 392 -77 373 -33 391 -60 b 349 -126 391 -102 373 -126 b 288 -52 305 -126 288 -96 z "},"ŀ":{"ha":0,"x_min":0,"x_max":0,"o":""},"ḷ":{"ha":0,"x_min":0,"x_max":0,"o":""},"ḹ":{"ha":0,"x_min":0,"x_max":0,"o":""},"ǉ":{"ha":0,"x_min":0,"x_max":0,"o":""},"ḻ":{"ha":0,"x_min":0,"x_max":0,"o":""},"ɫ":{"ha":-393,"x_min":0,"x_max":0,"o":"m 346 982 l 117 982 l 117 612 l 115 612 z "},"ɭ":{"ha":-393,"x_min":0,"x_max":0,"o":"m 302 -37 l 302 982 l 73 982 l 73 -37 b 343 -277 73 -232 193 -277 b 457 -269 397 -277 430 -271 z "},"ł":{"ha":-473,"x_min":0,"x_max":0,"o":"m 389 646 l 302 620 l 302 982 l 73 982 l 73 549 l -15 522 l -15 401 l 73 429 l 73 0 l 302 0 l 302 499 l 389 525 z "},"ɮ":{"ha":136,"x_min":0,"x_max":0,"o":"m 75 982 l 75 41 l 288 41 l 288 553 l 635 553 l 635 547 l 418 335 l 418 178 l 544 178 b 701 39 647 178 701 126 b 556 -103 701 -52 643 -103 b 430 -54 500 -103 457 -84 l 262 -193 b 553 -292 331 -255 433 -292 b 944 19 783 -292 941 -168 b 643 309 945 156 860 283 l 643 317 l 914 583 l 913 736 l 288 736 l 288 982 z "},"m":{"ha":395,"x_min":0,"x_max":0,"o":""},"ḿ":{"ha":0,"x_min":0,"x_max":0,"o":""},"ṁ":{"ha":0,"x_min":0,"x_max":0,"o":""},"ṃ":{"ha":0,"x_min":0,"x_max":0,"o":""},"ɱ":{"ha":395,"x_min":0,"x_max":0,"o":"m 943 445 l 943 -37 b 789 -49 891 -37 840 -49 b NaN NaN 770 -49 823 NaN b NaN NaN NaN NaN NaN NaN l NaN NaN l NaN NaN l NaN NaN l NaN NaN b NaN NaN NaN NaN NaN NaN b NaN NaN NaN NaN NaN NaN l NaN NaN l NaN NaN l NaN NaN b NaN NaN NaN NaN NaN NaN b NaN NaN NaN NaN NaN NaN z "},"ɯ":{"ha":395,"x_min":0,"x_max":0,"o":"m 1169 736 l 1386 736 z "},"ɰ":{"ha":395,"x_min":0,"x_max":0,"o":"m 951 -277 l 1168 -277 l 1168 0 l 1169 0 l 1169 736 l 1168 736 z "},"n":{"ha":1,"x_min":0,"x_max":0,"o":""},"ń":{"ha":0,"x_min":0,"x_max":0,"o":""},"ň":{"ha":0,"x_min":0,"x_max":0,"o":""},"ṋ":{"ha":0,"x_min":0,"x_max":0,"o":""},"ņ":{"ha":0,"x_min":0,"x_max":0,"o":""},"ȵ":{"ha":246,"x_min":0,"x_max":0,"o":"m 302 422 l 302 106 b 229 33 279 87 254 62 l 134 -75 l 243 -171 l 319 -84 b 556 -220 355 -180 452 -221 b 811 -15 715 -220 812 -134 b 591 187 811 103 716 187 l 530 187 l 530 465 z m 1005 468 l 1005 518 b 1053 522 1025 522 1041 523 b 1109 468 1084 522 1109 502 b 1061 411 1109 433 1090 411 b 1005 468 1028 411 1005 434 z "},"ṅ":{"ha":0,"x_min":0,"x_max":0,"o":""},"ṇ":{"ha":0,"x_min":0,"x_max":0,"o":""},"ǌ":{"ha":0,"x_min":0,"x_max":0,"o":""},"ƞ":{"ha":1,"x_min":0,"x_max":0,"o":""},"ɲ":{"ha":54,"x_min":0,"x_max":0,"o":"m 126 736 l 126 -30 b 43 -103 126 -80 96 -103 b -24 -94 18 -103 -4 -99 l -42 -279 b 72 -288 -4 -286 33 -288 b 354 -30 243 -288 354 -202 l 354 0 l 355 0 l 355 422 z "},"ṉ":{"ha":0,"x_min":0,"x_max":0,"o":""},"ɳ":{"ha":43,"x_min":0,"x_max":0,"o":"m 777 -37 l 777 469 l 315 469 b 582 229 315 274 434 229 b 699 237 637 229 670 235 l 699 408 b 644 406 663 406 663 406 b 543 469 594 406 543 418 z "},"ñ":{"ha":0,"x_min":0,"x_max":0,"o":""},"ŋ":{"ha":0,"x_min":0,"x_max":0,"o":""},"o":{"ha":-17,"x_min":0,"x_max":0,"o":""},"ó":{"ha":0,"x_min":0,"x_max":0,"o":""},"ɵ":{"ha":0,"x_min":0,"x_max":0,"o":""},"ŏ":{"ha":0,"x_min":0,"x_max":0,"o":""},"ǒ":{"ha":0,"x_min":0,"x_max":0,"o":""},"ô":{"ha":0,"x_min":0,"x_max":0,"o":""},"ố":{"ha":0,"x_min":0,"x_max":0,"o":""},"ộ":{"ha":0,"x_min":0,"x_max":0,"o":""},"ồ":{"ha":-17,"x_min":0,"x_max":0,"o":""},"ổ":{"ha":-17,"x_min":0,"x_max":0,"o":""},"ỗ":{"ha":0,"x_min":0,"x_max":0,"o":""},"ȍ":{"ha":0,"x_min":0,"x_max":0,"o":""},"ö":{"ha":0,"x_min":0,"x_max":0,"o":""},"ọ":{"ha":0,"x_min":0,"x_max":0,"o":""},"ò":{"ha":0,"x_min":0,"x_max":0,"o":""},"ỏ":{"ha":0,"x_min":0,"x_max":0,"o":""},"ơ":{"ha":14,"x_min":0,"x_max":0,"o":""},"ớ":{"ha":0,"x_min":0,"x_max":0,"o":""},"ợ":{"ha":0,"x_min":0,"x_max":0,"o":""},"ờ":{"ha":0,"x_min":0,"x_max":0,"o":""},"ở":{"ha":0,"x_min":0,"x_max":0,"o":""},"ỡ":{"ha":0,"x_min":0,"x_max":0,"o":""},"ő":{"ha":0,"x_min":0,"x_max":0,"o":""},"ƣ":{"ha":192,"x_min":0,"x_max":0,"o":"m 395 164 b 273 349 289 164 271 252 l 273 365 b 391 571 273 479 288 571 b 480 530 434 571 461 556 l 480 194 b 395 164 461 174 433 164 z m 987 736 l 840 736 l 636 652 b 399 746 581 703 500 746 b 54 365 167 746 54 590 l 54 349 b 397 -14 53 142 168 -14 b 700 145 570 -14 651 60 l 700 473 l 766 496 l 766 -277 l 987 -277 z "},"ȏ":{"ha":-17,"x_min":0,"x_max":0,"o":""},"ō":{"ha":0,"x_min":0,"x_max":0,"o":""},"ṓ":{"ha":0,"x_min":0,"x_max":0,"o":""},"ṑ":{"ha":0,"x_min":0,"x_max":0,"o":""},"ɷ":{"ha":456,"x_min":0,"x_max":0,"o":"m 652 571 b 962 316 879 571 963 449 b 869 164 962 221 933 164 b 770 331 812 164 770 209 l 770 457 l 534 457 l 534 331 b 435 164 534 209 492 164 b 342 316 373 164 343 221 b 652 571 342 449 426 571 z m 652 746 b 123 316 331 746 123 587 b 416 -14 125 146 205 -14 b 652 123 526 -14 606 34 b 887 -14 699 34 778 -14 b 1180 316 1100 -14 1180 146 b 652 746 1181 587 974 746 z "},"ǫ":{"ha":-17,"x_min":0,"x_max":0,"o":""},"ǭ":{"ha":0,"x_min":0,"x_max":0,"o":""},"ɔ":{"ha":0,"x_min":0,"x_max":0,"o":""},"ø":{"ha":0,"x_min":0,"x_max":0,"o":""},"ǿ":{"ha":0,"x_min":0,"x_max":0,"o":""},"õ":{"ha":0,"x_min":0,"x_max":0,"o":""},"ṍ":{"ha":0,"x_min":0,"x_max":0,"o":""},"ṏ":{"ha":0,"x_min":0,"x_max":0,"o":""},"œ":{"ha":462,"x_min":0,"x_max":0,"o":"m 418 -14 b 677 79 526 -14 614 20 b 940 -14 741 19 830 -14 b 1284 222 1131 -14 1257 79 b 1138 22 1284 118 1198 84 b 878 115 1075 81 986 115 "},"p":{"ha":10,"x_min":0,"x_max":0,"o":""},"ṕ":{"ha":0,"x_min":0,"x_max":0,"o":""},"ṗ":{"ha":0,"x_min":0,"x_max":0,"o":""},"ɸ":{"ha":199,"x_min":0,"x_max":0,"o":"m 99 374 l 99 358 b 414 -5 98 117 235 19 l 414 -260 l 632 -260 l 632 -5 b 947 358 823 21 947 127 l 947 374 b 632 739 947 605 823 711 l 632 982 l 414 982 l 414 739 b 99 374 223 712 99 606 z m 320 358 l 320 374 b 414 553 320 478 359 529 l 414 180 b 320 358 359 202 320 252 z m 632 182 l 632 553 b 726 374 688 529 726 477 l 726 358 b 632 182 726 252 686 203 z "},"ƥ":{"ha":10,"x_min":0,"x_max":0,"o":"m 73 736 l 73 -277 l 302 -277 l 302 119 l 308 119 b 380 171 308 155 330 172 b 453 160 411 171 442 164 l 453 308 b 338 320 433 312 391 320 b 81 119 159 320 81 264 "},"þ":{"ha":0,"x_min":0,"x_max":0,"o":""},"q":{"ha":0,"x_min":0,"x_max":0,"o":""},"ʠ":{"ha":106,"x_min":0,"x_max":0,"o":"m 557 736 l 557 610 l 551 610 b 758 741 663 610 728 674 l 764 741 l 764 345 l 991 345 l 991 1358 b 1065 1409 991 1393 1013 1411 b 1137 1398 1095 1409 1126 1402 l 1137 1546 b 1023 1558 1116 1550 1076 1558 b 765 1358 844 1558 765 1503 z m 768 990 b 628 789 768 868 716 789 z "},"ɋ":{"ha":0,"x_min":0,"x_max":0,"o":"b 92 -39 90 0 40 -52 l 92 734 l -135 734 l -135 608 l -142 608 b 66 738 -29 608 36 671 l 71 738 l 71 582 b 338 342 71 387 191 342 "},"r":{"ha":-287,"x_min":0,"x_max":0,"o":""},"ŕ":{"ha":0,"x_min":0,"x_max":0,"o":""},"ř":{"ha":0,"x_min":0,"x_max":0,"o":""},"ŗ":{"ha":-287,"x_min":0,"x_max":0,"o":"m -47 -1048 l 111 -1048 l 222 -814 l 14 -814 z "},"ȑ":{"ha":0,"x_min":0,"x_max":0,"o":""},"ṙ":{"ha":0,"x_min":0,"x_max":0,"o":""},"ṛ":{"ha":0,"x_min":0,"x_max":0,"o":""},"ṝ":{"ha":0,"x_min":0,"x_max":0,"o":""},"ɾ":{"ha":-317,"x_min":0,"x_max":0,"o":"m 289 0 l 289 507 b 407 595 289 578 353 595 b 461 591 427 595 444 594 l 461 736 b 343 746 429 742 393 746 b 68 509 213 746 68 716 l 68 0 z "},"ɿ":{"ha":-315,"x_min":0,"x_max":0,"o":"m 464 -275 l 464 509 b 186 746 464 716 319 746 b 71 736 137 746 103 742 l 71 591 b 125 595 85 594 107 595 b 243 507 178 595 243 578 l 243 -275 z "},"ȓ":{"ha":0,"x_min":0,"x_max":0,"o":""},"ṟ":{"ha":0,"x_min":0,"x_max":0,"o":""},"ɹ":{"ha":-287,"x_min":0,"x_max":0,"o":"m 487 736 l 258 736 l 258 334 l 125 334 l 125 556 z "},"ɺ":{"ha":-321,"x_min":0,"x_max":0,"o":"m 46 208 l 45 -5 b 106 -14 60 -12 84 -14 b 271 90 178 -14 234 24 l 277 0 l 484 0 l 484 1013 l 264 1013 l 264 269 b 122 202 243 224 197 202 b 46 208 103 202 66 205 z "},"ɻ":{"ha":-208,"x_min":0,"x_max":0,"o":"m 541 -288 b 656 -278 587 -288 623 -285 l 656 -132 b 602 -136 637 -134 623 -136 b 487 -38 524 -136 487 -104 l 487 736 l 258 736 l 258 334 l 75 334 b 351 96 75 137 201 96 z "},"s":{"ha":-79,"x_min":0,"x_max":0,"o":""},"ś":{"ha":0,"x_min":0,"x_max":0,"o":""},"ṥ":{"ha":0,"x_min":0,"x_max":0,"o":""},"š":{"ha":0,"x_min":0,"x_max":0,"o":""},"ṧ":{"ha":0,"x_min":0,"x_max":0,"o":""},"ş":{"ha":174,"x_min":0,"x_max":0,"o":"b -304 301 -79 14 -214 119 b NaN NaN -317 281 -401 NaN l NaN NaN l NaN NaN "},"ŝ":{"ha":0,"x_min":0,"x_max":0,"o":""},"ș":{"ha":-79,"x_min":0,"x_max":0,"o":"m -274 -821 l -115 -821 l -4 -586 l -213 -586 z "},"ṡ":{"ha":0,"x_min":0,"x_max":0,"o":""},"ṣ":{"ha":0,"x_min":0,"x_max":0,"o":""},"ṩ":{"ha":0,"x_min":0,"x_max":0,"o":""},"ß":{"ha":56,"x_min":0,"x_max":0,"o":"m 75 720 l 75 0 l 302 0 l 302 682 b 434 807 302 760 354 807 b 560 693 514 807 562 760 b 457 583 559 632 519 583 l 408 583 l 408 410 l 481 410 b 632 296 574 410 632 366 b 498 183 633 227 579 183 l 404 183 l 404 0 l 540 0 b 864 270 730 0 863 94 b 656 518 864 408 785 510 l 656 529 b 795 726 743 552 795 628 b 427 996 795 906 625 996 b 75 720 212 996 75 892 z "},"ẛ":{"ha":-314,"x_min":0,"x_max":0,"o":"m 126 777 "},"ẜ":{"ha":-330,"x_min":0,"x_max":0,"o":"m 18 407 l 110 438 l 110 0 l 339 0 l 339 514 l 471 557 l 471 736 l 339 693 l 339 772 l 180 772 l 88 741 z "},"ʂ":{"ha":-79,"x_min":0,"x_max":0,"o":"m 41 224 l 41 -45 b 278 -279 41 -191 133 -279 b 369 -270 312 -279 338 -278 l 369 -126 b 313 -130 350 -129 332 -130 b 210 -31 251 -130 210 -99 l 210 16 b 389 -14 260 -3 320 -14 b 728 235 589 -14 727 84 b 510 434 727 342 656 406 l 370 461 b 286 525 307 473 285 496 b 387 589 285 563 330 589 b 498 509 448 589 491 557 z "},"ſ":{"ha":-356,"x_min":0,"x_max":0,"o":"m 294 0 l 294 770 b 389 850 294 825 328 850 b 457 845 420 850 435 849 l 472 1013 b 361 1027 434 1021 396 1027 b 73 770 179 1027 73 937 l 73 0 z "},"t":{"ha":-318,"x_min":0,"x_max":0,"o":""},"ŧ":{"ha":-318,"x_min":0,"x_max":0,"o":"m 23 361 l 23 460 l -133 460 l -133 590 l 1 590 l 1 689 l -133 689 l -133 798 l 1 798 l 1 966 l -133 966 l -133 1142 l -361 1142 l -361 966 l -460 966 l -460 798 l -361 798 l -361 689 l -460 689 z "},"ť":{"ha":0,"x_min":0,"x_max":0,"o":""},"ʨ":{"ha":0,"x_min":0,"x_max":0,"o":"l 368 0 l 368 484 l 1105 484 l 1105 126 b 1341 -92 1103 -16 1182 -92 b 1579 -24 1438 -92 1515 -63 b 1817 -98 1640 -71 1720 -98 b 2148 152 2024 -98 2149 22 b 1931 321 2148 256 2069 321 b 1678 248 1849 321 1765 298 b 1677 285 1678 260 1677 272 b 1570 248 1610 285 1622 224 b 1480 217 1537 227 1508 217 b 1422 278 1444 217 1422 236 l 1422 631 l 1556 631 m 1841 252 b 1982 302 1890 283 1941 302 b 2028 271 2015 302 2028 289 b 1944 227 2028 243 2000 227 b 1841 252 1905 227 1870 235 z "},"ţ":{"ha":0,"x_min":0,"x_max":0,"o":"l -318 0 l -318 484 l 418 484 l 418 121 b 610 -91 417 -7 488 -74 l 589 -179 l 619 NaN b 706 NaN 659 NaN 688 NaN l 706 NaN l 840 NaN "},"ṱ":{"ha":0,"x_min":0,"x_max":0,"o":""},"ț":{"ha":0,"x_min":0,"x_max":0,"o":""},"ȶ":{"ha":-119,"x_min":0,"x_max":0,"o":"m 183 913 l 183 736 l 85 736 l 85 568 l 183 568 l 183 264 b 23 126 130 227 76 182 l 118 4 b 217 98 152 40 184 71 b 453 -15 267 12 364 -15 b 694 191 637 -15 694 100 b 488 380 694 298 613 380 b 412 372 465 380 439 377 l 412 568 l 545 568 l 545 736 l 412 736 l 412 913 z m 412 193 l 412 217 b 467 228 433 224 452 228 b 517 184 500 228 517 209 b 471 136 517 153 496 136 b 412 193 437 136 412 159 z "},"ẗ":{"ha":0,"x_min":0,"x_max":0,"o":""},"ṫ":{"ha":0,"x_min":0,"x_max":0,"o":""},"ṭ":{"ha":-318,"x_min":0,"x_max":0,"o":"m -179 -853 z "},"ʧ":{"ha":193,"x_min":0,"x_max":0,"o":"m 179 892 l 179 713 l 80 713 l 80 556 l 179 556 l 179 235 b 407 -14 179 87 224 -14 b 605 18 483 -14 560 4 l 605 -20 b 500 -102 605 -71 568 -102 b 442 -95 473 -102 457 -99 l 442 -262 b 547 -277 471 -270 507 -277 b 827 -20 716 -277 827 -186 l 827 772 b 935 852 827 825 868 852 b 991 846 962 852 975 850 l 993 1013 b 911 NaN 1000 1013 911 846 l 911 NaN l 705 NaN l 705 NaN z m 705 NaN l 705 NaN l 911 NaN l 911 NaN b 784 NaN 884 NaN 829 NaN b 705 NaN 727 NaN 704 NaN z "},"ƭ":{"ha":-185,"x_min":0,"x_max":0,"o":"m 529 713 l 404 713 l 404 785 b 522 876 404 860 472 876 b 575 871 544 876 564 872 l 575 1016 b 461 1027 544 1023 513 1027 b 186 785 312 1027 186 986 l 186 713 l 87 713 l 87 556 l 186 556 l 186 206 b 252 191 270 50 206 191 b 194 190 236 191 220 190 b 118 259 141 190 118 205 l 118 581 l 243 581 z "},"ṯ":{"ha":0,"x_min":0,"x_max":0,"o":""},"ƽ":{"ha":73,"x_min":0,"x_max":0,"o":"m 384 302 b 486 324 400 315 433 324 b 597 247 555 324 597 293 b 490 165 597 197 563 165 b 370 225 420 165 376 183 l 152 216 b 490 -11 152 56 313 -11 b 817 229 720 -11 817 91 b 551 465 817 378 718 465 b 400 435 484 464 430 450 l 418 544 l 762 544 l 762 713 l 103 713 l 103 544 l 217 544 l 183 311 z "},"ƅ":{"ha":220,"x_min":0,"x_max":0,"o":"m 283 0 l -187 0 l -187 -189 l 56 -189 "},"ƨ":{"ha":-79,"x_min":0,"x_max":0,"o":"m 57 509 l 270 509 b 381 589 277 557 320 589 b 481 525 438 589 483 563 b 397 461 483 496 461 473 l 258 434 b 39 235 111 406 41 342 b 378 -14 41 84 179 -14 b 727 227 589 -14 712 80 l 499 227 b 377 145 491 174 445 145 b 271 210 315 145 273 170 b 365 277 273 243 301 263 l 491 300 b 708 513 636 327 709 400 b 385 746 709 659 585 746 b 57 509 187 746 66 655 z "},"ƫ":{"ha":0,"x_min":0,"x_max":0,"o":"l -310 0 l -310 484 l 427 484 l 427 121 b 656 -94 425 -20 511 -87 l 656 -121 b 539 -208 656 -193 588 -208 b 484 -203 516 -208 500 -205 l 484 -349 b 574 -359 515 -355 542 -359 b 808 -121 718 -359 808 -273 l 808 103 l 721 85 l 717 85 b 654 146 677 87 654 100 l 654 484 l 789 484 "},"ʈ":{"ha":0,"x_min":0,"x_max":0,"o":"l -315 0 l -315 484 l 421 484 l 421 -148 b 679 -362 420 -297 517 -370 b 797 -342 734 -359 775 -349 l 762 -176 b 710 -183 752 -178 729 -183 b 649 -122 672 -183 649 -168 l 649 484 l 783 484 "},"ʦ":{"ha":319,"x_min":0,"x_max":0,"o":"m 163 892 l 163 736 l 65 736 l 65 579 l 163 579 l 163 247 b 389 0 163 60 258 0 l 785 0 b 1105 210 979 0 1105 80 b 837 433 1105 336 1012 401 b 693 524 753 448 693 463 b 785 598 693 572 732 598 b 886 494 850 598 884 560 l 1105 494 b 785 746 1104 650 981 746 b 692 736 751 746 720 743 l 382 736 l 382 892 z m 892 220 b 791 178 892 190 857 178 l 460 178 b 382 247 399 178 382 199 l 382 579 l 494 579 b 483 513 486 558 483 536 b 749 279 483 387 579 311 b 892 220 842 262 892 251 z "},"ʇ":{"ha":-318,"x_min":0,"x_max":0,"o":"m 45 0 l 179 0 l 179 -176 l 407 -176 l 407 0 l 506 0 l 506 168 l 407 168 l 407 532 b 149 747 408 681 311 747 b 35 739 95 747 57 742 l 35 564 b 117 567 61 566 98 568 b 179 506 156 566 179 552 l 179 168 l 45 168 z "},"u":{"ha":3,"x_min":0,"x_max":0,"o":""},"ú":{"ha":0,"x_min":0,"x_max":0,"o":""},"ʉ":{"ha":75,"x_min":0,"x_max":0,"o":"m 924 486 l 812 486 l 812 736 l 585 736 l 585 486 l 339 486 l 339 736 l 110 736 l 110 486 l -3 486 l -3 359 l 110 359 l 110 267 b 362 -9 110 99 212 -9 b 587 136 473 -9 555 47 l 595 136 l 595 0 l 812 0 l 812 359 l 924 359 z m 585 317 l 585 366 l 830 366 z "},"ŭ":{"ha":0,"x_min":0,"x_max":0,"o":""},"ǔ":{"ha":0,"x_min":0,"x_max":0,"o":""},"û":{"ha":0,"x_min":0,"x_max":0,"o":""},"ṷ":{"ha":3,"x_min":0,"x_max":0,"o":"m 20 -1019 l 213 -1019 l 213 -1012 l 8 -798 l -157 -798 l -362 -1012 l -362 -1019 l -170 -1019 l -75 -906 z "},"ȕ":{"ha":0,"x_min":0,"x_max":0,"o":""},"ü":{"ha":0,"x_min":0,"x_max":0,"o":""},"ǘ":{"ha":0,"x_min":0,"x_max":0,"o":""},"ṳ":{"ha":3,"x_min":0,"x_max":0,"o":"m 359 0 z "},"ǚ":{"ha":0,"x_min":0,"x_max":0,"o":""},"ǜ":{"ha":0,"x_min":0,"x_max":0,"o":""},"ǖ":{"ha":0,"x_min":0,"x_max":0,"o":""},"ụ":{"ha":0,"x_min":0,"x_max":0,"o":""},"ù":{"ha":0,"x_min":0,"x_max":0,"o":""},"ủ":{"ha":0,"x_min":0,"x_max":0,"o":""},"ư":{"ha":136,"x_min":0,"x_max":0,"o":""},"ứ":{"ha":0,"x_min":0,"x_max":0,"o":""},"ự":{"ha":136,"x_min":0,"x_max":0,"o":"m -526 -1065 z "},"ừ":{"ha":0,"x_min":0,"x_max":0,"o":""},"ử":{"ha":136,"x_min":0,"x_max":0,"o":"m -492 64 l -492 104 b -389 197 -441 113 -389 141 b -667 328 -389 279 -486 328 l -673 231 b -579 187 -618 231 -578 222 b -673 145 -578 164 -605 148 l -659 64 z "},"ữ":{"ha":0,"x_min":0,"x_max":0,"o":""},"ű":{"ha":0,"x_min":0,"x_max":0,"o":""},"ȗ":{"ha":0,"x_min":0,"x_max":0,"o":""},"ū":{"ha":0,"x_min":0,"x_max":0,"o":""},"ṻ":{"ha":0,"x_min":0,"x_max":0,"o":""},"ǹ":{"ha":0,"x_min":0,"x_max":0,"o":""},"ȟ":{"ha":0,"x_min":0,"x_max":0,"o":""},"ȡ":{"ha":117,"x_min":0,"x_max":0,"o":"m 346 -11 b 553 119 458 -11 524 53 l 553 -7 l 378 -141 l 472 -277 l 598 -180 b 842 -277 641 -240 718 -277 b 1097 -106 1012 -277 1097 -212 b 831 83 1097 5 1002 83 b 787 81 816 83 801 82 l 787 982 l 559 982 l 559 610 l 553 610 z m 914 362 l 914 385 b 963 396 932 392 949 396 b 1036 342 1015 397 1036 372 b 978 294 1036 313 1012 294 b 914 362 944 294 914 315 z "},"ȣ":{"ha":66,"x_min":0,"x_max":0,"o":"m 450 449 l 464 449 b 616 307 564 449 616 392 b 464 164 616 221 564 164 l 450 164 b 297 307 353 164 297 221 b 450 449 297 392 353 449 z m 464 624 l 449 624 b 297 750 349 624 297 659 b 369 857 297 814 328 845 l 369 1027 b 76 754 194 1027 76 933 b 183 534 76 650 116 579 b 76 307 115 486 76 412 b 450 -14 76 99 232 -14 l 464 -14 b 837 307 681 -14 837 99 b 731 534 837 412 798 486 b 837 754 798 579 837 650 b 544 1027 837 936 718 1027 l 544 857 b 618 750 585 845 618 814 b 464 624 618 661 566 624 z "},"ȧ":{"ha":0,"x_min":0,"x_max":0,"o":""},"ȩ":{"ha":0,"x_min":0,"x_max":0,"o":""},"ȫ":{"ha":0,"x_min":0,"x_max":0,"o":""},"ȭ":{"ha":0,"x_min":0,"x_max":0,"o":""},"ȯ":{"ha":0,"x_min":0,"x_max":0,"o":""},"ȱ":{"ha":0,"x_min":0,"x_max":0,"o":""},"ȳ":{"ha":0,"x_min":0,"x_max":0,"o":""},"ȸ":{"ha":452,"x_min":0,"x_max":0,"o":"m 1219 358 l 1219 372 b 937 746 1219 597 1112 746 b 760 670 861 746 803 718 l 760 982 l 538 982 l 538 670 b 523 661 538 718 495 661 b 530 756 446 661 530 722 b NaN NaN 530 812 576 NaN l NaN NaN z "},"ȹ":{"ha":452,"x_min":0,"x_max":0,"o":"m 538 -274 l 538 -53 l 876 -53 l 876 -39 b 594 335 876 186 769 335 b 410 251 514 335 454 304 l 401 326 l 224 326 l 209 244 b 197 239 209 301 163 239 b 191 326 113 239 191 298 b NaN NaN 191 374 234 NaN z "},"ȼ":{"ha":-48,"x_min":0,"x_max":0,"o":"m 674 982 l 549 982 l 471 743 b 456 724 472 743 454 724 b 154 793 437 724 278 793 b 239 814 276 793 217 814 b NaN NaN 238 814 261 NaN b NaN NaN NaN NaN NaN NaN l NaN NaN b NaN NaN NaN NaN NaN NaN l NaN NaN l NaN NaN b NaN NaN NaN NaN NaN NaN l NaN NaN b NaN NaN NaN NaN NaN NaN z m NaN NaN b NaN NaN NaN NaN NaN NaN l NaN NaN b NaN NaN NaN NaN NaN NaN z "},"ȿ":{"ha":0,"x_min":0,"x_max":0,"o":"b -168 52 -75 5 -125 22 b NaN NaN -204 157 -386 NaN l NaN NaN b NaN NaN NaN NaN NaN NaN b NaN NaN NaN NaN NaN NaN l NaN NaN b NaN NaN NaN NaN NaN NaN b NaN NaN NaN NaN NaN NaN b NaN NaN NaN NaN NaN NaN b NaN NaN NaN NaN NaN NaN b NaN NaN NaN NaN NaN NaN l NaN NaN b NaN NaN NaN NaN NaN NaN b NaN NaN NaN NaN NaN NaN b NaN NaN NaN NaN NaN NaN "},"ɀ":{"ha":40,"x_min":0,"x_max":0,"o":"m 368 176 l 368 167 l 601 167 b 1009 -110 784 167 788 -110 b 1215 -18 1100 -110 1166 -62 l 1142 130 b 1029 76 1119 113 1073 76 b 659 343 903 76 894 343 z "},"ɂ":{"ha":-60,"x_min":0,"x_max":0,"o":"m 81 452 l 302 452 b 395 571 302 532 330 571 b 484 460 458 571 484 530 b 363 331 484 373 446 331 l 283 331 l 283 0 l 505 0 l 505 218 b 705 464 635 241 705 330 b 393 746 705 640 585 746 b 81 452 206 746 80 631 z "},"ɇ":{"ha":-39,"x_min":0,"x_max":0,"o":"m 674 982 l 549 982 l 471 742 b 408 746 450 745 430 746 b -52 297 266 525 113 297 b -159 419 17 297 -103 419 b -91 418 -137 419 -115 418 b 254 654 100 418 227 510 l 41 654 b -87 583 22 610 -24 583 l -106 585 l -53 743 l 256 743 l 256 802 b 77 1139 256 968 186 1083 z m -237 739 l -237 743 l -178 743 l -210 643 b -237 739 -228 668 -237 701 z m -237 878 b -94 1012 -234 954 -175 1012 l -90 1012 l -133 878 z m -9 878 l 18 959 b 43 878 33 937 43 909 z "},"ɉ":{"ha":0,"x_min":0,"x_max":0,"o":""},"ɍ":{"ha":-287,"x_min":0,"x_max":0,"o":"m 73 0 l 302 0 l 302 293 l 434 293 l 434 422 l 304 422 b 450 551 312 499 371 551 b 541 540 479 551 519 547 l 227 540 z "},"ɏ":{"ha":-40,"x_min":0,"x_max":0,"o":"m 789 490 l 705 490 l 791 736 l 549 736 l 484 490 l 327 490 l 262 736 l 23 736 l 109 490 l 16 490 l 16 382 l 145 382 b -123 639 285 382 -123 555 b NaN 764 -123 723 -3 764 l NaN 1218 l NaN 1218 z m NaN 1218 l NaN 1218 l NaN 1043 l NaN 1043 z "},"ʙ":{"ha":0,"x_min":0,"x_max":0,"o":""},"ʜ":{"ha":0,"x_min":0,"x_max":0,"o":"l -50 0 l -50 214 l 687 214 l 687 0 l 409 0 l 409 -225 "},"ʫ":{"ha":246,"x_min":0,"x_max":0,"o":"m 1017 176 l 678 176 l 1009 610 l 1009 736 l 302 736 l 302 982 l 73 982 l 73 0 l 302 0 l 302 560 l 723 560 l 392 126 l 392 0 l 1017 0 z "},"ʬ":{"ha":-55,"x_min":0,"x_max":0,"o":"m 240 962 l 94 962 l 199 575 l 319 575 l 396 777 l 473 575 l 593 575 l 699 962 l 518 NaN z m 479 NaN l 332 NaN l 438 NaN l 557 NaN l 636 NaN l 712 NaN l 831 NaN l 937 NaN l 758 NaN z "},"ẝ":{"ha":-323,"x_min":0,"x_max":0,"o":"m 343 0 l 343 667 l 488 667 l 488 798 l 347 798 b 452 852 359 833 396 852 b 509 846 475 852 494 849 l 509 1013 b 403 1027 480 1020 442 1027 b 123 798 241 1027 134 947 l 15 798 l 15 667 l 122 667 l 122 0 z "},"ẟ":{"ha":71,"x_min":0,"x_max":0,"o":"m 245 821 b 372 643 247 749 289 690 l 373 640 b 163 349 252 609 161 488 l 163 336 b 522 -14 161 129 304 -14 b 879 350 738 -14 879 136 l 879 363 b 545 749 879 548 770 674 b 453 817 476 772 453 793 b 555 863 453 848 484 863 b 712 836 614 863 674 850 l 712 998 b 534 1027 648 1017 595 1027 b 245 821 358 1027 245 945 z m 381 365 l 381 376 b 522 567 381 486 433 567 b 661 376 602 552 659 467 l 661 365 b 522 161 659 244 610 161 b 381 365 431 161 381 244 z "},"ỻ":{"ha":195,"x_min":0,"x_max":0,"o":"m 963 921 l 791 921 l 791 982 l 563 982 l 563 921 l 449 921 l 449 982 l 220 982 l 220 921 l 79 921 l 79 793 l 220 793 l 220 0 l 449 0 l 449 793 l 563 793 l 563 0 l 791 0 l 791 793 l 963 793 z "},"ỽ":{"ha":71,"x_min":0,"x_max":0,"o":"m 585 639 l 480 484 b 593 297 551 441 593 382 b 464 164 593 213 541 164 b 330 340 370 164 330 229 l 330 407 b 682 876 330 671 511 812 l 613 1044 b 107 418 328 977 107 743 l 107 374 b 471 -14 107 126 259 -14 b 814 312 671 -14 814 103 b 585 639 814 460 708 579 z "},"ỿ":{"ha":60,"x_min":0,"x_max":0,"o":"m 391 736 l 152 736 l 321 278 l 312 278 b 23 -7 152 278 23 148 b 308 -288 23 -160 152 -288 b 612 -30 454 -288 540 -224 l 891 736 l 655 736 l 517 292 l 511 319 z m 315 -103 b 214 -7 259 -103 213 -71 b 315 95 213 60 258 95 b 410 -7 368 95 408 60 b 315 -103 408 -71 366 -103 z "},"ↄ":{"ha":0,"x_min":0,"x_max":0,"o":""},"ų":{"ha":3,"x_min":0,"x_max":0,"o":"m 548 317 l 446 317 l 446 273 l 402 273 l 402 258 l 331 258 l 331 274 l 267 274 l 267 1010 l 39 1010 z "},"ʊ":{"ha":68,"x_min":0,"x_max":0,"o":"m 458 161 b 297 292 334 161 297 228 b 368 597 297 392 368 477 b 98 746 368 699 298 746 l 98 581 b 141 543 125 581 141 566 b 79 232 141 463 79 384 b 458 -14 79 134 152 -14 b 838 232 764 -14 838 134 b 774 543 838 384 774 463 b 818 581 774 566 789 581 l 818 746 b 549 597 621 746 549 699 b 617 292 549 477 617 392 b 458 161 617 228 583 161 z "},"ů":{"ha":0,"x_min":0,"x_max":0,"o":""},"ũ":{"ha":0,"x_min":0,"x_max":0,"o":""},"ṹ":{"ha":0,"x_min":0,"x_max":0,"o":""},"ṵ":{"ha":0,"x_min":0,"x_max":0,"o":""},"v":{"ha":-50,"x_min":0,"x_max":0,"o":""},"ṿ":{"ha":0,"x_min":0,"x_max":0,"o":""},"ʋ":{"ha":-62,"x_min":0,"x_max":0,"o":"m 392 -14 b 723 277 587 -14 723 71 l 723 518 b 525 746 723 662 663 746 b 366 718 479 746 427 736 l 388 564 b 422 567 400 567 411 567 b 503 473 475 567 503 534 l 503 277 b 392 163 503 199 464 163 b 282 277 317 163 282 199 l 282 736 l 61 736 l 61 277 b 392 -14 61 71 195 -14 z "},"ṽ":{"ha":0,"x_min":0,"x_max":0,"o":""},"ʌ":{"ha":-50,"x_min":0,"x_max":0,"o":"m 15 0 l 256 0 l 395 511 l 403 511 l 543 0 l 783 0 l 530 736 l 269 736 z "},"w":{"ha":310,"x_min":0,"x_max":0,"o":""},"ẃ":{"ha":0,"x_min":0,"x_max":0,"o":""},"ŵ":{"ha":0,"x_min":0,"x_max":0,"o":""},"ẅ":{"ha":0,"x_min":0,"x_max":0,"o":""},"ẇ":{"ha":0,"x_min":0,"x_max":0,"o":""},"ẉ":{"ha":0,"x_min":0,"x_max":0,"o":""},"ẁ":{"ha":0,"x_min":0,"x_max":0,"o":""},"ẘ":{"ha":0,"x_min":0,"x_max":0,"o":""},"ʍ":{"ha":310,"x_min":0,"x_max":0,"o":"m 944 736 l 700 736 l 583 300 l 574 300 l 457 736 l 213 736 l 19 0 l 250 0 l 349 473 l 354 473 l 467 0 l 690 0 l 800 476 l 806 476 l 909 0 l 1138 0 z "},"ƿ":{"ha":74,"x_min":0,"x_max":0,"o":"m 119 -274 l 340 -274 l 340 -117 b 802 350 636 -37 802 91 l 802 387 b 513 746 802 601 699 746 b 334 666 434 746 376 716 l 327 736 l 119 736 z m 340 54 l 340 511 b 456 571 360 551 397 571 b 581 387 551 571 581 487 l 581 350 b 340 54 581 193 486 93 z "},"x":{"ha":-64,"x_min":0,"x_max":0,"o":""},"ẍ":{"ha":0,"x_min":0,"x_max":0,"o":""},"ẋ":{"ha":0,"x_min":0,"x_max":0,"o":""},"y":{"ha":-50,"x_min":0,"x_max":0,"o":""},"ý":{"ha":0,"x_min":0,"x_max":0,"o":""},"ŷ":{"ha":0,"x_min":0,"x_max":0,"o":""},"ÿ":{"ha":0,"x_min":0,"x_max":0,"o":""},"ẏ":{"ha":0,"x_min":0,"x_max":0,"o":""},"ỵ":{"ha":0,"x_min":0,"x_max":0,"o":""},"ỳ":{"ha":0,"x_min":0,"x_max":0,"o":""},"ƴ":{"ha":10,"x_min":0,"x_max":0,"o":"m 213 -277 b 510 -72 378 -277 472 -193 l 746 652 b 799 720 761 694 774 715 b 853 715 812 723 831 722 l 892 891 b 764 914 856 905 810 914 b 540 701 643 914 575 830 l 401 208 l 392 183 b 248 146 369 126 317 125 l 198 -20 b 338 -43 232 -34 283 -43 z "},"ỷ":{"ha":0,"x_min":0,"x_max":0,"o":""},"ẙ":{"ha":0,"x_min":0,"x_max":0,"o":""},"ỹ":{"ha":0,"x_min":0,"x_max":0,"o":""},"ʎ":{"ha":-50,"x_min":0,"x_max":0,"o":"m 591 1013 b 294 808 419 1013 335 929 l 15 0 l 256 0 l 396 529 l 404 529 l 544 0 l 783 0 l 521 762 l 529 785 b 616 838 549 834 578 838 b 705 836 643 838 675 838 l 705 1009 b 591 1013 675 1012 635 1013 z "},"z":{"ha":-68,"x_min":0,"x_max":0,"o":""},"ź":{"ha":0,"x_min":0,"x_max":0,"o":""},"ƶ":{"ha":-68,"x_min":0,"x_max":0,"o":"m 75 0 l 174 126 l 336 126 l 336 255 l 274 255 l 395 410 l 395 553 l -212 553 l -212 376 l 122 376 l 122 370 l 28 255 l -157 255 l -157 126 l -77 126 l -222 -52 z "},"ž":{"ha":0,"x_min":0,"x_max":0,"o":""},"ẑ":{"ha":0,"x_min":0,"x_max":0,"o":""},"ʑ":{"ha":142,"x_min":0,"x_max":0,"o":"m 76 0 l 334 0 b 353 233 267 0 351 122 b 161 419 351 345 263 419 b -153 176 56 419 -29 342 z m 437 227 b 409 267 335 227 388 267 b NaN NaN 428 267 454 NaN b NaN NaN NaN NaN NaN NaN b NaN NaN NaN NaN NaN NaN z "},"ż":{"ha":0,"x_min":0,"x_max":0,"o":""},"ẓ":{"ha":0,"x_min":0,"x_max":0,"o":""},"ȥ":{"ha":-75,"x_min":0,"x_max":0,"o":"m 544 -133 l 544 -186 l 732 -186 l 732 -92 b 442 176 732 76 629 176 l 442 91 l 810 91 b 911 -42 897 91 911 18 z "},"ẕ":{"ha":0,"x_min":0,"x_max":0,"o":""},"ʐ":{"ha":25,"x_min":0,"x_max":0,"o":"m 553 0 l 553 -50 b 787 -288 553 -201 640 -288 b 875 -278 818 -288 842 -286 l 875 -133 b 819 -137 854 -134 841 -137 b 704 -50 768 -137 704 -119 l 704 179 l 372 179 l 372 183 l 372 52 z "},"ａ":{"ha":0,"x_min":0,"x_max":0,"o":""},"ｂ":{"ha":455,"x_min":0,"x_max":0,"o":"m 297 0 "},"ｃ":{"ha":455,"x_min":0,"x_max":0,"o":""},"ｄ":{"ha":455,"x_min":0,"x_max":0,"o":"m 566 -11 z "},"ｅ":{"ha":455,"x_min":0,"x_max":0,"o":"m 663 -14 b 1008 222 854 -14 981 79 b 1379 -156 1008 -12 1149 -156 "},"ｆ":{"ha":455,"x_min":0,"x_max":0,"o":"m 876 736 l 736 736 l 736 772 b 827 850 736 827 769 850 b 890 846 838 850 859 849 l 890 1016 b 758 1028 850 1024 811 1028 b 507 777 605 1028 507 944 l 507 736 l 407 736 l 407 568 l 507 568 l 507 0 l 736 0 l 736 568 l 876 568 z "},"ｇ":{"ha":0,"x_min":0,"x_max":0,"o":""},"ｈ":{"ha":455,"x_min":0,"x_max":0,"o":"m 529 422 l 103 422 l 103 651 l 572 651 l 572 1031 l 351 1031 l 351 49 l 581 49 z "},"ｉ":{"ha":455,"x_min":0,"x_max":0,"o":"m 537 0 "},"ｊ":{"ha":0,"x_min":0,"x_max":0,"o":""},"ｋ":{"ha":455,"x_min":0,"x_max":0,"o":"m 328 0 z "},"ｌ":{"ha":0,"x_min":0,"x_max":0,"o":""},"ｍ":{"ha":455,"x_min":0,"x_max":0,"o":"m 103 0 z "},"ｎ":{"ha":455,"x_min":0,"x_max":0,"o":"m 530 422 l 313 422 l 313 -315 l 543 -315 z "},"ｏ":{"ha":455,"x_min":0,"x_max":0,"o":""},"ｐ":{"ha":455,"x_min":0,"x_max":0,"o":"m 296 -277 l 525 -277 l 525 119 l 530 119 l 304 119 "},"ｑ":{"ha":0,"x_min":0,"x_max":0,"o":""},"ｒ":{"ha":455,"x_min":0,"x_max":0,"o":"m 445 0 "},"ɼ":{"ha":0,"x_min":0,"x_max":0,"o":"b 137 -210 0 -268 61 -210 b 209 -227 165 -210 189 -218 l 277 -39 l 293 -39 l 293 -67 l 258 -67 l 258 -56 l 218 -56 "},"ɽ":{"ha":-268,"x_min":0,"x_max":0,"o":"m 343 -277 b 434 -161 343 -222 376 -161 b 538 -146 510 -161 538 -138 b NaN NaN 538 -156 559 NaN l NaN NaN l NaN NaN l NaN NaN l NaN NaN l NaN NaN l NaN NaN l NaN NaN b NaN NaN NaN NaN NaN NaN z "},"ｓ":{"ha":455,"x_min":0,"x_max":0,"o":""},"ｔ":{"ha":0,"x_min":0,"x_max":0,"o":""},"ｕ":{"ha":455,"x_min":0,"x_max":0,"o":"m 774 317 l 1511 317 l 1511 90 z "},"ｖ":{"ha":0,"x_min":0,"x_max":0,"o":""},"ｗ":{"ha":455,"x_min":0,"x_max":0,"o":""},"ｘ":{"ha":0,"x_min":0,"x_max":0,"o":""},"ｙ":{"ha":0,"x_min":0,"x_max":0,"o":""},"ｚ":{"ha":455,"x_min":0,"x_max":0,"o":"m 336 0 z "},"ₔ":{"ha":-186,"x_min":0,"x_max":0,"o":"m 307 260 b 91 168 201 260 126 213 l 168 79 b 297 133 201 118 252 133 b 430 38 363 133 416 96 l 77 38 l 77 -28 b 326 -288 77 -187 170 -288 b 586 -15 492 -288 586 -168 l 586 4 b 307 260 586 141 484 260 z m 231 -77 l 231 -65 l 430 -65 b 327 -160 418 -121 385 -160 b 231 -77 270 -160 231 -130 z "},"ₐ":{"ha":0,"x_min":0,"x_max":0,"o":""},"ₑ":{"ha":0,"x_min":0,"x_max":0,"o":""},"ᵢ":{"ha":-600,"x_min":0,"x_max":0,"o":"m 45 -170 l 202 -170 l 202 321 l 45 321 b 77 245 123 321 77 283 b -4 285 77 201 33 240 z "},"ⱼ":{"ha":0,"x_min":0,"x_max":0,"o":""},"ₒ":{"ha":0,"x_min":0,"x_max":0,"o":""},"ᵣ":{"ha":-458,"x_min":0,"x_max":0,"o":"m 45 -170 l 202 -170 l 202 96 b 301 194 202 157 244 194 b 362 186 319 194 347 191 l 362 323 b 317 328 349 327 332 328 b 202 236 263 328 220 301 l 197 236 l 197 321 l 45 321 z "},"ᵤ":{"ha":0,"x_min":0,"x_max":0,"o":""},"ᵥ":{"ha":0,"x_min":0,"x_max":0,"o":""},"ₓ":{"ha":0,"x_min":0,"x_max":0,"o":""},"ǃ":{"ha":-398,"x_min":0,"x_max":0,"o":"m 342 982 l 107 982 l 127 300 l 321 300 "},"ʔ":{"ha":-63,"x_min":0,"x_max":0,"o":"m 380 374 z "},"ǀ":{"ha":-436,"x_min":0,"x_max":0,"o":"m 267 960 l 144 960 l 144 0 l 267 0 z "},"ǁ":{"ha":-309,"x_min":0,"x_max":0,"o":"m 250 960 l 126 960 l 126 0 l 250 0 z m 426 960 l 302 960 l 302 0 l 426 0 z "},"ǂ":{"ha":-188,"x_min":0,"x_max":0,"o":"m 391 960 l 267 960 l 267 705 l 83 705 l 83 576 l 267 576 l 267 395 l 84 395 l 84 266 l 267 266 l 267 0 l 391 0 l 391 266 l 578 266 l 578 395 l 391 395 l 391 576 l 576 576 l 576 705 l 391 705 z "},"ƻ":{"ha":0,"x_min":0,"x_max":0,"o":"l 12 72 b 181 236 85 136 140 189 l 323 236 l 323 365 l 262 365 b 314 429 275 398 280 430 b 233 NaN 284 421 258 407 l 29 NaN l 29 NaN l 113 NaN l -234 NaN "},"ꟿ":{"ha":832,"x_min":0,"x_max":0,"o":"m 403 962 l 174 962 l 79 0 l 307 0 l 369 616 l 680 0 l 681 1 l 906 0 l 968 620 l 1280 0 l 1506 0 l 1602 962 l 1375 962 l 1314 346 l 1002 962 l 776 962 l 715 346 z "},"ʶ":{"ha":-189,"x_min":0,"x_max":0,"o":"m 319 431 b 562 614 468 431 562 511 b 468 770 562 675 528 733 l 583 962 l 411 962 l 320 808 l 228 808 l 228 962 l 75 962 l 75 431 z m 228 562 l 228 680 l 331 680 b 410 621 382 680 410 654 b 331 562 410 585 382 562 z "},"ʵ":{"ha":-322,"x_min":0,"x_max":0,"o":"m 49 589 l 49 430 b 84 426 56 427 68 426 b 210 499 136 426 180 453 l 210 412 b 381 225 210 269 266 225 b 477 233 414 225 467 231 l 477 366 b 438 359 464 362 450 359 b 362 430 385 359 363 393 l 362 962 l 210 962 l 210 623 b 114 579 192 593 158 579 b 49 589 91 579 66 582 z "},"ʱ":{"ha":-185,"x_min":0,"x_max":0,"o":"m 245 987 b 319 1058 244 1027 264 1058 b 361 1053 332 1058 345 1057 l 361 1187 b 262 1192 349 1188 288 1192 b 92 1005 149 1192 92 1152 l 92 431 l 245 431 l 245 792 b 334 837 262 819 290 837 b 418 712 393 837 418 798 l 418 431 l 572 431 l 572 765 b 389 967 572 907 502 967 b 245 894 327 967 279 940 z "},"ʴ":{"ha":-448,"x_min":0,"x_max":0,"o":"m 42 589 l 42 430 b 79 426 47 427 61 426 b 212 510 134 426 181 457 l 233 431 l 357 431 l 357 962 l 202 962 l 202 620 b 107 579 184 592 151 579 b 42 589 77 579 57 583 z "},"ʰ":{"ha":0,"x_min":0,"x_max":0,"o":""},"ⁱ":{"ha":0,"x_min":0,"x_max":0,"o":"l -600 0 l -600 491 l -758 491 b -725 415 -679 491 -725 453 b -806 454 -725 370 -770 410 "},"ʲ":{"ha":0,"x_min":0,"x_max":0,"o":""},"ˡ":{"ha":-600,"x_min":0,"x_max":0,"o":"m 202 1145 l 45 1145 l 45 491 l 202 491 z "},"ⁿ":{"ha":0,"x_min":0,"x_max":0,"o":""},"ʳ":{"ha":0,"x_min":0,"x_max":0,"o":"l -458 0 l -458 266 b -359 363 -458 327 -416 363 b -298 355 -341 363 -313 361 l -298 492 b -342 498 -311 496 -328 498 b -458 406 -397 498 -440 471 l -463 406 l -463 491 l -615 491 "},"ˢ":{"ha":-336,"x_min":0,"x_max":0,"o":""},"ʷ":{"ha":0,"x_min":0,"x_max":0,"o":""},"ˣ":{"ha":0,"x_min":0,"x_max":0,"o":""},"ʸ":{"ha":0,"x_min":0,"x_max":0,"o":""},"ª":{"ha":0,"x_min":0,"x_max":0,"o":""},"º":{"ha":0,"x_min":0,"x_max":0,"o":""},"А":{"ha":0,"x_min":0,"x_max":0,"o":""},"Б":{"ha":0,"x_min":0,"x_max":0,"o":""},"В":{"ha":44,"x_min":0,"x_max":0,"o":""},"Г":{"ha":0,"x_min":0,"x_max":0,"o":""},"Ѓ":{"ha":0,"x_min":0,"x_max":0,"o":""},"Ґ":{"ha":-60,"x_min":0,"x_max":0,"o":"m 75 0 l 305 0 l 305 793 l 746 793 l 746 1226 l 528 1226 l 528 982 l 75 982 z "},"Ӷ":{"ha":-64,"x_min":0,"x_max":0,"o":"m 742 982 l 75 982 l 75 0 l 300 0 l 300 -236 l 521 -236 l 521 151 l 305 151 l 305 793 l 742 793 z "},"Ғ":{"ha":-64,"x_min":0,"x_max":0,"o":"m 742 982 l 75 982 l 75 586 l -382 586 l -382 817 l 75 817 l 75 1024 l 511 1024 z "},"Ҕ":{"ha":98,"x_min":0,"x_max":0,"o":"m 742 982 l 75 982 l 75 0 l 305 0 l 305 376 l 484 376 l 484 197 l 726 197 l 726 633 z "},"Д":{"ha":227,"x_min":0,"x_max":0,"o":"m 28 -236 l 252 -236 l 252 0 l 817 0 l 817 -236 l 1040 -236 l 1040 182 l 935 182 l 935 982 l 266 982 l 236 567 b 96 182 218 316 165 228 l 28 182 z m 362 182 b 458 567 410 259 446 378 l 475 793 l 712 793 l 712 182 z "},"Е":{"ha":-20,"x_min":0,"x_max":0,"o":""},"Ѐ":{"ha":0,"x_min":0,"x_max":0,"o":""},"Ё":{"ha":0,"x_min":0,"x_max":0,"o":""},"Ж":{"ha":663,"x_min":0,"x_max":0,"o":""},"З":{"ha":51,"x_min":0,"x_max":0,"o":"m 445 -14 b 837 278 674 -14 838 109 l 604 278 b 989 -22 606 102 765 -22 z "},"И":{"ha":135,"x_min":0,"x_max":0,"o":""},"Й":{"ha":0,"x_min":0,"x_max":0,"o":""},"Ѝ":{"ha":0,"x_min":0,"x_max":0,"o":""},"Ҋ":{"ha":0,"x_min":0,"x_max":0,"o":"l 135 0 l 135 75 l 307 75 l 307 -125 l -87 -701 l -96 -701 l -96 -125 "},"К":{"ha":125,"x_min":0,"x_max":0,"o":"m 673 0 l 962 0 "},"Ќ":{"ha":0,"x_min":0,"x_max":0,"o":""},"Л":{"ha":0,"x_min":0,"x_max":0,"o":"l 140 0 l 140 224 l 1122 224 l 1122 -461 l 1107 -888 b 951 -1257 1098 -1157 1055 -1246 l 923 -1261 "},"М":{"ha":393,"x_min":0,"x_max":0,"o":""},"Н":{"ha":158,"x_min":0,"x_max":0,"o":""},"О":{"ha":211,"x_min":0,"x_max":0,"o":""},"П":{"ha":0,"x_min":0,"x_max":0,"o":""},"Р":{"ha":0,"x_min":0,"x_max":0,"o":""},"С":{"ha":173,"x_min":0,"x_max":0,"o":""},"Т":{"ha":60,"x_min":0,"x_max":0,"o":""},"У":{"ha":71,"x_min":0,"x_max":0,"o":""},"Ў":{"ha":0,"x_min":0,"x_max":0,"o":""},"Ф":{"ha":341,"x_min":0,"x_max":0,"o":"m 713 880 l 703 880 l 703 1000 l 484 1000 l 484 880 l 476 880 b 62 475 237 880 62 722 b 476 83 62 233 233 83 l 484 83 l 484 -41 l 703 -41 l 703 83 l 713 83 b 1126 473 954 83 1126 236 b 713 880 1126 722 954 880 z m 476 688 l 484 688 l 484 274 l 476 274 b 274 475 363 274 274 335 b 476 688 274 623 361 688 z m 703 274 l 703 688 l 715 688 b 911 473 829 688 911 621 b 715 274 911 339 829 274 z "},"Х":{"ha":139,"x_min":0,"x_max":0,"o":""},"Ч":{"ha":155,"x_min":0,"x_max":0,"o":""},"Ц":{"ha":238,"x_min":0,"x_max":0,"o":"m 1050 180 l 905 180 l 905 982 l 680 982 l 680 182 l 297 182 l 297 982 l 75 982 l 75 0 l 821 0 l 821 -232 l 1038 -232 z "},"Ш":{"ha":501,"x_min":0,"x_max":0,"o":"m 75 982 l 75 0 l 1274 0 l 1274 982 l 1050 982 l 1050 182 l 789 182 l 789 982 l 564 982 l 564 182 l 300 182 l 300 982 z "},"Щ":{"ha":619,"x_min":0,"x_max":0,"o":"m 1432 175 l 1274 175 l 1274 982 l 1050 982 l 1050 182 l 789 182 l 789 982 l 564 982 l 564 182 l 300 182 l 300 982 l 75 982 l 75 0 l 1211 0 l 1211 -231 l 1419 -231 z "},"Џ":{"ha":132,"x_min":0,"x_max":0,"o":"m 75 0 l 377 0 l 377 -237 l 602 -237 l 602 0 l 905 0 l 905 982 l 678 982 l 678 182 l 298 182 l 298 982 l 75 982 z "},"Ь":{"ha":0,"x_min":0,"x_max":0,"o":""},"Ы":{"ha":0,"x_min":0,"x_max":0,"o":""},"Ъ":{"ha":257,"x_min":0,"x_max":0,"o":"m 41 806 l 298 806 l 298 0 l -190 0 "},"Љ":{"ha":680,"x_min":0,"x_max":0,"o":"m 71 0 l 126 0 b 467 471 346 0 449 100 l 483 798 l 720 798 l 720 0 l 1086 0 b 1478 320 1326 0 1478 130 b 1086 632 1478 510 1326 632 l 951 632 l 951 982 l 269 982 l 252 555 b 96 186 241 248 186 190 l 71 184 z m 951 184 "},"Њ":{"ha":654,"x_min":0,"x_max":0,"o":"m 75 0 l 305 0 l 305 453 l 696 453 l 696 0 l 465 0 l 465 -350 l 75 -350 l 75 0 l -156 0 "},"Ѕ":{"ha":39,"x_min":0,"x_max":0,"o":""},"Є":{"ha":101,"x_min":0,"x_max":0,"o":"m 483 -14 b 890 326 723 -14 880 115 l 665 326 b 483 167 661 228 587 167 b 288 389 372 167 298 252 l 571 389 l 571 571 l 288 571 b 479 811 298 720 370 811 b 666 647 587 811 662 749 l 890 647 b 479 996 872 864 715 996 b 62 503 222 996 61 806 l 62 454 b 483 -14 61 167 224 -14 z "},"Э":{"ha":104,"x_min":0,"x_max":0,"o":""},"І":{"ha":-467,"x_min":0,"x_max":0,"o":""},"Ї":{"ha":0,"x_min":0,"x_max":0,"o":""},"Ј":{"ha":0,"x_min":0,"x_max":0,"o":""},"Ћ":{"ha":338,"x_min":0,"x_max":0,"o":"m 798 982 l 41 982 l 41 799 l 258 799 l 258 0 l 483 0 l 483 448 b 658 460 538 455 619 460 b 840 313 789 460 840 418 l 840 0 l 1063 0 l 1063 172 l 1378 172 z "},"Ю":{"ha":591,"x_min":0,"x_max":0,"o":"m 305 982 l 689 982 l 689 1127 b 1147 730 729 871 913 730 b 1268 647 1472 730 1268 910 b 795 222 1268 402 1076 248 l 654 222 z m 1489 153 z "},"Я":{"ha":78,"x_min":0,"x_max":0,"o":"m 852 0 l 852 982 l 449 982 b 92 656 228 982 92 857 b 263 376 92 522 154 425 l 58 0 l 312 0 l 492 338 l 620 338 l 620 0 z m 332 656 b 499 795 332 749 389 795 l 620 795 l 620 522 l 498 522 b 332 656 389 522 332 564 z "},"Ђ":{"ha":313,"x_min":0,"x_max":0,"o":"m 867 982 l 41 982 l 41 793 l 339 793 l 339 0 l 568 0 l 568 415 b 711 429 620 423 670 429 b 876 286 812 429 876 370 b 705 157 876 206 821 157 l 705 -14 b 1112 293 1021 -20 1112 130 b 726 590 1112 502 944 590 b 568 575 669 590 616 583 l 568 793 l 867 793 z "},"Ѡ":{"ha":511,"x_min":0,"x_max":0,"o":"m 75 328 b 437 -14 75 107 228 -14 b 680 94 537 -14 623 23 b 922 -14 736 23 822 -14 b 1283 328 1128 -14 1283 107 l 1283 982 l 1051 982 l 1051 328 b 922 168 1051 224 1010 168 b 793 328 836 168 793 224 l 793 982 l 564 982 l 564 328 b 437 168 564 224 522 168 b 305 328 347 168 305 225 l 305 982 l 75 982 z "},"Ѣ":{"ha":0,"x_min":0,"x_max":0,"o":""},"Ѥ":{"ha":534,"x_min":0,"x_max":0,"o":"m 949 575 l 688 575 b 901 791 709 727 791 791 b 1101 640 997 791 1072 742 l 1324 674 b 901 996 1270 882 1101 996 b 456 575 665 996 486 842 l 305 575 l 305 982 l 703 982 l 703 1133 b 1147 722 736 870 914 722 b 1569 1038 1356 722 1516 841 l 1344 1072 b 1147 926 1314 971 1241 926 b 936 1133 1039 926 958 986 l 1196 1133 z "},"Ѧ":{"ha":192,"x_min":0,"x_max":0,"o":"m 750 0 l 991 0 l 643 982 l 395 982 z m 159 1131 l -189 149 l -95 434 l -1 149 z "},"Ѩ":{"ha":587,"x_min":0,"x_max":0,"o":"m 307 982 l 75 982 l 75 0 l 307 0 l 307 271 l 532 271 l 435 0 l 524 -271 l 765 -271 l 416 711 l 168 711 l -30 149 l -308 149 z m 199 149 l 293 434 l 387 149 z "},"Ѫ":{"ha":455,"x_min":0,"x_max":0,"o":"m 103 213 b -260 -98 -149 208 -260 106 z m 183 484 l 419 484 l 301 263 z "},"Ѭ":{"ha":829,"x_min":0,"x_max":0,"o":"m 76 0 l 308 0 l 308 338 l 537 338 b 518 213 524 302 518 260 l -56 213 l -56 671 l -288 671 z m 598 484 l 834 484 l 716 263 z "},"Ѯ":{"ha":-67,"x_min":0,"x_max":0,"o":"m 321 982 l 153 982 l 153 799 l 321 799 b 468 699 422 799 468 768 b 332 586 468 631 425 586 l 228 586 l 228 401 l 326 401 b 503 289 439 401 503 369 b 357 170 503 212 446 170 l 308 170 b 61 -38 153 170 61 100 b 297 -296 61 -179 149 -270 l 354 -167 b 260 -71 298 -144 260 -115 b 330 -14 260 -37 283 -14 l 372 -14 b 723 264 587 -14 723 96 b 530 496 723 382 654 459 b 688 736 633 539 688 623 b 321 982 688 905 564 982 z m 346 1264 l 156 1264 l 156 1259 l 376 1070 l 517 1070 l 734 1259 l 734 1264 l 547 1264 l 446 1179 z "},"Ѱ":{"ha":0,"x_min":0,"x_max":0,"o":""},"Ѳ":{"ha":0,"x_min":0,"x_max":0,"o":""},"Ѵ":{"ha":200,"x_min":0,"x_max":0,"o":""},"Ѷ":{"ha":0,"x_min":0,"x_max":0,"o":""},"Ѹ":{"ha":0,"x_min":0,"x_max":0,"o":""},"Җ":{"ha":-213,"x_min":0,"x_max":0,"o":"l 663 0 l 663 159 l 475 159 "},"Ҙ":{"ha":51,"x_min":0,"x_max":0,"o":"m 60 286 b 403 -12 62 121 201 2 l 384 -95 l 412 NaN z "},"Қ":{"ha":168,"x_min":0,"x_max":0,"o":"m 673 0 l 757 0 l 757 -228 l 978 -228 l 978 159 l 838 159 "},"Ҝ":{"ha":128,"x_min":0,"x_max":0,"o":"m 355 758 l 355 587 l 302 587 l 302 982 l 75 982 l 75 0 l 302 0 l 302 372 l 355 372 l 355 225 l 473 225 l 473 372 l 506 372 l 684 0 l 964 0 l 681 526 l 936 982 l 663 982 l 488 587 l 473 587 l 473 758 z "},"Ҡ":{"ha":332,"x_min":0,"x_max":0,"o":"m 469 982 l 22 982 l 22 806 l 239 806 l 239 0 l 469 0 l 469 410 l 519 410 l 837 0 l 1126 0 l 727 509 l 1107 982 l 817 982 l 518 598 l 469 598 z "},"Ң":{"ha":336,"x_min":0,"x_max":0,"o":"m 75 0 l 305 0 l 305 397 l 700 397 l 700 0 l 926 0 l 926 -217 l 1758 -217 l 1758 -448 z "},"Ҥ":{"ha":515,"x_min":0,"x_max":0,"o":"m 1321 982 l 700 982 l 700 586 l 305 586 l 305 982 l 703 982 l 703 1377 l 305 1377 l 305 1607 l 1099 1607 l 1099 1998 z "},"Ҧ":{"ha":707,"x_min":0,"x_max":0,"o":"m 911 982 l 84 982 l 84 0 l 312 0 l 312 796 l 682 796 l 682 0 l 911 0 l 911 374 l 1039 374 l 1039 247 z "},"Ҩ":{"ha":322,"x_min":0,"x_max":0,"o":"m 1099 -4 l 1099 167 b 991 176 1060 167 1024 170 b 1092 477 1055 258 1092 362 l 1092 587 b 764 996 1092 826 958 996 b 467 633 585 996 467 838 l 467 494 b 591 179 467 370 511 262 l 568 178 b 311 430 408 178 311 283 l 311 608 b 445 806 311 720 363 806 l 445 996 b 71 606 222 996 71 826 l 71 430 b 568 -14 71 180 270 -14 b 818 39 661 -14 745 5 b 1099 -4 900 12 995 -4 z m 675 492 l 675 635 b 769 806 675 742 712 806 b 865 620 829 806 865 738 l 865 477 b 785 264 865 392 836 317 b 675 492 713 323 675 404 z "},"Ҫ":{"ha":0,"x_min":0,"x_max":0,"o":""},"Ҭ":{"ha":60,"x_min":0,"x_max":0,"o":"m 41 793 l 339 793 l 339 0 l 559 0 l 559 -212 l 1202 -212 l 1202 87 l 1390 87 l 1390 -739 z "},"Ү":{"ha":149,"x_min":0,"x_max":0,"o":""},"Ұ":{"ha":149,"x_min":0,"x_max":0,"o":"m 23 982 l 321 442 l 251 442 l 251 313 l 382 313 l 382 0 l 613 0 l 613 313 l 745 313 l 745 442 l 674 442 z "},"Ҳ":{"ha":0,"x_min":0,"x_max":0,"o":"l 139 0 l 139 113 l -97 113 l -97 334 l 290 334 l 290 172 "},"Ҵ":{"ha":421,"x_min":0,"x_max":0,"o":"m 700 982 l 41 982 l 41 806 l 258 806 l 258 0 l 1004 0 l 1004 -232 l 1221 -232 l 1233 180 l 1088 180 l 1088 982 l 863 982 l 863 182 l 480 182 l 480 806 l 700 806 z "},"Ҷ":{"ha":0,"x_min":0,"x_max":0,"o":""},"Ҹ":{"ha":155,"x_min":0,"x_max":0,"o":"m 567 713 l 450 713 l 450 529 b 346 669 376 545 346 588 l 346 982 l 122 982 l 122 669 b 450 345 121 468 249 364 l 450 191 l 567 191 l 567 342 b 703 355 607 344 661 348 l 703 0 l 928 0 l 928 982 l 703 982 l 703 536 b 567 524 662 529 608 525 z "},"Һ":{"ha":155,"x_min":0,"x_max":0,"o":"m 880 0 l 880 355 l 655 355 l 655 -627 l 880 -627 l 880 -179 b 1055 -167 936 -172 1017 -167 b 1237 -313 1187 -167 1237 -209 l 1237 -627 z "},"Ҽ":{"ha":0,"x_min":0,"x_max":0,"o":"b -408 494 0 319 -255 494 b -12 641 -118 494 -12 621 b NaN NaN -12 667 49 NaN l NaN NaN "},"Ҿ":{"ha":0,"x_min":0,"x_max":0,"o":"b -350 437 0 319 -209 437 b -191 NaN -148 437 -191 NaN l -191 NaN l 30 NaN l 30 NaN b 247 NaN 115 NaN 200 NaN l 213 NaN "},"Ӏ":{"ha":-467,"x_min":0,"x_max":0,"o":""},"Ӂ":{"ha":0,"x_min":0,"x_max":0,"o":""},"Ӄ":{"ha":90,"x_min":0,"x_max":0,"o":"m 298 376 l 480 376 b 670 146 601 376 673 289 b 499 -72 669 11 604 -72 l 500 -245 b 894 160 746 -245 895 -92 b 572 528 894 364 774 498 l 884 982 l 614 982 l 354 585 l 298 585 l 298 982 l 75 982 l 75 0 l 298 0 z "},"Ӆ":{"ha":0,"x_min":0,"x_max":0,"o":"l 140 0 l 140 163 l -35 163 l -35 1023 l -720 1023 l -734 595 b -890 227 -744 327 -787 237 l -919 222 "},"Ӈ":{"ha":158,"x_min":0,"x_max":0,"o":"m 699 0 l 699 -24 b 575 -110 699 -95 635 -110 b 510 -106 557 -110 526 -107 l 510 -289 b 589 -296 518 -290 556 -296 b 930 -39 910 -296 930 -122 l 930 982 l 700 982 l 700 585 z "},"Ӊ":{"ha":294,"x_min":0,"x_max":0,"o":"m 75 0 l 305 0 l 305 397 l 700 397 l 700 0 l 871 0 l 871 -231 z "},"Ӌ":{"ha":0,"x_min":0,"x_max":0,"o":""},"Ӎ":{"ha":505,"x_min":0,"x_max":0,"o":""},"Ӑ":{"ha":0,"x_min":0,"x_max":0,"o":""},"Ӓ":{"ha":0,"x_min":0,"x_max":0,"o":""},"Ӕ":{"ha":554,"x_min":0,"x_max":0,"o":"m 0 -595 l 144 -231 l 212 -231 l 212 -595 z "},"Ӗ":{"ha":0,"x_min":0,"x_max":0,"o":""},"Ә":{"ha":0,"x_min":0,"x_max":0,"o":""},"Ӛ":{"ha":0,"x_min":0,"x_max":0,"o":""},"Ӝ":{"ha":0,"x_min":0,"x_max":0,"o":""},"Ӟ":{"ha":51,"x_min":0,"x_max":0,"o":"m 445 -14 b 837 278 674 -14 838 109 l 604 278 b 989 -22 606 102 765 -22 "},"Ӡ":{"ha":0,"x_min":0,"x_max":0,"o":""},"Ӣ":{"ha":0,"x_min":0,"x_max":0,"o":""},"Ӥ":{"ha":0,"x_min":0,"x_max":0,"o":""},"Ӧ":{"ha":0,"x_min":0,"x_max":0,"o":""},"Ө":{"ha":0,"x_min":0,"x_max":0,"o":""},"Ӫ":{"ha":0,"x_min":0,"x_max":0,"o":""},"Ӭ":{"ha":0,"x_min":0,"x_max":0,"o":""},"Ӯ":{"ha":0,"x_min":0,"x_max":0,"o":""},"Ӱ":{"ha":0,"x_min":0,"x_max":0,"o":""},"Ӳ":{"ha":0,"x_min":0,"x_max":0,"o":""},"Ӵ":{"ha":0,"x_min":0,"x_max":0,"o":""},"Ӹ":{"ha":460,"x_min":0,"x_max":0,"o":"m 450 632 l 315 632 l 315 982 l 84 982 l 84 0 l 450 0 b 842 320 690 0 842 130 b 450 632 842 510 690 632 z m -38 -220 "},"Ӻ":{"ha":-64,"x_min":0,"x_max":0,"o":"m 742 982 l 742 315 l 346 315 l 346 -142 l 570 -142 l 570 -357 l 826 -357 l 826 -227 l 955 -227 l 955 -357 l 1162 -357 l 1162 80 z "},"Ӽ":{"ha":0,"x_min":0,"x_max":0,"o":"l 0 139 l 140 139 l 140 -81 "},"Ӿ":{"ha":139,"x_min":0,"x_max":0,"o":"m 305 982 l 43 982 l 300 560 l 245 560 l 245 431 l 305 431 l 37 431 l 37 0 l 302 0 l 34 431 l 92 431 l 92 560 l 38 560 l 293 982 l 34 982 l -151 667 l -159 667 z "},"Ҁ":{"ha":66,"x_min":0,"x_max":0,"o":"m 613 168 l 463 168 b 305 377 357 168 305 251 l 305 605 b 464 812 305 734 339 812 b 609 658 551 812 609 773 l 837 658 b 464 996 837 883 686 996 b 79 604 212 996 79 840 l 79 377 b 387 -8 79 170 195 22 l 387 -232 l 613 -232 z "},"Ҍ":{"ha":0,"x_min":0,"x_max":0,"o":""},"Ҏ":{"ha":51,"x_min":0,"x_max":0,"o":"m 487 648 l 400 593 l 465 494 b 433 491 454 492 444 491 l 311 491 l 311 795 l 433 795 b 600 644 541 795 600 736 b 560 536 600 600 586 563 z m 80 0 l 311 0 l 311 308 l 475 308 b 578 319 511 308 546 311 l 655 198 l 742 255 l 678 354 b 838 644 780 410 838 512 b 481 982 838 844 703 982 l 80 982 z "},"а":{"ha":0,"x_min":0,"x_max":0,"o":""},"б":{"ha":-20,"x_min":0,"x_max":0,"o":"m 764 854 l 701 1005 b 472 982 656 977 579 983 b 45 452 193 981 45 814 l 45 396 b 414 -14 45 129 184 -14 b 783 353 644 -14 783 129 b 467 694 783 564 659 694 b 225 552 343 694 269 640 l 218 552 b 480 798 237 730 305 796 b 764 854 635 799 703 807 z m 416 159 b 278 345 330 159 278 229 b 415 526 278 460 330 526 b 551 345 499 526 551 460 b 416 159 551 228 499 159 z "},"в":{"ha":0,"x_min":0,"x_max":0,"o":""},"г":{"ha":-220,"x_min":0,"x_max":0,"o":""},"ѓ":{"ha":0,"x_min":0,"x_max":0,"o":""},"ґ":{"ha":-191,"x_min":0,"x_max":0,"o":"m 620 924 l 414 924 l 414 736 l 73 736 l 73 0 l 294 0 l 294 562 l 620 562 z "},"ӷ":{"ha":-220,"x_min":0,"x_max":0,"o":"m 591 736 l 73 736 l 73 0 l 292 0 l 292 -237 l 513 -237 l 513 149 l 294 149 l 294 562 l 591 562 z "},"ғ":{"ha":0,"x_min":0,"x_max":0,"o":"l -220 0 l -220 -340 l 1 -340 l 1 0 l 138 0 l 138 129 l 1 129 l 1 221 l 298 221 "},"ҕ":{"ha":-56,"x_min":0,"x_max":0,"o":"m 591 736 l 73 736 l 73 0 l 294 0 l 294 271 l 323 271 b 506 119 429 271 506 225 b 372 -50 503 35 442 -12 l 472 -189 b 720 119 635 -121 723 0 b 323 444 720 343 556 444 l 294 444 l 294 562 l 591 562 z "},"д":{"ha":70,"x_min":0,"x_max":0,"o":"m 20 -217 l 244 -217 l 244 0 l 669 0 l 669 -217 l 886 -217 l 886 176 l 770 176 l 770 736 l 180 736 l 163 509 b 76 176 152 381 142 212 l 20 176 z m 300 176 b 368 509 342 245 358 351 l 372 566 l 557 566 l 557 176 z "},"е":{"ha":0,"x_min":0,"x_max":0,"o":""},"ѐ":{"ha":0,"x_min":0,"x_max":0,"o":"l -39 0 l -39 -88 l 805 -88 l 805 -293 "},"ё":{"ha":0,"x_min":0,"x_max":0,"o":""},"ж":{"ha":352,"x_min":0,"x_max":0,"o":""},"з":{"ha":-130,"x_min":0,"x_max":0,"o":""},"и":{"ha":-21,"x_min":0,"x_max":0,"o":""},"й":{"ha":0,"x_min":0,"x_max":0,"o":""},"ҋ":{"ha":0,"x_min":0,"x_max":0,"o":"l 116 0 l 116 157 l -105 157 "},"ѝ":{"ha":0,"x_min":0,"x_max":0,"o":""},"к":{"ha":-43,"x_min":0,"x_max":0,"o":""},"ќ":{"ha":0,"x_min":0,"x_max":0,"o":""},"л":{"ha":0,"x_min":0,"x_max":0,"o":"l -29 0 l -29 217 l 707 217 l 707 -362 l 695 -688 b 595 -922 688 -859 660 -922 l 570 -922 "},"м":{"ha":0,"x_min":0,"x_max":0,"o":"l 0 192 l 214 192 l 214 928 l -56 928 "},"н":{"ha":0,"x_min":0,"x_max":0,"o":"l -50 0 l -50 214 l 687 214 l 687 0 l 409 0 l 409 -225 "},"о":{"ha":-17,"x_min":0,"x_max":0,"o":""},"п":{"ha":0,"x_min":0,"x_max":0,"o":"l -39 0 l -39 736 l -701 736 "},"р":{"ha":10,"x_min":0,"x_max":0,"o":""},"с":{"ha":-48,"x_min":0,"x_max":0,"o":""},"т":{"ha":-90,"x_min":0,"x_max":0,"o":"m 35 562 l 269 562 l 269 0 l 486 0 l 486 562 l 722 562 l 722 736 l 35 736 z "},"у":{"ha":-50,"x_min":0,"x_max":0,"o":""},"ў":{"ha":0,"x_min":0,"x_max":0,"o":""},"ф":{"ha":261,"x_min":0,"x_max":0,"o":"m 439 -250 l 669 -250 l 669 -14 b 1063 366 901 -14 1063 142 b 669 746 1063 590 901 746 l 669 982 l 439 982 l 439 746 b 45 366 208 746 45 590 b 439 -14 45 142 208 -14 z m 439 161 b 281 366 343 161 281 250 b 439 572 281 483 342 572 z m 669 161 l 669 572 b 827 366 768 572 827 483 b 669 161 827 250 768 161 z "},"х":{"ha":-64,"x_min":0,"x_max":0,"o":""},"ч":{"ha":-48,"x_min":0,"x_max":0,"o":""},"ц":{"ha":0,"x_min":0,"x_max":0,"o":"l 43 0 l 43 562 l -78 562 "},"ш":{"ha":323,"x_min":0,"x_max":0,"o":"m 73 736 l 73 0 l 1103 0 l 1103 736 z "},"щ":{"ha":459,"x_min":0,"x_max":0,"o":"m 1271 175 l 1103 175 l 1103 736 l 886 736 l 886 0 l 1862 0 l 1862 -212 l 2068 -212 z "},"џ":{"ha":0,"x_min":0,"x_max":0,"o":"l -39 0 l -39 221 l -276 221 l -276 441 l -39 441 l -39 662 "},"ь":{"ha":0,"x_min":0,"x_max":0,"o":""},"ы":{"ha":0,"x_min":0,"x_max":0,"o":""},"ъ":{"ha":119,"x_min":0,"x_max":0,"o":"m 454 736 l 52 736 l 52 560 l 237 560 l 237 0 l 597 0 z m 597 -346 "},"љ":{"ha":446,"x_min":0,"x_max":0,"o":"m 66 0 l 133 0 b 393 346 288 0 380 98 l 406 562 l 563 562 l 563 0 l 922 0 l 922 216 l 343 216 l 332 -110 b 231 -345 326 -281 296 -345 l 208 -345 "},"њ":{"ha":397,"x_min":0,"x_max":0,"o":"m 73 0 b 581 -65 290 0 581 225 b NaN 92 581 293 678 92 l NaN 92 l NaN 312 l NaN 312 l NaN 41 l NaN 41 l NaN 312 l NaN 312 z m NaN -250 l NaN -84 l NaN -84 b NaN -165 NaN -84 NaN -115 b NaN -250 NaN -214 NaN -250 z "},"ѕ":{"ha":-79,"x_min":0,"x_max":0,"o":""},"є":{"ha":-55,"x_min":0,"x_max":0,"o":"m 458 430 l 270 430 b 410 567 283 513 324 567 b 519 453 486 567 519 525 b 163 72 519 228 384 72 b 76 137 -60 72 76 -88 b 353 437 76 308 206 401 l 141 476 b 16 378 125 422 90 378 b -123 518 -69 378 -111 433 l 65 518 z "},"э":{"ha":-100,"x_min":0,"x_max":0,"o":""},"і":{"ha":-471,"x_min":0,"x_max":0,"o":""},"ї":{"ha":0,"x_min":0,"x_max":0,"o":""},"ј":{"ha":0,"x_min":0,"x_max":0,"o":""},"ћ":{"ha":0,"x_min":0,"x_max":0,"o":""},"ю":{"ha":276,"x_min":0,"x_max":0,"o":"m 267 736 l 38 736 l 38 0 l 267 0 l 267 277 l 362 277 b 713 -14 395 104 522 -14 b 1074 369 937 -14 1074 146 b 713 746 1074 590 937 746 b 361 453 519 746 391 629 l 267 453 z m 713 168 b 570 369 610 168 568 247 b 713 567 568 490 610 567 b 857 369 817 567 857 488 b 713 168 857 248 817 168 z "},"я":{"ha":-64,"x_min":0,"x_max":0,"o":"m 502 0 l 715 0 l 715 736 l 380 736 b 56 488 179 736 54 635 b 194 293 55 401 105 332 l 41 0 l 255 0 l 391 258 l 502 258 z m 273 481 b 380 562 271 522 308 562 l 502 562 l 502 403 l 380 403 b 273 481 308 403 271 439 z "},"ђ":{"ha":3,"x_min":0,"x_max":0,"o":"m 551 426 l 551 -37 b 397 -49 499 -37 448 -49 b NaN NaN 378 -49 431 NaN b NaN NaN NaN NaN NaN NaN l NaN NaN l NaN NaN l NaN NaN l NaN NaN l NaN NaN l NaN NaN l NaN NaN l NaN NaN l NaN NaN l NaN NaN l NaN NaN l NaN NaN l NaN NaN l NaN NaN z "},"ѡ":{"ha":366,"x_min":0,"x_max":0,"o":"m 73 324 b 392 -14 73 103 206 -14 b 612 85 483 -14 560 20 b 827 -14 661 20 735 -14 b 1145 324 1015 -14 1145 104 l 1145 736 l 928 736 l 928 324 b 827 161 928 220 898 161 b 720 324 751 161 720 220 l 720 736 l 505 736 l 505 324 b 392 161 505 220 471 161 b 290 324 321 161 290 224 l 290 736 l 73 736 z "},"ѣ":{"ha":20,"x_min":0,"x_max":0,"o":"m 517 841 l 354 841 l 354 1059 l 138 1059 l 138 841 l 37 841 l 37 713 l 138 713 l 138 0 l 496 0 l 496 193 l 659 193 "},"ѥ":{"ha":287,"x_min":0,"x_max":0,"o":"m 808 423 l 613 423 b 753 567 623 511 665 567 b 863 453 826 567 863 526 b 541 94 863 245 732 115 l 450 94 l 450 408 l 222 408 l 222 -329 l 450 -329 l 450 -35 l 543 -35 b 899 -342 570 -217 699 -342 b 1235 -102 1069 -342 1198 -249 l 1023 -63 b 899 -161 1006 -119 970 -161 b 762 -35 818 -161 776 -112 l 954 -35 z "},"ѧ":{"ha":67,"x_min":0,"x_max":0,"o":"m 435 412 l 458 519 l 481 412 l 519 304 l 399 304 z m 623 0 l 848 0 l 574 738 l 339 738 l 68 0 l 293 0 l 353 171 l 387 171 l 387 0 l 517 0 l 517 171 l 564 171 z "},"ѩ":{"ha":355,"x_min":0,"x_max":0,"o":"m 974 0 l 1198 0 l 925 736 l 690 736 l 532 304 l 302 304 l 302 736 l 73 736 l 73 0 l 302 0 l 302 174 l 483 174 l 419 0 l 643 0 l 703 171 l 739 171 l 739 0 l 864 0 l 864 171 l 916 171 z m 749 304 l 785 411 l 808 521 l 833 411 l 869 304 z "},"ѫ":{"ha":195,"x_min":0,"x_max":0,"o":"m 296 0 l 296 126 b 411 243 296 220 338 243 l 415 243 l 415 0 l 633 0 l 633 243 b 746 126 714 242 746 211 l 746 0 l 967 0 l 967 126 b 718 403 966 301 873 383 l 917 736 l 136 736 l 335 404 b 75 126 170 387 73 305 l 75 0 z m 448 602 l 612 602 l 529 426 z "},"ѭ":{"ha":574,"x_min":0,"x_max":0,"o":"m 294 736 l 66 736 l 66 0 l 294 0 l 294 251 l 475 251 b 453 126 460 216 453 175 l 453 0 l 675 0 l 675 126 b 791 243 675 220 716 243 l 795 243 l 795 0 l 1013 0 l 1013 243 b 1126 126 1094 242 1126 211 l 1126 0 l 1345 0 l 1345 126 b 1096 403 1345 301 1253 383 l 1295 736 l 515 736 l 712 408 l 294 408 z m 826 602 l 991 602 l 907 425 z "},"ѯ":{"ha":-101,"x_min":0,"x_max":0,"o":"m 269 736 l 102 736 l 102 582 l 269 582 b 401 515 361 582 400 564 b 294 437 401 467 365 437 l 176 437 l 176 311 l 288 311 b 437 229 385 311 437 286 b 292 142 438 171 388 142 l 251 142 b 28 -35 107 142 28 79 b 240 -281 30 -149 111 -244 l 296 -167 b 216 -72 243 -142 216 -110 b 298 -14 216 -34 244 -14 l 334 -14 b 658 212 537 -14 659 80 b 506 378 658 295 605 349 b 623 545 582 412 622 471 b 269 736 623 680 505 736 z m 294 1019 l 103 1019 l 103 1013 l 324 825 l 465 825 l 682 1013 l 682 1019 l 495 1019 l 395 933 z "},"ѱ":{"ha":0,"x_min":0,"x_max":0,"o":""},"ѳ":{"ha":0,"x_min":0,"x_max":0,"o":""},"ѵ":{"ha":-10,"x_min":0,"x_max":0,"o":""},"ѷ":{"ha":0,"x_min":0,"x_max":0,"o":""},"ѹ":{"ha":0,"x_min":0,"x_max":0,"o":""},"җ":{"ha":0,"x_min":0,"x_max":0,"o":"l 352 0 l 352 163 l 116 163 l 116 384 l 503 384 l 503 171 l 352 406 l 596 757 l 337 757 l 159 476 l 136 476 l 136 757 l -92 757 l -92 476 l -115 476 l -292 757 l -551 757 l -306 406 "},"ҙ":{"ha":-130,"x_min":0,"x_max":0,"o":"m 256 214 l 38 214 b 311 -11 43 78 153 1 l 290 -95 l 317 NaN b 593 NaN 479 NaN 593 NaN b 422 NaN 593 NaN 514 NaN z "},"қ":{"ha":100,"x_min":0,"x_max":0,"o":"m 73 0 l 302 0 l 302 248 l 369 248 l 537 0 l 690 0 l 690 -210 l 543 -210 l 543 3 l 819 3 l 819 -227 z "},"ҝ":{"ha":29,"x_min":0,"x_max":0,"o":"m 73 0 l 302 0 l 302 248 l 357 248 l 357 134 l 457 134 l 457 248 l 503 248 l 613 0 l 878 0 l 682 369 l 876 736 l 614 736 l 487 460 l 457 460 l 457 574 l 357 574 l 357 460 l 302 460 l 302 736 l 73 736 z "},"ҡ":{"ha":188,"x_min":0,"x_max":0,"o":"m 534 736 l 35 736 l 35 560 l 305 560 l 305 0 z "},"ң":{"ha":0,"x_min":0,"x_max":0,"o":"l 136 0 l 136 212 l -82 212 l -82 798 l -296 798 l -296 519 l -522 519 "},"ҥ":{"ha":147,"x_min":0,"x_max":0,"o":"m 970 736 l 515 736 l 515 458 l 290 458 l 290 736 l 505 736 l 505 1298 l 745 1298 z "},"ҧ":{"ha":0,"x_min":0,"x_max":0,"o":"l 401 0 l 401 277 l 455 277 b 652 127 570 277 653 232 b 516 -45 650 43 596 1 l 615 -182 b 865 127 791 -113 865 20 b 455 453 865 351 698 453 l 401 453 l 401 736 l -261 736 "},"ҩ":{"ha":200,"x_min":0,"x_max":0,"o":"m 943 -22 l 943 87 b 838 96 905 87 870 90 b 933 308 899 151 933 225 l 933 437 b 681 746 933 610 833 746 b 442 475 538 746 442 625 l 442 338 b 494 155 441 270 458 208 b 338 338 399 165 338 245 l 338 433 b 419 566 338 507 369 556 l 419 746 b 107 433 232 746 107 612 l 107 338 b 514 -14 107 137 271 -14 b 693 14 580 -14 640 -4 b 943 -22 761 -9 844 -22 z m 587 326 l 587 456 b 652 563 587 521 613 563 b 719 453 692 563 718 519 l 719 323 b 643 190 719 271 690 222 b 587 326 606 229 587 275 z "},"ҫ":{"ha":0,"x_min":0,"x_max":0,"o":""},"ҭ":{"ha":-90,"x_min":0,"x_max":0,"o":"m 35 562 l 269 562 l 269 0 l 480 0 l 480 -237 l 701 -237 l 701 149 l 486 149 l 486 562 l 722 562 l 722 736 l 35 736 z "},"ү":{"ha":0,"x_min":0,"x_max":0,"o":""},"ұ":{"ha":-108,"x_min":0,"x_max":0,"o":"m 15 736 l 216 144 l 125 144 l 125 15 l 259 15 l 262 4 l 262 -277 l 477 -277 l 477 4 l 481 15 l 618 15 l 618 144 l 525 144 "},"ҳ":{"ha":-127,"x_min":0,"x_max":0,"o":"l -64 0 l -64 267 l 672 267 l 672 355 l 436 355 l 436 576 l 823 576 l 823 410 "},"ҵ":{"ha":158,"x_min":0,"x_max":0,"o":"m 543 736 l 58 736 l 58 560 l 193 560 l 193 0 l 750 0 l 750 -212 l 958 -212 l 970 175 l 854 175 l 854 736 l 640 736 l 640 175 l 410 175 l 410 560 l 543 560 z "},"ҷ":{"ha":0,"x_min":0,"x_max":0,"o":"l 0 136 l 210 136 l 210 -101 l 431 -101 l 431 286 l 216 286 "},"ҹ":{"ha":-48,"x_min":0,"x_max":0,"o":"m 460 556 l 343 556 l 343 391 b 288 481 301 403 288 431 l 288 736 l 73 736 l 73 481 b 343 212 73 315 173 231 l 343 102 l 460 102 l 460 208 b 517 216 478 209 497 212 l 517 0 l 732 0 l 732 736 l 517 736 l 517 391 b 460 382 497 386 479 383 z "},"һ":{"ha":3,"x_min":0,"x_max":0,"o":""},"ҽ":{"ha":0,"x_min":0,"x_max":0,"o":"b 120 20 188 0 -16 20 b NaN NaN -3 20 210 NaN b NaN NaN NaN NaN NaN NaN b NaN NaN NaN NaN NaN NaN b NaN NaN NaN NaN NaN NaN "},"ҿ":{"ha":0,"x_min":0,"x_max":0,"o":"b -115 312 188 18 3 132 b NaN NaN -135 292 -220 NaN l NaN NaN l NaN NaN b NaN NaN NaN NaN NaN NaN b NaN NaN NaN NaN NaN NaN b NaN NaN NaN NaN NaN NaN "},"ӏ":{"ha":-467,"x_min":0,"x_max":0,"o":""},"ӂ":{"ha":0,"x_min":0,"x_max":0,"o":""},"ӄ":{"ha":7,"x_min":0,"x_max":0,"o":"m 73 0 l 302 0 l 302 248 l 391 248 b 587 95 513 248 590 189 b 453 -66 587 24 534 -38 l 553 -214 b 803 98 707 -151 803 -30 b 566 382 803 238 715 340 l 803 736 l 538 736 l 355 460 l 302 460 l 302 736 l 73 736 z "},"ӆ":{"ha":0,"x_min":0,"x_max":0,"o":"l 113 0 l 113 157 l -466 157 l -478 -168 b -578 -403 -485 -339 -513 -403 l -603 -403 "},"ӈ":{"ha":-50,"x_min":0,"x_max":0,"o":"m 730 -22 l 730 736 l 515 736 l 515 458 l 290 458 l 290 736 l 289 736 l 289 715 b 205 624 289 651 258 624 b 134 632 179 624 163 625 l 125 458 b 233 449 163 450 194 449 b 505 715 401 449 505 537 z "},"ӊ":{"ha":0,"x_min":0,"x_max":0,"o":"l 94 0 l 94 156 l 51 -104 l 210 -104 l 330 277 l 153 277 l 153 892 l -62 892 l -62 614 l -287 614 "},"ӌ":{"ha":-48,"x_min":0,"x_max":0,"o":"m -217 149 l -438 149 l -438 -237 l -217 -237 z "},"ӎ":{"ha":0,"x_min":0,"x_max":0,"o":"l 334 0 l 334 155 l 64 155 "},"ӑ":{"ha":0,"x_min":0,"x_max":0,"o":""},"ӓ":{"ha":0,"x_min":0,"x_max":0,"o":""},"ӕ":{"ha":0,"x_min":0,"x_max":0,"o":""},"ӗ":{"ha":0,"x_min":0,"x_max":0,"o":""},"ә":{"ha":0,"x_min":0,"x_max":0,"o":""},"ӛ":{"ha":0,"x_min":0,"x_max":0,"o":""},"ӝ":{"ha":0,"x_min":0,"x_max":0,"o":""},"ӟ":{"ha":0,"x_min":0,"x_max":0,"o":""},"ӡ":{"ha":0,"x_min":0,"x_max":0,"o":""},"ӣ":{"ha":0,"x_min":0,"x_max":0,"o":""},"ӥ":{"ha":0,"x_min":0,"x_max":0,"o":""},"ӧ":{"ha":0,"x_min":0,"x_max":0,"o":""},"ө":{"ha":0,"x_min":0,"x_max":0,"o":""},"ӫ":{"ha":0,"x_min":0,"x_max":0,"o":""},"ӭ":{"ha":0,"x_min":0,"x_max":0,"o":""},"ӯ":{"ha":0,"x_min":0,"x_max":0,"o":""},"ӱ":{"ha":0,"x_min":0,"x_max":0,"o":""},"ӳ":{"ha":0,"x_min":0,"x_max":0,"o":""},"ӵ":{"ha":0,"x_min":0,"x_max":0,"o":""},"ӹ":{"ha":0,"x_min":0,"x_max":0,"o":""},"ӻ":{"ha":0,"x_min":0,"x_max":0,"o":"l -220 0 l -220 -347 l -220 0 l -83 0 l -83 129 l -220 129 l -220 221 l 77 221 "},"ӽ":{"ha":-101,"x_min":0,"x_max":0,"o":"m 24 0 l 258 0 l 377 203 l 448 91 b 496 -39 488 22 502 -8 b 406 -115 492 -92 457 -115 b 349 -104 385 -115 363 -110 l 339 -278 b 444 -288 376 -286 407 -288 b 715 -72 616 -288 705 -187 b 617 198 723 41 652 136 l 521 369 l 722 736 l 491 736 l 377 532 l 267 736 l 35 736 l 233 369 z "},"ӿ":{"ha":-64,"x_min":0,"x_max":0,"o":"m 267 736 l 35 736 l 202 438 l 144 438 l 144 309 l 206 309 l 24 309 l 24 0 l 254 0 l 75 309 l 133 309 l 133 438 l 79 438 l 247 736 l 15 736 l -113 491 z "},"ҁ":{"ha":-63,"x_min":0,"x_max":0,"o":"m 562 161 l 412 161 b 283 349 307 161 283 254 l 283 372 b 407 571 283 479 307 571 b 513 439 481 571 513 519 l 720 439 b 411 746 720 642 597 746 b 65 372 183 746 65 590 l 65 349 b 339 -7 65 165 158 22 l 339 -235 l 562 -235 z "},"ҍ":{"ha":20,"x_min":0,"x_max":0,"o":"m 517 962 l 354 962 l 354 1059 l 138 1059 l 138 962 l 37 962 l 37 834 l 138 834 l 138 0 l 496 0 l 496 313 l 659 313 "},"ҏ":{"ha":-24,"x_min":0,"x_max":0,"o":"m 468 328 l 400 277 l 484 175 b 442 168 471 170 457 168 b 340 100 385 168 374 121 z m -130 -407 l 99 -407 l 99 -11 l 104 -11 b 312 -141 133 -77 198 -141 b 412 -122 347 -141 381 -135 l 463 -184 l 533 -132 l 488 -77 b 606 237 560 -16 606 90 l 598 237 l 598 363 l 372 363 z "},"ԯ":{"ha":0,"x_min":0,"x_max":0,"o":"l 158 0 l 158 216 l -128 216 l -128 437 l 258 437 l 258 217 l 895 217 l 895 -362 l 882 -688 b 782 -922 876 -859 847 -922 l 758 -922 "},"Α":{"ha":0,"x_min":0,"x_max":0,"o":""},"Β":{"ha":44,"x_min":0,"x_max":0,"o":""},"Γ":{"ha":0,"x_min":0,"x_max":0,"o":""},"Δ":{"ha":184,"x_min":0,"x_max":0,"o":"m 28 0 l 1001 0 l 669 982 l 362 982 z m 336 189 l 511 739 l 519 739 l 694 189 z "},"∆":{"ha":184,"x_min":0,"x_max":0,"o":"m 28 0 l 1001 0 l 669 982 l 362 982 z m 336 189 l 511 739 l 519 739 l 694 189 z "},"Ε":{"ha":-20,"x_min":0,"x_max":0,"o":""},"Ζ":{"ha":63,"x_min":0,"x_max":0,"o":""},"Η":{"ha":158,"x_min":0,"x_max":0,"o":""},"Θ":{"ha":211,"x_min":0,"x_max":0,"o":"m 688 562 l 370 562 l 370 420 l 688 420 z "},"Ι":{"ha":-467,"x_min":0,"x_max":0,"o":""},"Κ":{"ha":93,"x_min":0,"x_max":0,"o":""},"Λ":{"ha":184,"x_min":0,"x_max":0,"o":"m 278 0 l 511 739 l 519 739 l 753 0 l 1001 0 z "},"Μ":{"ha":393,"x_min":0,"x_max":0,"o":""},"Ν":{"ha":135,"x_min":0,"x_max":0,"o":""},"Ξ":{"ha":73,"x_min":0,"x_max":0,"o":"m 118 0 l 802 0 l 802 183 l 118 183 z m 206 408 l 719 408 l 719 583 l 206 583 z m 140 796 l 766 796 l 766 982 l 140 982 z "},"Ο":{"ha":211,"x_min":0,"x_max":0,"o":""},"Π":{"ha":0,"x_min":0,"x_max":0,"o":""},"Ρ":{"ha":0,"x_min":0,"x_max":0,"o":""},"Σ":{"ha":71,"x_min":0,"x_max":0,"o":"m 814 187 l 425 187 l 637 488 l 637 496 l 426 795 l 803 795 l 803 983 l 104 983 l 104 882 l 396 492 l 104 102 l 104 0 l 814 0 z "},"Τ":{"ha":60,"x_min":0,"x_max":0,"o":""},"Υ":{"ha":149,"x_min":0,"x_max":0,"o":""},"Φ":{"ha":329,"x_min":0,"x_max":0,"o":"m 701 982 l 480 982 l 480 865 b 81 481 243 856 81 710 b 480 118 80 264 243 126 l 480 0 l 701 0 l 701 118 b 1096 484 935 127 1096 269 b 701 865 1096 711 937 855 z m 301 481 b 480 667 301 600 378 659 l 480 319 b 301 481 378 325 301 376 z m 701 319 l 701 667 b 879 484 804 659 879 602 b 701 319 878 378 802 325 z "},"Χ":{"ha":139,"x_min":0,"x_max":0,"o":""},"Ψ":{"ha":0,"x_min":0,"x_max":0,"o":""},"Ω":{"ha":205,"x_min":0,"x_max":0,"o":""},"Ω":{"ha":205,"x_min":0,"x_max":0,"o":""},"Ά":{"ha":0,"x_min":0,"x_max":0,"o":""},"Έ":{"ha":242,"x_min":0,"x_max":0,"o":"m 336 0 "},"Ή":{"ha":427,"x_min":0,"x_max":0,"o":"m 343 0 "},"Ί":{"ha":0,"x_min":0,"x_max":0,"o":""},"Ό":{"ha":0,"x_min":0,"x_max":0,"o":""},"Ύ":{"ha":509,"x_min":0,"x_max":0,"o":"m 312 982 l 671 332 l 1029 982 l 772 982 l 560 570 l 552 570 l 340 982 "},"Ώ":{"ha":276,"x_min":0,"x_max":0,"o":"m 126 0 "},"Ϊ":{"ha":0,"x_min":0,"x_max":0,"o":""},"Ϋ":{"ha":0,"x_min":0,"x_max":0,"o":""},"Ͱ":{"ha":74,"x_min":0,"x_max":0,"o":"m 795 582 l 357 582 l 357 982 l 755 982 l 755 1420 z "},"Ͳ":{"ha":60,"x_min":0,"x_max":0,"o":"m 875 594 l 875 982 l 49 982 l 49 594 l 233 594 l 233 793 l 347 793 l 347 0 l 576 0 l 576 793 l 689 793 l 689 594 z "},"Ͷ":{"ha":203,"x_min":0,"x_max":0,"o":"m 109 982 l 109 0 l 305 0 l 703 576 l 709 576 l 709 0 l 941 0 l 941 982 l 742 982 l 347 406 l 339 406 l 339 982 z "},"Ϙ":{"ha":173,"x_min":0,"x_max":0,"o":"m 959 490 b 511 996 958 814 764 996 b 62 490 256 996 61 814 b 396 0 61 218 200 47 l 396 -274 l 628 -274 l 628 0 b 959 490 821 47 958 218 z m 726 490 b 511 191 724 271 637 191 b 296 490 387 191 296 271 b 511 791 296 705 385 791 b 726 490 637 791 724 707 z "},"Ϛ":{"ha":197,"x_min":0,"x_max":0,"o":"m 549 -88 l 551 -259 b 899 -9 764 -259 898 -163 b 753 186 898 88 848 157 l 519 258 b 340 533 397 297 340 382 l 340 572 b 538 808 340 731 404 808 b 709 650 650 808 703 760 l 936 650 b 533 996 917 861 760 996 b 109 571 282 996 109 822 l 109 533 b 414 80 109 285 214 137 l 602 26 b 666 -28 650 12 666 -1 b 549 -88 666 -69 625 -88 z "},"Ϝ":{"ha":74,"x_min":0,"x_max":0,"o":"m 749 562 l 726 562 l 726 586 l 346 586 l 346 793 l 795 793 l 795 982 l 114 982 l 114 0 l 346 0 l 346 397 l 564 397 l 564 236 l 749 236 z "},"Ϟ":{"ha":192,"x_min":0,"x_max":0,"o":"m 171 110 l 688 464 l 674 236 b 673 149 670 205 670 175 b 911 -14 684 38 766 -14 b 979 -8 928 -14 962 -11 l 991 149 b 963 148 982 148 970 148 b 852 208 902 148 864 167 b 849 277 846 222 845 245 l 894 819 l 875 852 l 349 481 l 366 746 b 365 834 369 779 368 808 b 133 996 351 948 278 996 b 60 991 115 996 80 994 l 50 833 b 85 836 58 834 66 836 b 191 765 156 836 186 817 b 190 724 193 753 191 739 l 144 140 z "},"Ϡ":{"ha":330,"x_min":0,"x_max":0,"o":"m 126 553 l 336 553 b 557 808 339 696 412 808 b 758 692 646 808 713 768 l 251 408 l 339 255 l 814 521 b 823 380 820 478 823 431 l 823 374 l 397 136 l 487 -18 l 814 167 b 571 -72 787 14 713 -72 l 571 -288 b 1055 308 886 -288 1055 -62 l 1055 378 b 571 996 1055 764 880 996 b 126 553 270 996 141 780 z "},"Ϗ":{"ha":200,"x_min":0,"x_max":0,"o":"m 338 982 l 110 982 l 110 0 l 338 0 l 338 255 l 441 363 l 663 7 l 528 -107 l 650 -241 l 939 0 l 594 533 l 951 982 l 667 982 l 425 663 l 338 540 z "},"ϒ":{"ha":120,"x_min":0,"x_max":0,"o":""},"ϓ":{"ha":345,"x_min":0,"x_max":0,"o":"m 600 0 l 823 0 l 823 305 l 1023 761 b 1090 807 1034 787 1055 807 b 1134 806 1103 807 1130 804 l 1158 978 b 1054 996 1130 986 1089 996 b 830 814 949 996 876 939 l 715 511 l 598 822 b 373 996 551 955 472 996 b 269 978 332 996 297 986 l 293 806 b 335 807 296 804 323 807 b 403 761 369 807 391 789 l 600 301 "},"ϔ":{"ha":0,"x_min":0,"x_max":0,"o":""},"ϴ":{"ha":0,"x_min":0,"x_max":0,"o":""},"Ϸ":{"ha":0,"x_min":0,"x_max":0,"o":""},"Ϲ":{"ha":173,"x_min":0,"x_max":0,"o":""},"Ϻ":{"ha":393,"x_min":0,"x_max":0,"o":""},"Ͻ":{"ha":199,"x_min":0,"x_max":0,"o":"m 338 334 l 109 334 b 511 -14 127 129 278 -14 b 937 456 777 -14 937 164 l 937 526 b 518 996 937 818 785 996 b 110 655 286 996 122 867 l 338 655 b 513 808 346 769 414 808 b 704 526 667 808 704 716 l 704 454 b 510 171 704 267 659 171 b 338 334 399 171 345 222 z "},"Ͼ":{"ha":0,"x_min":0,"x_max":0,"o":""},"Ͽ":{"ha":173,"x_min":0,"x_max":0,"o":"m 199 26 z "},"Ἀ":{"ha":0,"x_min":0,"x_max":0,"o":""},"Ἁ":{"ha":0,"x_min":0,"x_max":0,"o":""},"Ἂ":{"ha":0,"x_min":0,"x_max":0,"o":"l 184 -71 l -25 -148 l 185 NaN l 41 NaN l 41 NaN l 199 NaN l 258 NaN l -1 NaN "},"Ἃ":{"ha":0,"x_min":0,"x_max":0,"o":""},"Ἄ":{"ha":0,"x_min":0,"x_max":0,"o":""},"Ἅ":{"ha":0,"x_min":0,"x_max":0,"o":""},"Ἆ":{"ha":0,"x_min":0,"x_max":0,"o":""},"Ἇ":{"ha":0,"x_min":0,"x_max":0,"o":""},"Ὰ":{"ha":0,"x_min":0,"x_max":0,"o":""},"Ά":{"ha":0,"x_min":0,"x_max":0,"o":""},"Ᾰ":{"ha":0,"x_min":0,"x_max":0,"o":""},"Ᾱ":{"ha":0,"x_min":0,"x_max":0,"o":""},"ᾼ":{"ha":0,"x_min":0,"x_max":0,"o":""},"ᾈ":{"ha":0,"x_min":0,"x_max":0,"o":""},"ᾉ":{"ha":0,"x_min":0,"x_max":0,"o":""},"ᾊ":{"ha":0,"x_min":0,"x_max":0,"o":"l 184 -71 l -25 -148 l 185 NaN l 41 NaN l 41 NaN l 199 NaN l 258 NaN l -1 NaN "},"ᾋ":{"ha":0,"x_min":0,"x_max":0,"o":""},"ᾌ":{"ha":184,"x_min":0,"x_max":0,"o":"m 534 -1242 b 1335 -1196 576 -1242 1335 -1215 b NaN -1173 1335 -1194 1340 -1173 l NaN -1090 b NaN -1093 NaN -1090 NaN -1093 b NaN -1058 NaN -1093 NaN -1081 l NaN -921 l NaN -921 l NaN -1058 b NaN -1181 NaN -1146 NaN -1181 "},"ᾍ":{"ha":0,"x_min":0,"x_max":0,"o":""},"ᾎ":{"ha":0,"x_min":0,"x_max":0,"o":""},"ᾏ":{"ha":0,"x_min":0,"x_max":0,"o":""},"Ἐ":{"ha":184,"x_min":0,"x_max":0,"o":"m 278 0 "},"Ἑ":{"ha":188,"x_min":0,"x_max":0,"o":"m 282 0 z "},"Ἒ":{"ha":443,"x_min":0,"x_max":0,"o":"m 536 0 "},"Ἓ":{"ha":405,"x_min":0,"x_max":0,"o":"m 499 0 "},"Ἔ":{"ha":425,"x_min":0,"x_max":0,"o":"m 519 0 "},"Ἕ":{"ha":443,"x_min":0,"x_max":0,"o":"m 536 0 "},"Ὲ":{"ha":237,"x_min":0,"x_max":0,"o":"m 331 0 "},"Έ":{"ha":229,"x_min":0,"x_max":0,"o":"m 323 0 "},"Ἠ":{"ha":0,"x_min":0,"x_max":0,"o":""},"Ἡ":{"ha":372,"x_min":0,"x_max":0,"o":""},"Ἢ":{"ha":0,"x_min":0,"x_max":0,"o":""},"Ἣ":{"ha":0,"x_min":0,"x_max":0,"o":""},"Ἤ":{"ha":0,"x_min":0,"x_max":0,"o":""},"Ἥ":{"ha":0,"x_min":0,"x_max":0,"o":""},"Ἦ":{"ha":0,"x_min":0,"x_max":0,"o":""},"Ἧ":{"ha":0,"x_min":0,"x_max":0,"o":""},"Ὴ":{"ha":0,"x_min":0,"x_max":0,"o":""},"Ή":{"ha":413,"x_min":0,"x_max":0,"o":"m 330 0 "},"ῌ":{"ha":158,"x_min":0,"x_max":0,"o":""},"ᾘ":{"ha":367,"x_min":0,"x_max":0,"o":"m 283 0 "},"ᾙ":{"ha":372,"x_min":0,"x_max":0,"o":""},"ᾚ":{"ha":0,"x_min":0,"x_max":0,"o":""},"ᾛ":{"ha":0,"x_min":0,"x_max":0,"o":""},"ᾜ":{"ha":0,"x_min":0,"x_max":0,"o":""},"ᾝ":{"ha":0,"x_min":0,"x_max":0,"o":""},"ᾞ":{"ha":0,"x_min":0,"x_max":0,"o":""},"ᾟ":{"ha":0,"x_min":0,"x_max":0,"o":""},"Ἰ":{"ha":0,"x_min":0,"x_max":0,"o":""},"Ἱ":{"ha":-280,"x_min":0,"x_max":0,"o":""},"Ἲ":{"ha":0,"x_min":0,"x_max":0,"o":""},"Ἳ":{"ha":0,"x_min":0,"x_max":0,"o":""},"Ἴ":{"ha":0,"x_min":0,"x_max":0,"o":""},"Ἵ":{"ha":0,"x_min":0,"x_max":0,"o":""},"Ἶ":{"ha":0,"x_min":0,"x_max":0,"o":""},"Ἷ":{"ha":0,"x_min":0,"x_max":0,"o":""},"Ὶ":{"ha":0,"x_min":0,"x_max":0,"o":""},"Ί":{"ha":0,"x_min":0,"x_max":0,"o":""},"Ῐ":{"ha":0,"x_min":0,"x_max":0,"o":""},"Ῑ":{"ha":0,"x_min":0,"x_max":0,"o":""},"Ὀ":{"ha":0,"x_min":0,"x_max":0,"o":""},"Ὁ":{"ha":298,"x_min":0,"x_max":0,"o":""},"Ὂ":{"ha":0,"x_min":0,"x_max":0,"o":""},"Ὃ":{"ha":0,"x_min":0,"x_max":0,"o":""},"Ὄ":{"ha":0,"x_min":0,"x_max":0,"o":""},"Ὅ":{"ha":0,"x_min":0,"x_max":0,"o":""},"Ὸ":{"ha":0,"x_min":0,"x_max":0,"o":""},"Ό":{"ha":0,"x_min":0,"x_max":0,"o":""},"Ῥ":{"ha":248,"x_min":0,"x_max":0,"o":"m 274 0 "},"Ὑ":{"ha":416,"x_min":0,"x_max":0,"o":"m 220 982 l 579 332 l 937 982 l 680 982 l 468 570 l 460 570 l 248 982 z "},"Ὓ":{"ha":629,"x_min":0,"x_max":0,"o":"m 431 982 l 791 332 l 1149 982 l 891 982 l 680 570 l 671 570 l 460 982 "},"Ὕ":{"ha":709,"x_min":0,"x_max":0,"o":"m 513 982 l 872 332 l 1230 982 l 972 982 l 761 570 l 753 570 l 541 982 "},"Ὗ":{"ha":616,"x_min":0,"x_max":0,"o":"m 419 982 l 779 332 l 1137 982 l 879 982 l 667 570 l 659 570 l 448 982 "},"Ὺ":{"ha":441,"x_min":0,"x_max":0,"o":"m 244 982 l 604 332 l 962 982 l 704 982 l 492 570 l 484 570 l 273 982 "},"Ύ":{"ha":432,"x_min":0,"x_max":0,"o":"m 235 982 l 594 332 l 952 982 l 694 982 l 483 570 l 475 570 l 263 982 "},"Ῠ":{"ha":0,"x_min":0,"x_max":0,"o":""},"Ῡ":{"ha":0,"x_min":0,"x_max":0,"o":""},"Ὠ":{"ha":0,"x_min":0,"x_max":0,"o":""},"Ὡ":{"ha":334,"x_min":0,"x_max":0,"o":""},"Ὢ":{"ha":0,"x_min":0,"x_max":0,"o":""},"Ὣ":{"ha":0,"x_min":0,"x_max":0,"o":""},"Ὤ":{"ha":0,"x_min":0,"x_max":0,"o":""},"Ὥ":{"ha":0,"x_min":0,"x_max":0,"o":""},"Ὦ":{"ha":0,"x_min":0,"x_max":0,"o":""},"Ὧ":{"ha":0,"x_min":0,"x_max":0,"o":""},"Ὼ":{"ha":332,"x_min":0,"x_max":0,"o":"m 180 0 "},"Ώ":{"ha":262,"x_min":0,"x_max":0,"o":"m 113 0 "},"ῼ":{"ha":205,"x_min":0,"x_max":0,"o":""},"ᾨ":{"ha":0,"x_min":0,"x_max":0,"o":""},"ᾩ":{"ha":334,"x_min":0,"x_max":0,"o":""},"ᾪ":{"ha":536,"x_min":0,"x_max":0,"o":""},"ᾫ":{"ha":0,"x_min":0,"x_max":0,"o":""},"ᾬ":{"ha":0,"x_min":0,"x_max":0,"o":""},"ᾭ":{"ha":0,"x_min":0,"x_max":0,"o":""},"ᾮ":{"ha":0,"x_min":0,"x_max":0,"o":""},"ᾯ":{"ha":0,"x_min":0,"x_max":0,"o":""},"Ϳ":{"ha":0,"x_min":0,"x_max":0,"o":""},"α":{"ha":0,"x_min":0,"x_max":0,"o":""},"β":{"ha":-22,"x_min":0,"x_max":0,"o":"m 414 996 b 73 684 225 996 73 878 l 73 -277 l 293 -277 l 293 43 l 300 46 b 483 -9 355 7 418 -9 b 785 281 650 -9 785 109 b 652 522 785 382 738 470 b 743 731 711 577 743 655 b 414 996 743 902 582 996 z m 293 319 l 293 669 b 414 798 294 754 343 798 b 522 690 483 798 522 754 b 410 581 522 644 500 581 l 369 581 l 369 420 l 425 420 b 567 302 499 420 567 382 b 433 179 567 233 514 179 b 293 319 345 179 294 243 z "},"γ":{"ha":0,"x_min":0,"x_max":0,"o":""},"δ":{"ha":71,"x_min":0,"x_max":0,"o":"m 184 821 b 311 643 186 749 228 690 l 312 640 b 102 349 191 609 100 488 l 102 336 b 461 -14 100 129 243 -14 b 818 350 677 -14 818 136 l 818 363 b 484 749 818 548 709 674 b 392 817 415 772 392 793 b 494 863 392 848 423 863 b 651 836 553 863 613 850 l 651 998 b 473 1027 587 1017 534 1027 b 184 821 297 1027 184 945 z m 320 365 l 320 376 b 461 567 320 486 372 567 b 600 376 541 552 598 467 l 600 365 b 461 161 598 244 549 161 b 320 365 370 161 320 244 z "},"ε":{"ha":0,"x_min":0,"x_max":0,"o":""},"ζ":{"ha":-96,"x_min":0,"x_max":0,"o":"m 696 982 l 45 982 l 45 795 l 400 795 l 278 646 b 96 252 160 500 96 422 b 343 3 96 127 182 41 l 389 -9 b 457 -71 434 -20 458 -42 b 396 -178 456 -99 438 -137 l 507 -259 b 678 -24 618 -187 678 -106 b 473 159 678 57 608 122 l 430 171 b 312 292 353 193 312 235 b 444 555 312 373 358 450 l 696 861 z "},"η":{"ha":1,"x_min":0,"x_max":0,"o":""},"θ":{"ha":74,"x_min":0,"x_max":0,"o":"m 806 400 l 806 582 b 461 997 804 863 662 997 b 117 582 256 997 115 861 l 117 400 b 463 -14 115 118 258 -14 b 806 400 665 -14 804 118 z m 585 613 l 585 576 l 338 576 l 338 613 b 461 817 336 755 376 817 b 585 613 537 817 585 766 z m 338 373 l 338 410 l 585 410 l 585 373 b 463 168 585 213 537 168 b 338 373 377 168 336 225 z "},"ɩ":{"ha":-398,"x_min":0,"x_max":0,"o":""},"ι":{"ha":-398,"x_min":0,"x_max":0,"o":""},"κ":{"ha":0,"x_min":0,"x_max":0,"o":""},"λ":{"ha":-24,"x_min":0,"x_max":0,"o":"m 707 -12 b 796 -1 738 -12 777 -7 l 780 163 b 761 161 774 161 768 161 b 689 244 727 161 715 180 l 472 812 b 203 996 427 930 331 996 b 88 975 161 996 127 989 l 138 800 b 278 738 222 826 247 814 l 294 699 l 27 0 l 260 0 l 400 404 l 411 404 l 509 119 b 707 -12 544 34 614 -12 z "},"μ":{"ha":64,"x_min":0,"x_max":0,"o":""},"ν":{"ha":25,"x_min":0,"x_max":0,"o":"m 305 0 l 521 0 b 806 736 700 212 799 473 l 585 736 b 441 221 572 518 545 393 l 433 221 l 263 736 l 27 736 z "},"ξ":{"ha":-63,"x_min":0,"x_max":0,"o":"m 639 789 l 673 959 b 469 996 605 983 540 996 b 132 738 262 996 132 898 b 264 552 132 646 174 585 b 68 293 134 510 68 423 b 286 41 68 160 130 88 l 430 -9 b 496 -73 473 -22 496 -45 b 435 -179 496 -100 475 -141 l 545 -259 b 716 -14 642 -197 715 -99 b 526 156 716 65 661 126 l 448 172 b 289 319 334 198 289 241 b 494 463 289 412 362 463 l 590 463 l 590 647 l 487 647 b 351 732 397 647 351 673 b 483 814 351 787 397 814 b 639 789 530 814 575 807 z "},"ο":{"ha":-17,"x_min":0,"x_max":0,"o":""},"π":{"ha":196,"x_min":0,"x_max":0,"o":"m 940 736 l 94 736 l 94 574 l 214 574 l 214 0 l 435 0 l 435 574 l 598 574 l 598 213 b 823 -8 598 57 684 -8 b 952 12 871 -8 914 0 l 952 174 b 894 172 936 174 917 172 b 818 244 838 172 818 187 l 818 574 l 940 574 z "},"ρ":{"ha":-45,"x_min":0,"x_max":0,"o":"m 73 392 "},"ς":{"ha":-63,"x_min":0,"x_max":0,"o":"m 412 746 b 64 365 194 746 64 602 l 64 349 b 368 4 64 163 152 62 b 430 -57 414 -7 430 -28 b 366 -165 430 -91 406 -127 l 481 -247 b 648 0 575 -179 648 -98 b 437 170 648 71 609 122 b 283 349 319 203 283 244 l 283 365 b 412 571 283 500 327 571 b 514 439 480 571 514 529 l 720 439 b 412 746 720 632 604 746 z "},"σ":{"ha":68,"x_min":0,"x_max":0,"o":"m 83 365 l 83 349 b 441 -14 84 142 210 -14 b 780 323 658 -14 781 129 l 780 336 b 670 538 781 416 732 489 l 831 538 l 831 713 l 438 713 b 83 365 209 713 84 563 z m 305 349 l 305 365 b 438 538 305 458 339 538 b 559 365 532 538 559 458 l 559 349 b 441 161 559 244 532 161 b 305 349 336 161 305 244 z "},"τ":{"ha":-64,"x_min":0,"x_max":0,"o":"m 736 736 l 50 736 l 50 563 l 273 563 l 273 235 b 514 -14 273 71 362 -14 b 642 3 567 -14 601 -9 l 624 171 b 555 164 600 167 587 164 b 494 236 514 164 494 184 l 494 563 l 736 563 z "},"υ":{"ha":-55,"x_min":0,"x_max":0,"o":""},"φ":{"ha":326,"x_min":0,"x_max":0,"o":"m 477 533 l 477 174 b 312 401 347 203 312 290 b 395 639 313 502 343 581 l 239 746 b 91 401 161 684 91 562 b 477 -5 91 210 189 31 l 477 -277 l 688 -277 l 688 -9 b 1082 376 982 20 1082 191 b 727 746 1082 601 939 746 b 477 533 574 746 477 667 z m 688 168 l 688 495 b 746 572 688 541 708 572 b 864 376 817 572 863 492 b 688 168 864 266 817 191 z "},"χ":{"ha":-12,"x_min":0,"x_max":0,"o":"m 34 -277 l 262 -277 l 425 24 l 505 -125 b 774 -277 570 -244 628 -277 l 822 -277 l 822 -104 l 774 -104 b 686 -43 724 -104 718 -100 l 540 229 l 818 736 l 590 736 l 426 438 l 346 586 b 76 739 282 705 221 739 l 27 739 l 27 567 l 76 567 b 164 503 127 567 132 564 l 313 233 z "},"ψ":{"ha":0,"x_min":0,"x_max":0,"o":""},"ω":{"ha":455,"x_min":0,"x_max":0,"o":""},"ί":{"ha":0,"x_min":0,"x_max":0,"o":""},"ϊ":{"ha":0,"x_min":0,"x_max":0,"o":""},"ΐ":{"ha":0,"x_min":0,"x_max":0,"o":""},"ύ":{"ha":0,"x_min":0,"x_max":0,"o":""},"ϋ":{"ha":0,"x_min":0,"x_max":0,"o":""},"ΰ":{"ha":0,"x_min":0,"x_max":0,"o":""},"ό":{"ha":0,"x_min":0,"x_max":0,"o":""},"ώ":{"ha":0,"x_min":0,"x_max":0,"o":""},"ά":{"ha":0,"x_min":0,"x_max":0,"o":""},"έ":{"ha":0,"x_min":0,"x_max":0,"o":""},"ή":{"ha":0,"x_min":0,"x_max":0,"o":""},"ͱ":{"ha":-64,"x_min":0,"x_max":0,"o":"m 441 0 l 441 262 l 734 262 l 734 437 l 441 437 l 441 509 b 167 746 441 718 294 746 b 49 736 118 746 81 742 l 49 590 b 104 594 68 593 83 594 b 220 509 155 594 220 579 l 220 0 z "},"ͳ":{"ha":63,"x_min":0,"x_max":0,"o":"m 848 982 l 64 982 l 64 612 l 240 612 l 240 806 l 346 806 l 346 0 l 567 0 l 567 806 l 670 806 l 670 612 l 848 612 z "},"ͷ":{"ha":68,"x_min":0,"x_max":0,"o":"m 309 0 l 526 429 l 526 247 b 739 -14 526 72 609 -14 b 826 0 770 -14 796 -11 l 807 165 b 795 163 804 163 802 163 b 749 247 761 163 749 189 l 749 736 l 526 736 l 309 308 l 309 736 l 88 736 l 88 0 z "},"ͻ":{"ha":0,"x_min":0,"x_max":0,"o":""},"ͼ":{"ha":-63,"x_min":0,"x_max":0,"o":"m 320 361 b 416 271 320 311 361 271 b 515 361 476 271 515 309 b 416 449 515 412 477 449 b 320 361 361 449 320 412 z m 410 -14 b 720 267 582 -14 720 91 l 514 267 b 406 164 513 197 471 164 b 285 359 294 164 285 264 l 285 374 b 404 571 285 467 294 571 b 514 449 479 571 513 518 l 720 449 b 408 746 720 642 593 746 b 64 374 180 746 64 590 l 64 359 b 410 -14 64 142 180 -14 z "},"ͽ":{"ha":-63,"x_min":0,"x_max":0,"o":"m 270 255 l 64 255 b 376 -14 62 91 191 -14 b 720 359 604 -14 720 144 l 720 374 b 374 746 720 591 604 746 b 64 438 201 746 62 642 l 270 438 b 378 570 271 536 312 570 b 499 374 490 570 499 468 l 499 359 b 380 161 499 266 490 161 b 270 255 305 161 271 214 z m 366 259 b 464 349 423 259 463 297 b 366 438 464 397 423 438 b 269 349 308 438 267 399 b 366 259 269 297 307 259 z "},"ϙ":{"ha":-31,"x_min":0,"x_max":0,"o":"m 408 168 b 266 369 305 168 266 247 b 408 567 266 488 305 567 b 552 369 513 567 552 490 b 408 168 552 247 513 168 z m 49 369 b 300 1 49 185 141 44 l 300 -275 l 518 -275 l 518 1 b 769 369 677 45 769 185 b 408 746 769 590 633 746 b 49 369 184 746 49 590 z "},"ϛ":{"ha":-62,"x_min":0,"x_max":0,"o":"m 422 -100 l 422 -267 b 731 -50 579 -266 730 -229 b 595 137 730 60 673 111 l 458 176 b 275 374 350 208 275 251 l 275 408 b 395 571 275 503 296 571 b 505 439 468 571 503 518 l 711 439 b 399 746 711 642 582 746 b 54 404 168 746 54 595 l 54 370 b 315 35 54 153 174 83 l 467 -12 b 510 -52 498 -19 510 -34 b 422 -100 510 -85 477 -100 z "},"ϝ":{"ha":-60,"x_min":0,"x_max":0,"o":"m 700 736 l 90 736 l 90 -274 l 309 -274 l 309 220 l 464 220 l 464 88 l 640 88 l 640 396 l 309 396 l 309 562 l 700 562 z "},"ϟ":{"ha":68,"x_min":0,"x_max":0,"o":"m 821 567 l 369 567 l 559 983 l 319 983 l 99 530 l 99 392 l 562 392 l 381 0 l 621 0 l 821 438 z "},"ϡ":{"ha":188,"x_min":0,"x_max":0,"o":"m 255 1044 l 50 933 b 517 644 254 850 406 759 l 102 412 l 191 259 l 625 503 b 685 385 647 466 667 427 l 247 140 l 336 -14 l 738 213 b 783 -288 770 72 783 -92 l 987 -180 b 255 1044 987 448 837 815 z "},"ϗ":{"ha":192,"x_min":0,"x_max":0,"o":"m 315 0 l 646 431 b 681 252 652 355 665 300 b 787 -18 723 119 787 57 b 659 -100 787 -69 753 -100 b 631 -98 652 -100 642 -100 l 631 -258 b 722 -263 665 -262 696 -263 b 977 -47 932 -263 977 -117 b 836 342 977 99 894 170 b 796 627 810 414 798 506 l 880 736 b 959 524 880 704 993 524 b 905 491 909 524 905 518 l 905 336 b 959 340 922 338 941 340 b 1051 266 1006 340 1051 326 l 1051 -176 l 998 -245 z "},"ϐ":{"ha":71,"x_min":0,"x_max":0,"o":"m 515 605 b 283 525 425 605 347 582 b 301 675 283 576 290 628 b 496 646 377 654 441 646 b 769 840 678 646 769 739 b 518 1027 769 941 688 1027 b 104 475 281 1027 104 830 l 104 438 b 473 -14 104 140 231 -14 b 814 300 688 -14 814 126 b 515 605 814 481 704 605 z m 460 429 b 595 300 548 429 595 388 b 460 161 595 213 549 161 b 323 300 372 161 323 213 b 460 429 323 389 378 429 z m 361 803 b 487 868 392 843 434 868 b 566 821 536 868 566 850 b 480 781 566 793 526 781 b 361 803 444 781 399 790 z "},"ϑ":{"ha":67,"x_min":0,"x_max":0,"o":"m 838 368 l 831 555 l 768 545 l 768 703 b 507 996 768 886 669 996 b 232 715 342 996 232 884 l 232 690 b 534 347 232 515 353 385 l 534 308 b 411 168 534 222 486 168 b 283 308 336 168 283 224 l 283 446 l 77 446 l 77 308 b 419 -14 76 123 216 -14 b 768 308 617 -14 768 115 l 768 351 z m 438 703 l 438 731 b 487 799 439 776 457 799 b 534 731 517 799 534 776 l 534 552 b 438 703 471 578 436 631 z "},"ϕ":{"ha":249,"x_min":0,"x_max":0,"o":"m 444 -277 l 654 -277 l 654 -9 b 1031 369 895 12 1032 157 b 654 745 1032 576 894 720 l 654 997 l 444 997 l 444 745 b 65 369 203 720 65 576 b 444 -9 65 157 201 13 z m 286 369 b 444 604 286 492 346 581 l 444 130 b 286 369 346 153 286 244 z m 654 130 l 654 604 b 810 369 752 581 811 492 b 654 130 811 244 752 152 z "},"ϖ":{"ha":456,"x_min":0,"x_max":0,"o":"m 1244 736 l 60 736 l 60 589 l 163 589 b 122 363 137 518 123 442 b 423 -14 121 110 239 -14 b 652 123 533 -14 608 37 b 880 -14 696 37 771 -14 b 1181 363 1065 -14 1183 110 b 1141 589 1181 442 1166 518 l 1244 589 z m 339 366 b 381 589 339 435 353 509 l 924 589 b 964 366 951 509 964 435 b 864 164 964 241 929 164 b 769 331 807 164 769 222 l 769 463 l 534 463 l 534 331 b 439 164 534 222 496 164 b 339 366 374 164 339 241 z "},"ϰ":{"ha":195,"x_min":0,"x_max":0,"o":"m 171 0 l 330 0 l 642 407 l 642 222 b 853 -14 642 115 663 -14 b 966 -3 887 -14 939 -9 l 966 152 b 913 148 947 149 926 148 b 818 221 857 148 818 164 l 818 637 l 894 736 b 970 525 894 707 1006 525 b 916 494 920 525 916 519 l 917 339 b 970 343 933 340 951 343 b 1062 269 1016 343 1062 328 l 1065 -171 z "},"ϱ":{"ha":71,"x_min":0,"x_max":0,"o":"m 567 -315 l 743 -315 b 477 -72 743 -187 689 -111 b 288 117 370 -52 311 8 b 500 39 349 62 418 39 b 814 377 704 39 814 184 l 814 399 b 460 746 814 605 689 746 b 104 355 233 746 106 589 l 104 336 l 104 335 l 104 327 b 438 -237 104 -22 228 -191 b 567 -315 538 -260 567 -273 z m 460 216 b 324 377 357 216 324 293 l 324 399 b 460 571 324 495 354 571 b 595 399 570 571 595 488 l 595 377 b 460 216 595 290 563 216 z "},"ϲ":{"ha":-48,"x_min":0,"x_max":0,"o":""},"ϳ":{"ha":0,"x_min":0,"x_max":0,"o":""},"ϵ":{"ha":-191,"x_min":0,"x_max":0,"o":"m 403 163 b 279 286 319 163 290 221 l 521 286 l 521 437 l 279 437 b 403 562 290 515 324 562 l 605 562 l 605 736 l 403 736 b 54 370 174 736 54 579 l 54 353 b 403 -14 54 142 174 -14 l 605 -14 l 605 163 z "},"ϸ":{"ha":0,"x_min":0,"x_max":0,"o":""},"ϻ":{"ha":192,"x_min":0,"x_max":0,"o":"m 515 250 l 342 736 l 72 736 l 72 -274 l 293 -274 l 293 407 l 445 0 l 591 0 l 749 422 l 749 0 l 970 0 l 970 736 l 693 736 z "},"ϼ":{"ha":-45,"x_min":0,"x_max":0,"o":"m 73 392 "},"ἀ":{"ha":0,"x_min":0,"x_max":0,"o":""},"ἁ":{"ha":0,"x_min":0,"x_max":0,"o":""},"ἂ":{"ha":0,"x_min":0,"x_max":0,"o":""},"ἃ":{"ha":0,"x_min":0,"x_max":0,"o":""},"ἄ":{"ha":0,"x_min":0,"x_max":0,"o":""},"ἅ":{"ha":0,"x_min":0,"x_max":0,"o":""},"ἆ":{"ha":0,"x_min":0,"x_max":0,"o":""},"ἇ":{"ha":0,"x_min":0,"x_max":0,"o":""},"ὰ":{"ha":0,"x_min":0,"x_max":0,"o":""},"ά":{"ha":0,"x_min":0,"x_max":0,"o":""},"ᾶ":{"ha":0,"x_min":0,"x_max":0,"o":""},"ᾰ":{"ha":0,"x_min":0,"x_max":0,"o":""},"ᾱ":{"ha":0,"x_min":0,"x_max":0,"o":""},"ᾳ":{"ha":0,"x_min":0,"x_max":0,"o":""},"ᾲ":{"ha":0,"x_min":0,"x_max":0,"o":""},"ᾴ":{"ha":0,"x_min":0,"x_max":0,"o":""},"ᾀ":{"ha":0,"x_min":0,"x_max":0,"o":""},"ᾁ":{"ha":0,"x_min":0,"x_max":0,"o":""},"ᾂ":{"ha":0,"x_min":0,"x_max":0,"o":""},"ᾃ":{"ha":0,"x_min":0,"x_max":0,"o":""},"ᾄ":{"ha":0,"x_min":0,"x_max":0,"o":""},"ᾅ":{"ha":0,"x_min":0,"x_max":0,"o":""},"ᾆ":{"ha":0,"x_min":0,"x_max":0,"o":""},"ᾇ":{"ha":0,"x_min":0,"x_max":0,"o":""},"ᾷ":{"ha":0,"x_min":0,"x_max":0,"o":""},"ἐ":{"ha":0,"x_min":0,"x_max":0,"o":""},"ἑ":{"ha":0,"x_min":0,"x_max":0,"o":""},"ἒ":{"ha":0,"x_min":0,"x_max":0,"o":""},"ἓ":{"ha":0,"x_min":0,"x_max":0,"o":""},"ἔ":{"ha":0,"x_min":0,"x_max":0,"o":""},"ἕ":{"ha":0,"x_min":0,"x_max":0,"o":""},"ὲ":{"ha":0,"x_min":0,"x_max":0,"o":""},"έ":{"ha":0,"x_min":0,"x_max":0,"o":""},"ἠ":{"ha":0,"x_min":0,"x_max":0,"o":""},"ἡ":{"ha":1,"x_min":0,"x_max":0,"o":""},"ἢ":{"ha":0,"x_min":0,"x_max":0,"o":""},"ἣ":{"ha":0,"x_min":0,"x_max":0,"o":""},"ἤ":{"ha":0,"x_min":0,"x_max":0,"o":""},"ἥ":{"ha":0,"x_min":0,"x_max":0,"o":""},"ἦ":{"ha":0,"x_min":0,"x_max":0,"o":""},"ἧ":{"ha":0,"x_min":0,"x_max":0,"o":""},"ὴ":{"ha":0,"x_min":0,"x_max":0,"o":""},"ή":{"ha":0,"x_min":0,"x_max":0,"o":""},"ῆ":{"ha":0,"x_min":0,"x_max":0,"o":""},"ῃ":{"ha":1,"x_min":0,"x_max":0,"o":""},"ῂ":{"ha":0,"x_min":0,"x_max":0,"o":""},"ῄ":{"ha":0,"x_min":0,"x_max":0,"o":""},"ᾐ":{"ha":0,"x_min":0,"x_max":0,"o":""},"ᾑ":{"ha":1,"x_min":0,"x_max":0,"o":""},"ᾒ":{"ha":0,"x_min":0,"x_max":0,"o":""},"ᾓ":{"ha":0,"x_min":0,"x_max":0,"o":""},"ᾔ":{"ha":0,"x_min":0,"x_max":0,"o":""},"ᾕ":{"ha":0,"x_min":0,"x_max":0,"o":""},"ᾖ":{"ha":0,"x_min":0,"x_max":0,"o":""},"ᾗ":{"ha":0,"x_min":0,"x_max":0,"o":""},"ῇ":{"ha":0,"x_min":0,"x_max":0,"o":""},"ἰ":{"ha":0,"x_min":0,"x_max":0,"o":""},"ἱ":{"ha":-398,"x_min":0,"x_max":0,"o":""},"ἲ":{"ha":0,"x_min":0,"x_max":0,"o":""},"ἳ":{"ha":0,"x_min":0,"x_max":0,"o":""},"ἴ":{"ha":0,"x_min":0,"x_max":0,"o":""},"ἵ":{"ha":0,"x_min":0,"x_max":0,"o":""},"ἶ":{"ha":0,"x_min":0,"x_max":0,"o":""},"ἷ":{"ha":0,"x_min":0,"x_max":0,"o":""},"ὶ":{"ha":0,"x_min":0,"x_max":0,"o":""},"ί":{"ha":0,"x_min":0,"x_max":0,"o":""},"ῖ":{"ha":0,"x_min":0,"x_max":0,"o":""},"ῐ":{"ha":0,"x_min":0,"x_max":0,"o":""},"ῑ":{"ha":0,"x_min":0,"x_max":0,"o":""},"ῒ":{"ha":0,"x_min":0,"x_max":0,"o":""},"ΐ":{"ha":-398,"x_min":0,"x_max":0,"o":"m -122 94 l -503 94 l -503 317 l -389 317 l -293 437 l -444 437 z "},"ῗ":{"ha":0,"x_min":0,"x_max":0,"o":""},"ὀ":{"ha":0,"x_min":0,"x_max":0,"o":""},"ὁ":{"ha":-17,"x_min":0,"x_max":0,"o":""},"ὂ":{"ha":0,"x_min":0,"x_max":0,"o":""},"ὃ":{"ha":0,"x_min":0,"x_max":0,"o":""},"ὄ":{"ha":0,"x_min":0,"x_max":0,"o":""},"ὅ":{"ha":0,"x_min":0,"x_max":0,"o":""},"ὸ":{"ha":0,"x_min":0,"x_max":0,"o":""},"ό":{"ha":0,"x_min":0,"x_max":0,"o":""},"ῤ":{"ha":0,"x_min":0,"x_max":0,"o":""},"ῥ":{"ha":-45,"x_min":0,"x_max":0,"o":"m -11 -712 l -11 -481 l 598 -481 l 598 -467 b 715 -275 598 -358 629 -275 b 838 -471 810 -275 838 -368 l 838 -484 b 718 -670 838 -572 818 -670 b 598 -481 618 -670 600 -571 z "},"ὐ":{"ha":0,"x_min":0,"x_max":0,"o":""},"ὑ":{"ha":-55,"x_min":0,"x_max":0,"o":""},"ὒ":{"ha":0,"x_min":0,"x_max":0,"o":""},"ὓ":{"ha":0,"x_min":0,"x_max":0,"o":""},"ὔ":{"ha":0,"x_min":0,"x_max":0,"o":""},"ὕ":{"ha":0,"x_min":0,"x_max":0,"o":""},"ὖ":{"ha":0,"x_min":0,"x_max":0,"o":""},"ὗ":{"ha":0,"x_min":0,"x_max":0,"o":""},"ὺ":{"ha":0,"x_min":0,"x_max":0,"o":""},"ύ":{"ha":0,"x_min":0,"x_max":0,"o":""},"ῦ":{"ha":0,"x_min":0,"x_max":0,"o":""},"ῠ":{"ha":0,"x_min":0,"x_max":0,"o":""},"ῡ":{"ha":0,"x_min":0,"x_max":0,"o":""},"ῢ":{"ha":0,"x_min":0,"x_max":0,"o":""},"ΰ":{"ha":-55,"x_min":0,"x_max":0,"o":"m -122 94 l -305 94 l -305 317 l -191 317 l -95 437 l -245 437 z "},"ῧ":{"ha":0,"x_min":0,"x_max":0,"o":""},"ὠ":{"ha":0,"x_min":0,"x_max":0,"o":""},"ὡ":{"ha":455,"x_min":0,"x_max":0,"o":""},"ὢ":{"ha":0,"x_min":0,"x_max":0,"o":""},"ὣ":{"ha":0,"x_min":0,"x_max":0,"o":""},"ὤ":{"ha":0,"x_min":0,"x_max":0,"o":""},"ὥ":{"ha":0,"x_min":0,"x_max":0,"o":""},"ὦ":{"ha":0,"x_min":0,"x_max":0,"o":""},"ὧ":{"ha":0,"x_min":0,"x_max":0,"o":""},"ὼ":{"ha":0,"x_min":0,"x_max":0,"o":""},"ώ":{"ha":0,"x_min":0,"x_max":0,"o":""},"ῶ":{"ha":0,"x_min":0,"x_max":0,"o":""},"ῳ":{"ha":455,"x_min":0,"x_max":0,"o":""},"ῲ":{"ha":0,"x_min":0,"x_max":0,"o":""},"ῴ":{"ha":0,"x_min":0,"x_max":0,"o":""},"ᾠ":{"ha":0,"x_min":0,"x_max":0,"o":""},"ᾡ":{"ha":455,"x_min":0,"x_max":0,"o":""},"ᾢ":{"ha":0,"x_min":0,"x_max":0,"o":""},"ᾣ":{"ha":0,"x_min":0,"x_max":0,"o":""},"ᾤ":{"ha":0,"x_min":0,"x_max":0,"o":""},"ᾥ":{"ha":0,"x_min":0,"x_max":0,"o":""},"ᾦ":{"ha":0,"x_min":0,"x_max":0,"o":""},"ᾧ":{"ha":0,"x_min":0,"x_max":0,"o":""},"ῷ":{"ha":0,"x_min":0,"x_max":0,"o":""},"ι":{"ha":-440,"x_min":0,"x_max":0,"o":""},"ͺ":{"ha":-440,"x_min":0,"x_max":0,"o":""},"ㄱ":{"ha":0,"x_min":0,"x_max":0,"o":"m 1000 838 l 202 838 l 202 682 l 806 682 l 806 164 l 1000 164 z "},"ﾡ":{"ha":0,"x_min":0,"x_max":0,"o":"m 1000 838 l 202 838 l 202 682 l 806 682 l 806 164 l 1000 164 z "},"ㄲ":{"ha":0,"x_min":0,"x_max":0,"o":"m 583 838 l 117 838 l 117 682 l 393 682 l 393 164 l 583 164 z m 1082 841 l 640 841 l 640 685 l 888 685 l 888 164 l 1082 164 z "},"ﾢ":{"ha":0,"x_min":0,"x_max":0,"o":"m 583 838 l 117 838 l 117 682 l 393 682 l 393 164 l 583 164 z m 1082 841 l 640 841 l 640 685 l 888 685 l 888 164 l 1082 164 z "},"ㄳ":{"ha":0,"x_min":0,"x_max":0,"o":"m 552 836 l 121 836 l 121 680 l 361 680 l 361 164 l 552 164 l 552 236 l 614 151 b 829 347 720 191 787 259 b 1042 151 869 259 937 191 l 1143 290 b 922 628 975 346 922 481 l 922 846 l 736 846 l 736 628 b 552 305 736 494 691 368 z "},"ﾣ":{"ha":0,"x_min":0,"x_max":0,"o":"m 552 836 l 121 836 l 121 680 l 361 680 l 361 164 l 552 164 l 552 236 l 614 151 b 829 347 720 191 787 259 b 1042 151 869 259 937 191 l 1143 290 b 922 628 975 346 922 481 l 922 846 l 736 846 l 736 628 b 552 305 736 494 691 368 z "},"ㄴ":{"ha":0,"x_min":0,"x_max":0,"o":"m 1010 340 l 397 340 l 397 838 l 201 838 l 201 186 l 1010 186 z "},"ﾤ":{"ha":0,"x_min":0,"x_max":0,"o":"m 1010 340 l 397 340 l 397 838 l 201 838 l 201 186 l 1010 186 z "},"ㄵ":{"ha":0,"x_min":0,"x_max":0,"o":"m 327 840 l 130 840 l 130 146 l 203 146 b 549 174 346 146 439 148 l 545 210 l 600 141 b 796 351 696 186 758 259 b 1002 138 836 257 901 183 l 1109 281 b 887 669 937 349 887 502 l 887 685 l 1055 685 l 1055 837 l 540 837 l 540 685 l 704 685 l 704 669 b 534 304 704 518 667 378 l 532 327 b 327 304 464 313 400 306 z "},"ﾥ":{"ha":0,"x_min":0,"x_max":0,"o":"m 327 840 l 130 840 l 130 146 l 203 146 b 549 174 346 146 439 148 l 545 210 l 600 141 b 796 351 696 186 758 259 b 1002 138 836 257 901 183 l 1109 281 b 887 669 937 349 887 502 l 887 685 l 1055 685 l 1055 837 l 540 837 l 540 685 l 704 685 l 704 669 b 534 304 704 518 667 378 l 532 327 b 327 304 464 313 400 306 z "},"ㄶ":{"ha":0,"x_min":0,"x_max":0,"o":"m 320 823 l 127 823 l 127 159 l 203 159 b 549 184 343 157 439 159 l 532 338 b 320 315 462 323 397 316 z m 1070 754 l 898 754 l 898 856 l 709 856 l 709 754 l 519 754 l 519 600 l 1070 600 z m 799 574 b 564 349 667 574 564 477 b 799 122 564 217 667 122 b 1029 349 928 122 1029 217 b 799 574 1029 477 928 574 z m 799 423 b 869 349 837 422 868 400 b 799 273 868 296 837 273 b 728 349 760 273 728 296 b 799 423 728 400 760 422 z "},"ﾦ":{"ha":0,"x_min":0,"x_max":0,"o":"m 320 823 l 127 823 l 127 159 l 203 159 b 549 184 343 157 439 159 l 532 338 b 320 315 462 323 397 316 z m 1070 754 l 898 754 l 898 856 l 709 856 l 709 754 l 519 754 l 519 600 l 1070 600 z m 799 574 b 564 349 667 574 564 477 b 799 122 564 217 667 122 b 1029 349 928 122 1029 217 b 799 574 1029 477 928 574 z m 799 423 b 869 349 837 422 868 400 b 799 273 868 296 837 273 b 728 349 760 273 728 296 b 799 423 728 400 760 422 z "},"ㄷ":{"ha":0,"x_min":0,"x_max":0,"o":"m 991 842 l 205 842 l 205 165 l 1002 165 l 1002 317 l 401 317 l 401 688 l 991 688 z "},"ﾧ":{"ha":0,"x_min":0,"x_max":0,"o":"m 991 842 l 205 842 l 205 165 l 1002 165 l 1002 317 l 401 317 l 401 688 l 991 688 z "},"ㄸ":{"ha":0,"x_min":0,"x_max":0,"o":"m 563 842 l 149 842 l 149 179 l 225 179 b 586 209 373 179 472 184 l 571 366 b 340 342 494 350 425 344 l 340 688 l 563 688 z m 1047 842 l 640 842 l 640 179 l 1055 179 l 1055 335 l 831 335 l 831 688 l 1047 688 z "},"ﾨ":{"ha":0,"x_min":0,"x_max":0,"o":"m 563 842 l 149 842 l 149 179 l 225 179 b 586 209 373 179 472 184 l 571 366 b 340 342 494 350 425 344 l 340 688 l 563 688 z m 1047 842 l 640 842 l 640 179 l 1055 179 l 1055 335 l 831 335 l 831 688 l 1047 688 z "},"ㄹ":{"ha":0,"x_min":0,"x_max":0,"o":"m 993 856 l 195 856 l 195 703 l 807 703 l 807 593 l 195 593 l 195 167 l 1012 167 l 1012 324 l 380 324 l 380 442 l 993 442 z "},"ﾩ":{"ha":0,"x_min":0,"x_max":0,"o":"m 993 856 l 195 856 l 195 703 l 807 703 l 807 593 l 195 593 l 195 167 l 1012 167 l 1012 324 l 380 324 l 380 442 l 993 442 z "},"ㄺ":{"ha":0,"x_min":0,"x_max":0,"o":"m 568 849 l 132 849 l 132 693 l 376 693 l 376 587 l 133 587 l 133 165 l 220 165 b 644 193 396 165 513 167 l 627 347 b 327 321 530 328 441 322 l 327 431 l 568 431 z m 1054 849 l 609 849 l 609 693 l 861 693 l 861 167 l 1054 167 z "},"ﾪ":{"ha":0,"x_min":0,"x_max":0,"o":"m 568 849 l 132 849 l 132 693 l 376 693 l 376 587 l 133 587 l 133 165 l 220 165 b 644 193 396 165 513 167 l 627 347 b 327 321 530 328 441 322 l 327 431 l 568 431 z m 1054 849 l 609 849 l 609 693 l 861 693 l 861 167 l 1054 167 z "},"ㄻ":{"ha":0,"x_min":0,"x_max":0,"o":"l -422 0 l -422 84 b -33 111 -263 84 -156 87 l -52 263 b -312 239 -140 245 -217 239 l -312 349 l -69 349 m 456 768 l -4 768 l -4 87 l 456 87 z m 167 613 l 286 613 l 286 241 l 167 241 z "},"ﾫ":{"ha":0,"x_min":0,"x_max":0,"o":"l -422 0 l -422 84 b -33 111 -263 84 -156 87 l -52 263 b -312 239 -140 245 -217 239 l -312 349 l -69 349 m 456 768 l -4 768 l -4 87 l 456 87 z m 167 613 l 286 613 l 286 241 l 167 241 z "},"ㄼ":{"ha":0,"x_min":0,"x_max":0,"o":"l -425 0 l -425 83 b -38 111 -264 83 -161 85 l -56 266 b -313 239 -142 247 -218 241 l -313 350 l -71 350 m 165 770 l -14 770 l -14 83 l 453 83 l 453 770 l 270 770 l 270 581 l 165 581 z m 165 241 l 165 423 l 270 423 l 270 241 z "},"ﾬ":{"ha":0,"x_min":0,"x_max":0,"o":"l -425 0 l -425 83 b -38 111 -264 83 -161 85 l -56 266 b -313 239 -142 247 -218 241 l -313 350 l -71 350 m 165 770 l -14 770 l -14 83 l 453 83 l 453 770 l 270 770 l 270 581 l 165 581 z m 165 241 l 165 423 l 270 423 l 270 241 z "},"ㄽ":{"ha":0,"x_min":0,"x_max":0,"o":"m 559 849 l 122 849 l 122 693 l 363 693 l 363 587 l 122 587 l 122 165 l 203 165 b 595 193 366 165 473 168 l 593 224 l 636 161 b 837 353 734 200 798 267 b 1038 161 876 267 939 200 l 1139 300 b 929 633 978 358 929 491 l 929 853 l 746 853 l 746 633 b 581 320 746 505 703 385 l 578 346 b 316 320 492 329 414 322 l 316 430 l 559 430 z "},"ﾭ":{"ha":0,"x_min":0,"x_max":0,"o":"m 559 849 l 122 849 l 122 693 l 363 693 l 363 587 l 122 587 l 122 165 l 203 165 b 595 193 366 165 473 168 l 593 224 l 636 161 b 837 353 734 200 798 267 b 1038 161 876 267 939 200 l 1139 300 b 929 633 978 358 929 491 l 929 853 l 746 853 l 746 633 b 581 320 746 505 703 385 l 578 346 b 316 320 492 329 414 322 l 316 430 l 559 430 z "},"ㄾ":{"ha":0,"x_min":0,"x_max":0,"o":"m 562 849 l 127 849 l 127 693 l 370 693 l 370 587 l 129 587 l 129 165 l 209 165 b 601 193 373 165 479 167 l 585 349 b 323 321 496 329 419 323 l 323 430 l 562 430 z m 1063 849 l 628 849 l 628 163 l 1076 163 l 1076 317 l 821 317 l 821 430 l 1050 430 l 1050 583 l 821 583 l 821 693 l 1063 693 z "},"ﾮ":{"ha":0,"x_min":0,"x_max":0,"o":"m 562 849 l 127 849 l 127 693 l 370 693 l 370 587 l 129 587 l 129 165 l 209 165 b 601 193 373 165 479 167 l 585 349 b 323 321 496 329 419 323 l 323 430 l 562 430 z m 1063 849 l 628 849 l 628 163 l 1076 163 l 1076 317 l 821 317 l 821 430 l 1050 430 l 1050 583 l 821 583 l 821 693 l 1063 693 z "},"ㄿ":{"ha":0,"x_min":0,"x_max":0,"o":"m 551 849 l 129 849 l 129 693 l 359 693 l 359 587 l 130 587 l 130 165 l 210 165 b 593 193 366 165 472 168 l 575 346 b 320 320 490 329 414 322 l 320 430 l 551 430 z m 1108 846 l 600 846 l 600 690 l 658 690 l 658 319 l 598 319 l 598 165 l 1108 165 l 1108 319 l 1053 319 l 1053 690 l 1108 690 z m 823 319 l 823 690 l 882 690 l 882 319 z "},"ﾯ":{"ha":0,"x_min":0,"x_max":0,"o":"m 551 849 l 129 849 l 129 693 l 359 693 l 359 587 l 130 587 l 130 165 l 210 165 b 593 193 366 165 472 168 l 575 346 b 320 320 490 329 414 322 l 320 430 l 551 430 z m 1108 846 l 600 846 l 600 690 l 658 690 l 658 319 l 598 319 l 598 165 l 1108 165 l 1108 319 l 1053 319 l 1053 690 l 1108 690 z m 823 319 l 823 690 l 882 690 l 882 319 z "},"ㅀ":{"ha":0,"x_min":0,"x_max":0,"o":"m 540 849 l 137 849 l 137 700 l 347 700 l 347 591 l 138 591 l 138 165 l 221 165 b 594 190 372 165 477 167 l 576 345 b 334 320 496 328 423 322 l 334 444 l 540 444 z m 1127 780 l 962 780 l 962 883 l 774 883 l 774 780 l 600 780 l 600 625 l 1127 625 z m 863 600 b 628 374 731 598 628 503 b 863 149 628 245 731 148 b 1092 374 993 148 1092 245 b 863 600 1092 503 993 598 z m 863 448 b 929 374 901 448 929 425 b 863 298 929 323 901 298 b 791 374 819 298 791 323 b 863 448 791 425 819 448 z "},"ﾰ":{"ha":0,"x_min":0,"x_max":0,"o":"m 540 849 l 137 849 l 137 700 l 347 700 l 347 591 l 138 591 l 138 165 l 221 165 b 594 190 372 165 477 167 l 576 345 b 334 320 496 328 423 322 l 334 444 l 540 444 z m 1127 780 l 962 780 l 962 883 l 774 883 l 774 780 l 600 780 l 600 625 l 1127 625 z m 863 600 b 628 374 731 598 628 503 b 863 149 628 245 731 148 b 1092 374 993 148 1092 245 b 863 600 1092 503 993 598 z m 863 448 b 929 374 901 448 929 425 b 863 298 929 323 901 298 b 791 374 819 298 791 323 b 863 448 791 425 819 448 z "},"ㅁ":{"ha":0,"x_min":0,"x_max":0,"o":"m 1002 834 l 202 834 l 202 175 l 1002 175 z m 397 680 l 807 680 l 807 330 l 397 330 z "},"ﾱ":{"ha":0,"x_min":0,"x_max":0,"o":"m 1002 834 l 202 834 l 202 175 l 1002 175 z m 397 680 l 807 680 l 807 330 l 397 330 z "},"ㅂ":{"ha":0,"x_min":0,"x_max":0,"o":"m 396 856 l 205 856 l 205 163 l 1002 163 l 1002 856 l 806 856 l 806 667 l 396 667 z m 396 332 l 396 498 l 806 498 l 806 332 z "},"ﾲ":{"ha":0,"x_min":0,"x_max":0,"o":"m 396 856 l 205 856 l 205 163 l 1002 163 l 1002 856 l 806 856 l 806 667 l 396 667 z m 396 332 l 396 498 l 806 498 l 806 332 z "},"ㅃ":{"ha":0,"x_min":0,"x_max":0,"o":"m 330 844 l 152 844 l 152 165 l 590 165 l 590 844 l 412 844 l 412 661 l 330 661 z m 330 324 l 330 503 l 412 503 l 412 324 z m 807 844 l 628 844 l 628 165 l 1069 165 l 1069 844 l 890 844 l 890 661 l 807 661 z m 807 324 l 807 503 l 890 503 l 890 324 z "},"ﾳ":{"ha":0,"x_min":0,"x_max":0,"o":"m 330 844 l 152 844 l 152 165 l 590 165 l 590 844 l 412 844 l 412 661 l 330 661 z m 330 324 l 330 503 l 412 503 l 412 324 z m 807 844 l 628 844 l 628 165 l 1069 165 l 1069 844 l 890 844 l 890 661 l 807 661 z m 807 324 l 807 503 l 890 503 l 890 324 z "},"ㅄ":{"ha":0,"x_min":0,"x_max":0,"o":"m 944 628 l 944 846 l 761 846 l 761 628 b 590 312 761 498 718 377 l 590 844 l 412 844 l 412 661 l 330 661 l 330 844 l 152 844 l 152 165 l 590 165 l 590 216 l 636 151 b 852 347 741 191 810 259 b 1067 151 893 259 961 191 l 1165 290 b 944 628 1000 346 943 481 z m 330 324 l 330 503 l 412 503 l 412 324 z "},"ﾴ":{"ha":0,"x_min":0,"x_max":0,"o":"m 944 628 l 944 846 l 761 846 l 761 628 b 590 312 761 498 718 377 l 590 844 l 412 844 l 412 661 l 330 661 l 330 844 l 152 844 l 152 165 l 590 165 l 590 216 l 636 151 b 852 347 741 191 810 259 b 1067 151 893 259 961 191 l 1165 290 b 944 628 1000 346 943 481 z m 330 324 l 330 503 l 412 503 l 412 324 z "},"ㅅ":{"ha":0,"x_min":0,"x_max":0,"o":"m 697 677 l 697 857 l 506 857 l 506 677 b 140 294 505 505 406 349 l 233 140 b 602 391 412 181 533 270 b 970 140 670 270 791 181 l 1062 294 b 697 677 796 349 697 505 z "},"ﾵ":{"ha":0,"x_min":0,"x_max":0,"o":"m 697 677 l 697 857 l 506 857 l 506 677 b 140 294 505 505 406 349 l 233 140 b 602 391 412 181 533 270 b 970 140 670 270 791 181 l 1062 294 b 697 677 796 349 697 505 z "},"ㅆ":{"ha":0,"x_min":0,"x_max":0,"o":"m 487 751 l 487 823 l 292 823 l 292 750 b 58 338 292 583 240 414 l 165 195 b 393 450 280 247 352 338 b 617 182 433 335 503 237 b 845 452 734 237 804 336 b 1073 195 886 339 957 248 l 1179 339 b 947 750 997 414 947 579 l 947 823 l 749 823 l 749 751 b 616 391 749 622 716 486 b 487 751 517 486 487 623 z "},"ﾶ":{"ha":0,"x_min":0,"x_max":0,"o":"m 487 751 l 487 823 l 292 823 l 292 750 b 58 338 292 583 240 414 l 165 195 b 393 450 280 247 352 338 b 617 182 433 335 503 237 b 845 452 734 237 804 336 b 1073 195 886 339 957 248 l 1179 339 b 947 750 997 414 947 579 l 947 823 l 749 823 l 749 751 b 616 391 749 622 716 486 b 487 751 517 486 487 623 z "},"ㅇ":{"ha":0,"x_min":0,"x_max":0,"o":"m 601 860 b 201 505 381 860 199 709 b 601 151 199 300 381 149 b 1005 505 822 149 1004 300 b 601 860 1004 709 822 860 z m 601 692 b 815 505 722 692 815 623 b 601 312 815 387 722 312 b 385 505 481 312 385 387 b 601 692 385 623 481 692 z "},"ﾷ":{"ha":0,"x_min":0,"x_max":0,"o":"m 601 860 b 201 505 381 860 199 709 b 601 151 199 300 381 149 b 1005 505 822 149 1004 300 b 601 860 1004 709 822 860 z m 601 692 b 815 505 722 692 815 623 b 601 312 815 387 722 312 b 385 505 481 312 385 387 b 601 692 385 623 481 692 z "},"ㅈ":{"ha":0,"x_min":0,"x_max":0,"o":"m 700 681 l 700 697 l 1010 697 l 1010 856 l 205 856 l 205 697 l 505 697 l 505 681 b 157 297 505 507 408 350 l 248 146 b 602 411 423 190 539 283 b 958 146 665 283 781 190 l 1047 297 b 700 681 795 350 700 507 z "},"ﾸ":{"ha":0,"x_min":0,"x_max":0,"o":"m 700 681 l 700 697 l 1010 697 l 1010 856 l 205 856 l 205 697 l 505 697 l 505 681 b 157 297 505 507 408 350 l 248 146 b 602 411 423 190 539 283 b 958 146 665 283 781 190 l 1047 297 b 700 681 795 350 700 507 z "},"ㅉ":{"ha":0,"x_min":0,"x_max":0,"o":"m 590 857 l 111 857 l 111 701 l 274 701 b 38 308 264 534 208 380 l 153 152 b 363 366 252 198 319 273 b 617 134 409 258 488 180 b 873 368 747 180 827 259 b 1084 152 917 274 984 199 l 1198 307 b 962 701 1028 382 971 534 l 1123 701 l 1123 857 l 644 857 l 644 701 l 768 701 b 618 347 760 541 724 417 b 469 701 512 417 475 541 l 590 701 z "},"ﾹ":{"ha":0,"x_min":0,"x_max":0,"o":"m 590 857 l 111 857 l 111 701 l 274 701 b 38 308 264 534 208 380 l 153 152 b 363 366 252 198 319 273 b 617 134 409 258 488 180 b 873 368 747 180 827 259 b 1084 152 917 274 984 199 l 1198 307 b 962 701 1028 382 971 534 l 1123 701 l 1123 857 l 644 857 l 644 701 l 768 701 b 618 347 760 541 724 417 b 469 701 512 417 475 541 l 590 701 z "},"ㅊ":{"ha":0,"x_min":0,"x_max":0,"o":"m 716 585 l 716 591 l 1009 591 l 1009 749 l 699 749 l 699 933 l 503 933 l 503 749 l 194 749 l 194 591 l 480 591 l 480 585 b 142 281 480 446 397 319 l 232 132 b 600 372 419 166 538 252 b 966 132 659 252 779 166 l 1054 281 b 716 585 800 319 716 446 z "},"ﾺ":{"ha":0,"x_min":0,"x_max":0,"o":"m 716 585 l 716 591 l 1009 591 l 1009 749 l 699 749 l 699 933 l 503 933 l 503 749 l 194 749 l 194 591 l 480 591 l 480 585 b 142 281 480 446 397 319 l 232 132 b 600 372 419 166 538 252 b 966 132 659 252 779 166 l 1054 281 b 716 585 800 319 716 446 z "},"ㅋ":{"ha":0,"x_min":0,"x_max":0,"o":"m 1013 854 l 225 854 l 225 699 l 815 699 l 815 555 l 190 526 l 212 359 l 815 403 l 815 152 l 1013 152 z "},"ﾻ":{"ha":0,"x_min":0,"x_max":0,"o":"m 1013 854 l 225 854 l 225 699 l 815 699 l 815 555 l 190 526 l 212 359 l 815 403 l 815 152 l 1013 152 z "},"ㅌ":{"ha":0,"x_min":0,"x_max":0,"o":"m 996 846 l 201 846 l 201 163 l 1008 163 l 1008 317 l 393 317 l 393 430 l 986 430 l 986 587 l 393 587 l 393 690 l 996 690 z "},"ﾼ":{"ha":0,"x_min":0,"x_max":0,"o":"m 996 846 l 201 846 l 201 163 l 1008 163 l 1008 317 l 393 317 l 393 430 l 986 430 l 986 587 l 393 587 l 393 690 l 996 690 z "},"ㅍ":{"ha":0,"x_min":0,"x_max":0,"o":"m 1010 846 l 194 846 l 194 690 l 308 690 l 308 307 l 176 307 l 176 151 l 1029 151 l 1029 307 l 902 307 l 902 690 l 1010 690 z m 503 307 l 503 690 l 707 690 l 707 307 z "},"ﾽ":{"ha":0,"x_min":0,"x_max":0,"o":"m 1010 846 l 194 846 l 194 690 l 308 690 l 308 307 l 176 307 l 176 151 l 1029 151 l 1029 307 l 902 307 l 902 690 l 1010 690 z m 503 307 l 503 690 l 707 690 l 707 307 z "},"ㅎ":{"ha":0,"x_min":0,"x_max":0,"o":"m 1017 806 l 704 806 l 704 955 l 509 955 l 509 806 l 189 806 l 189 646 l 1017 646 z m 605 590 b 273 342 412 590 273 486 b 605 94 273 197 412 95 b 940 342 798 95 939 197 b 605 590 939 486 798 590 z m 605 426 b 738 342 681 427 736 399 b 605 256 736 283 681 256 b 473 342 529 256 472 283 b 605 426 472 399 529 427 z "},"ﾾ":{"ha":0,"x_min":0,"x_max":0,"o":"m 1017 806 l 704 806 l 704 955 l 509 955 l 509 806 l 189 806 l 189 646 l 1017 646 z m 605 590 b 273 342 412 590 273 486 b 605 94 273 197 412 95 b 940 342 798 95 939 197 b 605 590 939 486 798 590 z m 605 426 b 738 342 681 427 736 399 b 605 256 736 283 681 256 b 473 342 529 256 472 283 b 605 426 472 399 529 427 z "},"ㅏ":{"ha":0,"x_min":0,"x_max":0,"o":"m 658 1105 l 464 1105 l 464 -126 l 658 -126 l 658 480 l 907 480 l 907 639 l 658 639 z "},"ￂ":{"ha":0,"x_min":0,"x_max":0,"o":"m 658 1105 l 464 1105 l 464 -126 l 658 -126 l 658 480 l 907 480 l 907 639 l 658 639 z "},"ㅐ":{"ha":0,"x_min":0,"x_max":0,"o":"m 869 1109 l 685 1109 l 685 650 l 538 650 l 538 1089 l 357 1089 l 357 -79 l 538 -79 l 538 492 l 685 492 l 685 -125 l 869 -125 z "},"ￃ":{"ha":0,"x_min":0,"x_max":0,"o":"m 869 1109 l 685 1109 l 685 650 l 538 650 l 538 1089 l 357 1089 l 357 -79 l 538 -79 l 538 492 l 685 492 l 685 -125 l 869 -125 z "},"ㅑ":{"ha":0,"x_min":0,"x_max":0,"o":"m 875 808 l 631 808 l 631 1107 l 434 1107 l 434 -127 l 631 -127 l 631 290 l 875 290 l 875 453 l 631 453 l 631 648 l 875 648 z "},"ￄ":{"ha":0,"x_min":0,"x_max":0,"o":"m 875 808 l 631 808 l 631 1107 l 434 1107 l 434 -127 l 631 -127 l 631 290 l 875 290 l 875 453 l 631 453 l 631 648 l 875 648 z "},"ㅒ":{"ha":0,"x_min":0,"x_max":0,"o":"m 863 1107 l 675 1107 l 675 831 l 537 831 l 537 1089 l 933 1089 l 933 1227 l 491 1227 l 491 1415 z m 165 2017 l 165 2218 l 304 2218 l 304 2017 z "},"ￅ":{"ha":0,"x_min":0,"x_max":0,"o":"m 863 1107 l 675 1107 l 675 831 l 537 831 l 537 1089 l 933 1089 l 933 1227 l 491 1227 l 491 1415 z m 165 2017 l 165 2218 l 304 2218 l 304 2017 z "},"ㅓ":{"ha":0,"x_min":0,"x_max":0,"o":"m 823 1108 l 628 1108 l 628 655 l 373 655 l 373 494 l 628 494 l 628 -123 l 823 -123 z "},"ￆ":{"ha":0,"x_min":0,"x_max":0,"o":"m 823 1108 l 628 1108 l 628 655 l 373 655 l 373 494 l 628 494 l 628 -123 l 823 -123 z "},"ㅔ":{"ha":0,"x_min":0,"x_max":0,"o":"m 911 1109 l 724 1109 l 724 -125 l 911 -125 z m 636 1086 l 454 1086 l 454 652 l 286 652 l 286 492 l 454 492 l 454 -87 l 636 -87 z "},"ￇ":{"ha":0,"x_min":0,"x_max":0,"o":"m 911 1109 l 724 1109 l 724 -125 l 911 -125 z m 636 1086 l 454 1086 l 454 652 l 286 652 l 286 492 l 454 492 l 454 -87 l 636 -87 z "},"ㅕ":{"ha":0,"x_min":0,"x_max":0,"o":"m 826 1107 l 631 1107 l 631 819 l 368 819 l 368 661 l 631 661 l 631 463 l 368 463 l 368 301 l 631 301 l 631 -127 l 826 -127 z "},"ￊ":{"ha":0,"x_min":0,"x_max":0,"o":"m 826 1107 l 631 1107 l 631 819 l 368 819 l 368 661 l 631 661 l 631 463 l 368 463 l 368 301 l 631 301 l 631 -127 l 826 -127 z "},"ㅖ":{"ha":0,"x_min":0,"x_max":0,"o":"m 905 1107 l 719 1107 l 719 -126 l 905 -126 z m 636 1084 l 454 1084 l 454 811 l 273 811 l 273 652 l 454 652 l 454 467 l 266 467 l 266 308 l 454 308 l 454 -87 l 636 -87 z "},"ￋ":{"ha":0,"x_min":0,"x_max":0,"o":"m 905 1107 l 719 1107 l 719 -126 l 905 -126 z m 636 1084 l 454 1084 l 454 811 l 273 811 l 273 652 l 454 652 l 454 467 l 266 467 l 266 308 l 454 308 l 454 -87 l 636 -87 z "},"ㅗ":{"ha":0,"x_min":0,"x_max":0,"o":"m 1168 381 l 696 381 l 696 848 l 503 848 l 503 381 l 34 381 l 34 225 l 1168 225 z "},"ￌ":{"ha":0,"x_min":0,"x_max":0,"o":"m 1168 381 l 696 381 l 696 848 l 503 848 l 503 381 l 34 381 l 34 225 l 1168 225 z "},"ㅘ":{"ha":0,"x_min":0,"x_max":0,"o":"m 505 727 l 315 727 l 315 311 b 22 308 211 309 111 308 l 42 149 b 795 201 256 151 541 156 l 779 340 b 505 319 691 330 598 323 z m 1031 1107 l 837 1107 l 837 -129 l 1031 -129 l 1031 473 l 1184 473 l 1184 633 l 1031 633 z "},"ￍ":{"ha":0,"x_min":0,"x_max":0,"o":"m 505 727 l 315 727 l 315 311 b 22 308 211 309 111 308 l 42 149 b 795 201 256 151 541 156 l 779 340 b 505 319 691 330 598 323 z m 1031 1107 l 837 1107 l 837 -129 l 1031 -129 l 1031 473 l 1184 473 l 1184 633 l 1031 633 z "},"ㅙ":{"ha":0,"x_min":0,"x_max":0,"o":"m 453 722 l 275 722 l 275 347 b 38 343 188 344 104 343 l 56 186 b 667 229 220 186 473 195 l 651 372 b 453 355 591 364 523 359 z m 1153 1109 l 966 1109 l 966 620 l 888 620 l 888 1095 l 708 1095 l 708 -81 l 888 -81 l 888 460 l 966 460 l 966 -125 l 1153 -125 z "},"ￎ":{"ha":0,"x_min":0,"x_max":0,"o":"m 453 722 l 275 722 l 275 347 b 38 343 188 344 104 343 l 56 186 b 667 229 220 186 473 195 l 651 372 b 453 355 591 364 523 359 z m 1153 1109 l 966 1109 l 966 620 l 888 620 l 888 1095 l 708 1095 l 708 -81 l 888 -81 l 888 460 l 966 460 l 966 -125 l 1153 -125 z "},"ㅚ":{"ha":0,"x_min":0,"x_max":0,"o":"m 579 716 l 387 716 l 387 345 b 81 342 278 342 174 342 l 104 183 b 869 231 323 183 609 189 l 853 376 b 579 353 765 364 672 357 z m 1111 1112 l 914 1112 l 914 -122 l 1111 -122 z "},"ￏ":{"ha":0,"x_min":0,"x_max":0,"o":"m 579 716 l 387 716 l 387 345 b 81 342 278 342 174 342 l 104 183 b 869 231 323 183 609 189 l 853 376 b 579 353 765 364 672 357 z m 1111 1112 l 914 1112 l 914 -122 l 1111 -122 z "},"ㅛ":{"ha":0,"x_min":0,"x_max":0,"o":"m 1169 347 l 924 347 l 924 838 l 731 838 l 731 347 l 475 347 l 475 838 l 282 838 l 282 347 l 37 347 l 37 189 l 1169 189 z "},"ￒ":{"ha":0,"x_min":0,"x_max":0,"o":"m 1169 347 l 924 347 l 924 838 l 731 838 l 731 347 l 475 347 l 475 838 l 282 838 l 282 347 l 37 347 l 37 189 l 1169 189 z "},"ㅜ":{"ha":0,"x_min":0,"x_max":0,"o":"l 1171 0 l 1171 709 l 1641 709 l 1641 209 l 1835 209 l 1835 709 l 2306 709 "},"ￓ":{"ha":0,"x_min":0,"x_max":0,"o":"l 1171 0 l 1171 709 l 1641 709 l 1641 209 l 1835 209 l 1835 709 l 2306 709 "},"ㅝ":{"ha":0,"x_min":0,"x_max":0,"o":"m 1138 1112 l 940 1112 l 940 349 l 697 349 l 697 201 l 940 201 l 940 -123 l 1138 -123 z m 47 590 l 69 435 b 357 442 158 437 256 438 l 357 -35 l 552 -35 l 552 453 b 868 488 657 460 764 471 l 854 628 b 47 590 587 594 285 590 z "},"ￔ":{"ha":0,"x_min":0,"x_max":0,"o":"m 1138 1112 l 940 1112 l 940 349 l 697 349 l 697 201 l 940 201 l 940 -123 l 1138 -123 z m 47 590 l 69 435 b 357 442 158 437 256 438 l 357 -35 l 552 -35 l 552 453 b 868 488 657 460 764 471 l 854 628 b 47 590 587 594 285 590 z "},"ㅞ":{"ha":0,"x_min":0,"x_max":0,"o":"m 1160 1112 l 974 1112 l 974 -121 l 1160 -121 z m 905 1092 l 722 1092 l 722 353 l 544 353 l 544 201 l 722 201 l 722 -83 l 905 -83 z m 39 574 l 57 429 b 278 433 121 428 197 429 l 278 -38 l 464 -38 l 464 445 b 680 472 539 452 613 460 l 666 602 b 39 574 476 579 208 574 z "},"ￕ":{"ha":0,"x_min":0,"x_max":0,"o":"m 1160 1112 l 974 1112 l 974 -121 l 1160 -121 z m 905 1092 l 722 1092 l 722 353 l 544 353 l 544 201 l 722 201 l 722 -83 l 905 -83 z m 39 574 l 57 429 b 278 433 121 428 197 429 l 278 -38 l 464 -38 l 464 445 b 680 472 539 452 613 460 l 666 602 b 39 574 476 579 208 574 z "},"ㅟ":{"ha":0,"x_min":0,"x_max":0,"o":"m 1127 1107 l 929 1107 l 929 -129 l 1127 -129 z m 72 557 l 94 400 b 385 407 184 401 283 403 l 385 -35 l 581 -35 l 581 418 b 880 450 681 425 782 435 l 869 590 b 72 557 610 562 312 556 z "},"ￖ":{"ha":0,"x_min":0,"x_max":0,"o":"m 1127 1107 l 929 1107 l 929 -129 l 1127 -129 z m 72 557 l 94 400 b 385 407 184 401 283 403 l 385 -35 l 581 -35 l 581 418 b 880 450 681 425 782 435 l 869 590 b 72 557 610 562 312 556 z "},"ㅠ":{"ha":0,"x_min":0,"x_max":0,"o":"m 1168 716 l 34 716 l 34 559 l 283 559 l 283 56 l 481 56 l 481 559 l 711 559 l 711 56 l 907 56 l 907 559 l 1168 559 z "},"ￗ":{"ha":0,"x_min":0,"x_max":0,"o":"m 1168 716 l 34 716 l 34 559 l 283 559 l 283 56 l 481 56 l 481 559 l 711 559 l 711 56 l 907 56 l 907 559 l 1168 559 z "},"ㅡ":{"ha":0,"x_min":0,"x_max":0,"o":"m 1168 598 l 34 598 l 34 439 l 1168 439 z "},"ￚ":{"ha":0,"x_min":0,"x_max":0,"o":"m 1168 598 l 34 598 l 34 439 l 1168 439 z "},"ㅢ":{"ha":0,"x_min":0,"x_max":0,"o":"m 1119 1107 l 924 1107 l 924 -127 l 1119 -127 z m 65 387 l 85 231 b 863 277 316 231 598 235 l 852 419 b 65 387 598 388 304 387 z "},"ￛ":{"ha":0,"x_min":0,"x_max":0,"o":"m 1119 1107 l 924 1107 l 924 -127 l 1119 -127 z m 65 387 l 85 231 b 863 277 316 231 598 235 l 852 419 b 65 387 598 388 304 387 z "},"ㅣ":{"ha":0,"x_min":0,"x_max":0,"o":"m 700 1109 l 506 1109 l 506 -122 l 700 -122 z "},"ￜ":{"ha":0,"x_min":0,"x_max":0,"o":"m 700 1109 l 506 1109 l 506 -122 l 700 -122 z "},"ㅤ":{"ha":0,"x_min":0,"x_max":0,"o":""},"ㆍ":{"ha":0,"x_min":0,"x_max":0,"o":""},"가":{"ha":0,"x_min":0,"x_max":0,"o":"m 1020 1115 "},"각":{"ha":0,"x_min":0,"x_max":0,"o":""},"갂":{"ha":0,"x_min":0,"x_max":0,"o":""},"갃":{"ha":0,"x_min":0,"x_max":0,"o":""},"간":{"ha":0,"x_min":0,"x_max":0,"o":"m 1024 1115 "},"갅":{"ha":-8,"x_min":0,"x_max":0,"o":"l -671 0 l -671 197 l -420 197 l -420 357 l -260 357 l -260 197 m -955 -292 b -1358 -628 -1146 -753 -1296 -715 b NaN NaN -1366 -529 NaN NaN l NaN NaN l NaN NaN l NaN NaN l NaN NaN l NaN NaN z "},"갆":{"ha":0,"x_min":0,"x_max":0,"o":""},"갇":{"ha":0,"x_min":0,"x_max":0,"o":""},"갈":{"ha":0,"x_min":0,"x_max":0,"o":""},"갉":{"ha":0,"x_min":0,"x_max":0,"o":"m 1024 1114 l 829 1114 l 829 464 l 1024 464 l 1024 709 l 1187 709 l 1187 868 l 1024 868 "},"갊":{"ha":0,"x_min":0,"x_max":0,"o":""},"갋":{"ha":0,"x_min":0,"x_max":0,"o":""},"갌":{"ha":0,"x_min":0,"x_max":0,"o":""},"갍":{"ha":0,"x_min":0,"x_max":0,"o":""},"갎":{"ha":0,"x_min":0,"x_max":0,"o":""},"갏":{"ha":0,"x_min":0,"x_max":0,"o":""},"감":{"ha":0,"x_min":0,"x_max":0,"o":""},"갑":{"ha":0,"x_min":0,"x_max":0,"o":"m 1024 1115 "},"값":{"ha":0,"x_min":0,"x_max":0,"o":""},"갓":{"ha":0,"x_min":0,"x_max":0,"o":"m 1185 803 l 1024 803 l 1024 1115 l 829 1115 l 829 294 l 1024 294 l 1024 644 l 1185 644 b 1564 458 1185 145 1564 250 b 1906 NaN 1564 696 1906 NaN z m 1938 NaN l 1938 NaN l 1743 NaN l 1743 NaN b 1356 NaN 1743 NaN 1633 NaN l 1435 NaN b 1839 NaN 1630 NaN 1765 NaN b 2245 NaN 1914 NaN 2049 NaN l 2323 NaN b 1938 NaN 2044 NaN 1938 NaN z "},"갔":{"ha":0,"x_min":0,"x_max":0,"o":"l 263 0 l 263 161 l 420 161 l 420 0 m 72 201 l -519 201 l -519 47 l -144 47 b -586 -304 -172 -106 -316 -237 l -511 -461 b 72 201 -136 -366 72 -137 z m -125 -521 l -125 -468 l -315 -468 l -315 -521 b -541 -825 -315 -644 -376 -766 l -442 -964 b -217 -765 -333 -927 -260 -855 l -217 -724 l -311 -724 l -311 -653 l -389 -653 l -389 -538 l -429 -538 l -429 -427 l -387 -427 l -387 -355 l -306 -355 l -306 -313 l -212 -313 l -212 -273 l -304 -273 l -304 -199 l -377 -199 l -377 -83 l -416 -83 l -416 14 l -277 14 l -277 66 l -468 66 l -468 14 b -602 -255 -469 -79 -506 -181 b -734 14 -699 -184 -735 -84 z "},"강":{"ha":0,"x_min":0,"x_max":0,"o":""},"갖":{"ha":-681,"x_min":0,"x_max":0,"o":"m -347 209 l -152 209 l -152 456 l -745 456 l -745 302 l -368 302 b -804 -24 -391 161 -524 37 l -734 -180 b -152 456 -353 -95 -152 118 b 79 -389 209 -208 186 -298 b NaN NaN -160 -414 -90 -566 l NaN NaN b NaN NaN NaN NaN NaN NaN b NaN NaN NaN NaN NaN NaN l NaN NaN "},"갗":{"ha":0,"x_min":0,"x_max":0,"o":"m 1185 859 l 1024 859 l 1024 1115 l 829 1115 l 829 438 l 1024 438 l 1024 700 l 1185 700 "},"갘":{"ha":0,"x_min":0,"x_max":0,"o":""},"같":{"ha":0,"x_min":0,"x_max":0,"o":""},"갚":{"ha":0,"x_min":0,"x_max":0,"o":"m 1024 1114 l 829 1114 l 829 445 l 1024 445 l 1024 703 l 1185 703 l 1185 857 l 1024 857 "},"갛":{"ha":0,"x_min":0,"x_max":0,"o":""},"개":{"ha":-186,"x_min":0,"x_max":0,"o":"m 1108 1115 z "},"객":{"ha":0,"x_min":0,"x_max":0,"o":"l -277 0 l -277 -92 l -22 -92 l -22 -275 l -723 -275 l -723 -92 l -435 -92 l -435 0 l -727 0 l -727 186 m -727 140 l -1603 140 l -1603 -16 l -922 -16 l -922 -331 l -727 -331 b -1530 493 -1259 830 -1414 721 b NaN NaN -1610 585 -1755 NaN l NaN NaN b NaN NaN NaN NaN NaN NaN z "},"갞":{"ha":0,"x_min":0,"x_max":0,"o":"l -278 0 l -278 -92 l -22 -92 l -22 -275 l -704 -275 l -704 -92 l -433 -92 l -433 0 l -712 0 l -712 186 b -1514 479 -1244 815 -1400 706 b NaN NaN -1594 570 -1735 NaN l NaN NaN b NaN NaN NaN NaN NaN NaN "},"갟":{"ha":-278,"x_min":0,"x_max":0,"o":""},"갠":{"ha":-346,"x_min":0,"x_max":0,"o":""},"갡":{"ha":-532,"x_min":0,"x_max":0,"o":"l -278 0 l -278 -92 l -22 -92 l -22 -275 l -690 -275 l -690 -92 l -431 -92 l -431 0 l -694 0 l -694 186 "},"갢":{"ha":-190,"x_min":0,"x_max":0,"o":"l -244 0 l -244 -92 l -22 -92 l -22 -275 l -618 -275 l -618 -92 l -399 -92 l -399 0 l -627 0 l -627 186 m -1164 742 l -1647 742 l -1647 587 l -1369 587 b -1713 271 -1394 446 -1494 342 l -1618 130 b -1164 742 -1302 241 -1164 434 z m -1340 88 z "},"갣":{"ha":-532,"x_min":0,"x_max":0,"o":"l -283 0 l -283 -92 l -19 -92 l -19 -275 l -715 -275 l -715 -92 l -441 -92 l -441 0 l -724 0 l -724 186 "},"갤":{"ha":0,"x_min":0,"x_max":0,"o":"l -244 0 l -244 -92 l -22 -92 l -22 -275 l -609 -275 l -609 -92 l -396 -92 l -396 0 l -620 0 l -620 186 m -1157 735 l -1640 735 l -1640 581 l -1362 581 b -1702 281 -1388 446 -1486 347 l -1611 140 b -1157 735 -1297 245 -1157 429 l -620 735 l -620 142 l -677 142 l -677 -522 l -1034 -522 l -1034 376 l -882 376 l -882 -328 l -818 -328 l -818 336 z "},"갥":{"ha":-537,"x_min":0,"x_max":0,"o":"l -247 0 l -247 -92 l -22 -92 l -22 134 l 71 134 l 71 -98 l 256 -98 "},"갦":{"ha":-537,"x_min":0,"x_max":0,"o":"l -247 0 l -247 -92 l -22 -92 l -22 134 l 71 134 l 71 -98 l 256 -98 "},"갧":{"ha":-244,"x_min":0,"x_max":0,"o":""},"갨":{"ha":0,"x_min":0,"x_max":0,"o":"l -247 0 l -247 -92 l -22 -92 l -22 134 l 71 134 l 71 -98 l 256 -98 b -514 151 -281 465 -416 366 b NaN NaN -581 242 -722 NaN l NaN NaN b NaN NaN NaN NaN NaN NaN "},"갩":{"ha":-247,"x_min":0,"x_max":0,"o":""},"갪":{"ha":0,"x_min":0,"x_max":0,"o":"l -247 0 l -247 -92 l -22 -92 l -22 134 l 71 134 l 71 -98 l 256 -98 "},"갫":{"ha":20,"x_min":0,"x_max":0,"o":"l -241 0 l -241 -92 l -22 -92 l -22 -275 l -606 -275 l -606 -92 l -396 -92 l -396 0 l -617 0 l -617 186 b -1280 505 -1154 732 -1180 602 b NaN NaN -1495 444 -1402 301 l NaN NaN b NaN NaN NaN NaN NaN NaN "},"갬":{"ha":-532,"x_min":0,"x_max":0,"o":"l -278 0 l -278 -92 l -22 -92 l -22 176 l 71 176 l 71 -99 l 256 -99 m 788 -776 l 1412 -776 l 1412 -1634 l 947 -1634 l 947 -776 z m 282 -463 l 755 -463 l 755 -620 l 282 -620 z "},"갭":{"ha":0,"x_min":0,"x_max":0,"o":"l -267 0 l -267 -92 l -22 -92 l -22 -275 l -662 -275 l -662 -92 l -422 -92 l -422 0 l -670 0 l -670 186 m -1204 784 l -1690 784 l -1690 627 l -1408 627 b -1754 278 -1434 473 -1535 361 l -1657 137 b -1204 784 -1341 263 -1204 469 z m -1333 137 l -1527 137 l -1527 -369 l -670 -369 l -670 137 l -864 137 l -864 33 l -1333 33 z m -1333 -216 l -1333 -118 l -864 -118 l -864 -216 z "},"갮":{"ha":-266,"x_min":0,"x_max":0,"o":""},"갯":{"ha":-293,"x_min":0,"x_max":0,"o":""},"갰":{"ha":-73,"x_min":0,"x_max":0,"o":"l -283 0 l -283 -92 l -22 -92 l -22 -275 l -689 -275 l -689 -92 l -439 -92 l -439 0 l -692 0 l -692 186 m -1223 795 l -1714 795 l -1714 636 l -1426 636 b -1778 288 -1453 481 -1558 370 l -1685 145 b -1223 795 -1362 270 -1223 476 z "},"갱":{"ha":-283,"x_min":0,"x_max":0,"o":""},"갲":{"ha":-532,"x_min":0,"x_max":0,"o":"l 264 0 l 264 92 l -8 92 l -8 278 m 537 -389 l 1156 -389 l 1156 -1256 l 1002 -1256 l 1002 -932 "},"갳":{"ha":-262,"x_min":0,"x_max":0,"o":""},"갴":{"ha":-532,"x_min":0,"x_max":0,"o":"l -275 0 l -275 -92 l -22 -92 l -22 175 l 71 175 l 71 -99 l 256 -99 "},"갵":{"ha":-250,"x_min":0,"x_max":0,"o":""},"갶":{"ha":-532,"x_min":0,"x_max":0,"o":"l 267 0 l 267 92 l -8 92 l -8 278 m 533 -392 l 533 227 l -347 227 l -347 72 l -197 72 l -197 -90 l -35 -90 l -35 61 l 160 61 l 160 -100 z "},"갷":{"ha":-537,"x_min":0,"x_max":0,"o":"l -241 0 l -241 -92 l -22 -92 l -22 -275 l -601 -275 l -601 -92 l -396 -92 l -396 0 l -659 0 l -659 186 "},"갸":{"ha":0,"x_min":0,"x_max":0,"o":"m 1187 812 l 1020 812 l 1020 1115 l 1431 1115 l 1431 1282 l 1591 1282 l 1591 1115 l 1800 1115 l 1800 1282 "},"갹":{"ha":0,"x_min":0,"x_max":0,"o":"m 1185 958 l 1024 958 l 1024 1115 l 829 1115 l 829 395 l 1024 395 l 1024 534 l 1185 534 l 1185 693 l 1024 693 l 1024 803 l 1185 803 "},"갺":{"ha":0,"x_min":0,"x_max":0,"o":"m 1185 972 l 1024 972 l 1024 1115 l 829 1115 l 829 411 l 1024 411 l 1024 556 l 1131 556 l 1131 718 "},"갻":{"ha":0,"x_min":0,"x_max":0,"o":""},"갼":{"ha":0,"x_min":0,"x_max":0,"o":"m 1185 913 l 1024 913 l 1024 1115 l 826 1115 l 826 229 l 1024 229 l 1024 456 l 1165 456 l 1165 617 "},"갽":{"ha":673,"x_min":0,"x_max":0,"o":"m 513 -77 l 1568 -77 l 1568 -240 l 1705 -240 l 1705 -437 l 1034 -437 l 1034 -240 l 1154 -240 l 1154 -77 l 1308 -77 l 1308 -240 l 1413 -240 l 1413 -77 z m 556 -534 b 153 -871 365 -996 215 -958 b NaN NaN 145 -772 NaN NaN l NaN NaN l NaN NaN l NaN NaN l NaN NaN l NaN NaN z "},"갾":{"ha":0,"x_min":0,"x_max":0,"o":""},"갿":{"ha":0,"x_min":0,"x_max":0,"o":""},"걀":{"ha":0,"x_min":0,"x_max":0,"o":"l -618 0 l -618 195 l -511 195 l -511 357 l -358 357 l -358 195 l -270 195 l -270 357 "},"걁":{"ha":0,"x_min":0,"x_max":0,"o":"m 1024 1114 "},"걂":{"ha":0,"x_min":0,"x_max":0,"o":""},"걃":{"ha":0,"x_min":0,"x_max":0,"o":""},"걄":{"ha":0,"x_min":0,"x_max":0,"o":""},"걅":{"ha":0,"x_min":0,"x_max":0,"o":""},"걆":{"ha":0,"x_min":0,"x_max":0,"o":""},"걇":{"ha":0,"x_min":0,"x_max":0,"o":""},"걈":{"ha":0,"x_min":0,"x_max":0,"o":""},"걉":{"ha":0,"x_min":0,"x_max":0,"o":"m 1024 1115 "},"걊":{"ha":0,"x_min":0,"x_max":0,"o":""},"걋":{"ha":0,"x_min":0,"x_max":0,"o":"m 1183 935 l 1024 935 l 1024 1115 l 829 1115 l 829 294 l 1024 294 l 1024 486 l 1183 486 l 1183 644 l 1024 644 l 1024 776 l 1183 776 b 1430 595 1183 279 1430 387 b 1771 NaN 1430 830 1771 NaN z m 1804 NaN l 1804 NaN l 1609 NaN l 1609 NaN b 1222 NaN 1609 NaN 1499 NaN l 1301 NaN b 1705 NaN 1496 NaN 1630 NaN "},"걌":{"ha":129,"x_min":0,"x_max":0,"o":"m -349 72 l -187 72 l -187 228 l -349 228 l -349 338 l -940 338 l -940 184 l -564 184 b -1006 -167 -592 31 -736 -100 l -932 -324 b -349 338 -556 -229 -349 0 z m -545 -384 l -545 -331 l -735 -331 l -735 -384 b -962 -688 -735 -507 -796 -629 l -863 -827 b -637 -628 -753 -790 -681 -718 l -637 -587 l -731 -587 l -731 -516 l -809 -516 l -809 -401 l -849 -401 l -849 -290 l -807 -290 l -807 -218 l -726 -218 l -726 -176 l -632 -176 l -632 -136 l -725 -136 l -725 -62 l -798 -62 l -798 54 l -837 54 l -837 151 l -697 151 l -697 203 l -888 203 l -888 151 b -1023 -118 -890 58 -926 -44 b -1154 151 -1119 -47 -1156 53 z "},"걍":{"ha":0,"x_min":0,"x_max":0,"o":"m 1181 954 l 1024 954 l 1024 1115 l 829 1115 l 829 400 l 1024 400 l 1024 536 l 1181 536 l 1181 694 l 1024 694 l 1024 795 l 1181 795 "},"걎":{"ha":-681,"x_min":0,"x_max":0,"o":"m -347 72 l -152 72 l -152 191 l -42 191 l -42 -401 l -195 -401 l -195 -24 b -632 -351 -218 -166 -352 -290 l -562 -507 b 20 129 -180 -422 20 -209 b 251 -715 381 -534 359 -625 b NaN NaN 12 -741 83 -892 l NaN NaN b NaN NaN NaN NaN NaN NaN b NaN NaN NaN NaN NaN NaN l NaN NaN "},"걏":{"ha":682,"x_min":0,"x_max":0,"o":"m 342 69 "},"걐":{"ha":0,"x_min":0,"x_max":0,"o":""},"걑":{"ha":0,"x_min":0,"x_max":0,"o":"l -650 0 l -650 195 l -529 195 l -529 357 l -376 357 l -376 195 l -277 195 l -277 357 l -123 357 l -123 195 "},"걒":{"ha":0,"x_min":0,"x_max":0,"o":"m 1024 1114 "},"걓":{"ha":0,"x_min":0,"x_max":0,"o":"m 1185 991 l 1024 991 l 1024 1115 l 1139 1115 l 1139 1207 l 1301 1207 "},"걔":{"ha":-186,"x_min":0,"x_max":0,"o":"m 1108 1115 z m 1359 625 l 1359 331 l 1263 331 l 1263 593 l 1082 593 l 1082 -567 l 1263 -567 l 1263 -172 l 1359 -172 l 1359 -620 l 1550 -620 l 1550 -524 l 1359 -524 z "},"걕":{"ha":0,"x_min":0,"x_max":0,"o":"l -701 0 l -701 183 l -556 183 l -556 275 l -705 275 l -705 461 m -705 415 l -1581 415 l -1581 259 l -901 259 l -901 -56 l -705 -56 b -1508 768 -1237 1105 -1392 996 b NaN NaN -1588 861 -1733 NaN l NaN NaN b NaN NaN NaN NaN NaN NaN z m NaN NaN l NaN NaN l NaN NaN l NaN NaN z "},"걖":{"ha":0,"x_min":0,"x_max":0,"o":"l -149 0 l -149 -92 l -22 -92 l -22 -275 l -704 -275 l -704 -92 l -571 -92 l -571 0 l -712 0 l -712 186 b -1514 479 -1244 815 -1400 706 b NaN NaN -1594 570 -1735 NaN l NaN NaN b NaN NaN NaN NaN NaN NaN m NaN NaN l NaN NaN l NaN NaN l NaN NaN z "},"걗":{"ha":0,"x_min":0,"x_max":0,"o":""},"걘":{"ha":-214,"x_min":0,"x_max":0,"o":"m -311 715 l -311 623 l -118 623 l -118 439 l -989 439 l -989 623 l -757 623 l -757 715 l -1025 715 l -1025 853 l -933 853 l -933 715 z "},"걙":{"ha":-532,"x_min":0,"x_max":0,"o":"l -148 0 l -148 -92 l -22 -92 l -22 -275 l -690 -275 l -690 -92 l -560 -92 l -560 0 l -694 0 l -694 186 m -441 -137 l -441 475 l -339 475 l -339 567 l -441 567 z "},"걚":{"ha":0,"x_min":0,"x_max":0,"o":"l -129 0 l -129 -92 l -22 -92 l -22 -275 l -618 -275 l -618 -92 l -522 -92 l -522 0 l -627 0 l -627 186 m -1164 742 l -1647 742 l -1647 587 l -1369 587 b -1713 271 -1394 446 -1494 342 l -1618 130 b -1164 742 -1302 241 -1164 434 z m -1340 88 "},"걛":{"ha":-532,"x_min":0,"x_max":0,"o":"l -149 0 l -149 -92 l -19 -92 l -19 -275 l -715 -275 l -715 -92 l -571 -92 l -571 0 l -724 0 l -724 186 m -471 -148 l -471 494 l -359 494 l -359 586 l -471 586 z "},"걜":{"ha":0,"x_min":0,"x_max":0,"o":"l -134 0 l -134 -92 l -22 -92 l -22 -275 l -609 -275 l -609 -92 l -511 -92 l -511 0 l -620 0 l -620 186 l -1157 186 l -1157 735 l -620 735 l -620 140 l -680 140 l -680 -525 l -1035 -525 l -1035 373 l -883 373 l -883 -331 l -819 -331 l -819 334 "},"걝":{"ha":-537,"x_min":0,"x_max":0,"o":"l -137 0 l -137 -92 l -22 -92 l -22 20 l 71 20 l 71 -98 l 256 -98 m 464 552 l 464 1115 l 515 1115 l 515 503 l 602 503 l 602 595 l 515 595 z "},"걞":{"ha":-537,"x_min":0,"x_max":0,"o":"l -134 0 l -134 -92 l -22 -92 l -22 -275 l -628 -275 l -628 -92 l -515 -92 l -515 0 l -633 0 l -633 186 m -374 -111 l -374 452 l -289 452 l -289 544 l -374 544 z "},"걟":{"ha":-130,"x_min":0,"x_max":0,"o":"m 218 655 l 218 563 l 327 563 l 327 380 l -273 380 l -273 563 l -165 563 l -165 655 l -278 655 l -278 743 l -186 743 l -186 655 z "},"걠":{"ha":0,"x_min":0,"x_max":0,"o":"l -134 0 l -134 -92 l -22 -92 l -22 -275 l -628 -275 l -628 -92 l -517 -92 l -517 0 l -633 0 l -633 186 b -1404 435 -1171 749 -1306 650 b NaN NaN -1470 526 -1611 NaN l NaN NaN b NaN NaN NaN NaN NaN NaN m NaN NaN l NaN NaN l NaN NaN l NaN NaN z "},"걡":{"ha":-136,"x_min":0,"x_max":0,"o":"m 218 644 l 218 552 l 332 552 l 332 659 l 425 659 l 425 547 l 515 547 l 515 639 l 425 639 z "},"걢":{"ha":-537,"x_min":0,"x_max":0,"o":"l -134 0 l -134 -92 l -22 -92 l -22 -275 l -628 -275 l -628 -92 l -515 -92 l -515 0 l -633 0 l -633 186 m -411 838 l -411 1401 l -374 1401 l -374 788 l -289 788 l -289 880 l -374 880 "},"걣":{"ha":20,"x_min":0,"x_max":0,"o":"l -133 0 l -133 -92 l -22 -92 l -22 -275 l -606 -275 l -606 -92 l -515 -92 l -515 0 l -617 0 l -617 186 b -1280 505 -1154 732 -1180 602 b NaN NaN -1495 444 -1402 301 l NaN NaN b NaN NaN NaN NaN NaN NaN m NaN NaN l NaN NaN l NaN NaN l NaN NaN l NaN NaN z "},"걤":{"ha":-532,"x_min":0,"x_max":0,"o":"l -678 0 l -678 183 l -544 183 l -544 275 l -685 275 l -685 461 m -153 -210 l 471 -210 l 471 -1069 l 0 -1069 l 0 -210 z m -665 106 l -191 106 l -191 -54 l -665 -54 "},"걥":{"ha":0,"x_min":0,"x_max":0,"o":"l -138 0 l -138 -92 l -22 -92 l -22 -275 l -662 -275 l -662 -92 l -545 -92 l -545 0 l -670 0 l -670 186 m -1204 784 l -1690 784 l -1690 627 l -1408 627 b -1754 278 -1434 473 -1535 361 l -1657 137 b -1204 784 -1341 263 -1204 469 z m -1333 137 l -1527 137 l -1527 -369 l -670 -369 l -670 137 l -864 137 l -864 33 l -1333 33 z m -1333 -216 l -1333 -118 l -864 -118 l -864 -216 z m -948 467 l -948 560 l -856 560 l -856 467 z "},"걦":{"ha":-140,"x_min":0,"x_max":0,"o":"m 256 -317 l 256 -410 l 374 -410 l 374 -593 l -269 -593 l -269 -410 l -149 -410 l -149 -317 l -279 -317 l -279 -224 l -187 -224 l -187 -317 z "},"걧":{"ha":0,"x_min":0,"x_max":0,"o":""},"걨":{"ha":0,"x_min":0,"x_max":0,"o":"l -667 0 l -667 183 l -544 183 l -544 275 l -670 275 l -670 461 m -1202 1070 l -1693 1070 l -1693 911 l -1404 911 b -1756 563 -1432 757 -1537 645 l -1663 420 b -1202 1070 -1340 545 -1202 751 "},"걩":{"ha":0,"x_min":0,"x_max":0,"o":""},"걪":{"ha":-532,"x_min":0,"x_max":0,"o":"l -671 0 l -671 183 l -541 183 l -541 275 l -680 275 l -680 461 m -134 -206 l 484 -206 l 484 -1073 l 331 -1073 l 331 -749 b -47 -937 310 -833 201 -916 b -423 -749 -293 -916 -402 -830 l -99 -749 "},"걫":{"ha":-133,"x_min":0,"x_max":0,"o":"m 256 -304 l 256 -396 l 368 -396 l 368 -297 l 460 -297 l 460 -465 l 553 -465 l 553 -373 l 460 -373 z "},"걬":{"ha":0,"x_min":0,"x_max":0,"o":"l -148 0 l -148 -92 l -22 -92 l -22 42 l 71 42 l 71 -99 l 256 -99 "},"걭":{"ha":-126,"x_min":0,"x_max":0,"o":"m 259 -298 l 259 -391 l 363 -391 l 363 -286 l 456 -286 l 456 -396 l 551 -396 l 551 -304 l 456 -304 z "},"걮":{"ha":-532,"x_min":0,"x_max":0,"o":"l -671 0 l -671 183 l -544 183 l -544 275 l -680 275 l -680 461 m -138 -209 l -138 410 l -1019 410 l -1019 255 l -868 255 l -868 94 l -707 94 l -707 244 l -511 244 l -511 83 "},"걯":{"ha":0,"x_min":0,"x_max":0,"o":"l -133 0 l -133 -92 l -22 -92 l -22 -275 l -601 -275 l -601 -92 l -509 -92 l -509 0 l -665 0 l -665 186 "},"거":{"ha":0,"x_min":0,"x_max":0,"o":"l -472 0 l -472 -231 l -631 -231 l -631 0 l -1245 0 l -1245 194 m -1663 1310 l -2256 1310 l -2256 1158 l -1860 1158 b -2315 556 -1885 893 -2009 708 l -2216 404 b -1663 1310 -1775 623 -1663 928 z "},"걱":{"ha":0,"x_min":0,"x_max":0,"o":"m 682 1044 l 109 1044 l 109 890 l 472 890 b 39 540 443 736 302 608 l 115 388 b 682 1044 481 488 682 715 z m 1086 347 l 227 347 l 227 191 l 892 191 l 892 -126 l 1086 -126 z m 1086 1114 l 892 1114 l 892 819 l 697 819 l 697 661 l 892 661 l 892 393 l 1086 393 z "},"걲":{"ha":0,"x_min":0,"x_max":0,"o":"m -62 -690 l -495 -690 l -495 -845 l -259 -845 l -259 -1173 l -62 -1173 z m 408 68 l 214 68 l 214 -210 l 9 -210 l 9 -370 l 214 -370 l 214 -642 l 408 -642 z m 408 -690 l -11 -690 l -11 -845 l 214 -845 l 214 -1173 l 408 -1173 z "},"걳":{"ha":-96,"x_min":0,"x_max":0,"o":"m 408 68 l 214 68 l 214 -210 l 9 -210 l 9 -370 l 214 -370 l 214 -643 l 408 -643 z "},"건":{"ha":0,"x_min":0,"x_max":0,"o":"l -354 0 l -354 -395 l -160 -395 m -547 422 l -1134 422 l -1134 263 l -761 263 b -1199 -121 -794 94 -950 -47 l -1120 -277 b -547 422 -753 -164 -547 83 z m -129 -555 l -791 -555 l -791 -302 l -990 -302 l -990 -711 l -129 -711 z "},"걵":{"ha":0,"x_min":0,"x_max":0,"o":"b -209 202 -130 39 -193 117 l -38 202 l -38 358 l -575 358 l -575 202 l -401 202 b -590 8 -416 122 -473 48 l -625 98 b -806 41 -673 68 -739 50 "},"걶":{"ha":-297,"x_min":0,"x_max":0,"o":"m -419 579 l -968 579 l -968 423 l -628 423 b -1043 98 -654 277 -776 161 l -974 -56 b -419 579 -601 39 -419 244 z "},"걷":{"ha":0,"x_min":0,"x_max":0,"o":"m 681 1044 l 106 1044 l 106 890 l 469 890 b 37 537 439 732 297 606 l 111 384 b 681 1044 480 486 681 712 z m 1086 1114 l 892 1114 l 892 825 l 688 825 l 688 665 l 892 665 l 892 420 l 1086 420 "},"걸":{"ha":0,"x_min":0,"x_max":0,"o":"m -418 579 l -968 579 l -968 423 l -628 423 b -1039 119 -654 288 -775 176 l -974 -34 b -418 579 -605 52 -418 250 z m 0 -45 l -834 -45 l -834 -197 l -195 -197 l -195 -254 l -831 -254 l -831 -613 l 23 -613 l 23 -458 l -637 -458 l -637 -397 l 0 -397 z "},"걹":{"ha":0,"x_min":0,"x_max":0,"o":"l -273 0 l -273 -203 l -429 -203 l -429 0 l -656 0 l -656 194 "},"걺":{"ha":-404,"x_min":0,"x_max":0,"o":"l -270 0 l -270 -203 l -425 -203 l -425 0 l -637 0 l -637 194 m -155 529 l 435 529 l 435 450 l -202 450 l -202 26 l -749 26 l -749 450 z m -1005 853 l -918 853 l -918 593 l -1005 593 z "},"걻":{"ha":-404,"x_min":0,"x_max":0,"o":"l -263 0 l -263 -203 l -419 -203 l -419 0 l -631 0 l -631 194 m -403 540 l 180 540 l 180 461 l -457 461 l -457 293 l -1015 293 l -1015 716 l -457 716 l -457 545 l -590 545 l -590 461 z m -590 186 l -590 317 l -506 317 l -506 186 z "},"걼":{"ha":0,"x_min":0,"x_max":0,"o":"l -263 0 l -263 -203 l -419 -203 l -419 0 l -635 0 l -635 194 "},"걽":{"ha":0,"x_min":0,"x_max":0,"o":"l -263 0 l -263 -203 l -419 -203 l -419 0 l -631 0 l -631 194 "},"걾":{"ha":-404,"x_min":0,"x_max":0,"o":"l -270 0 l -270 -203 l -425 -203 l -425 0 l -637 0 l -637 194 m -473 -838 l -473 -248 l -229 -248 l -229 -195 l -473 -195 z "},"걿":{"ha":0,"x_min":0,"x_max":0,"o":"l -250 0 l -250 -203 l -406 -203 l -406 0 l -612 0 l -612 194 m -1016 765 l -1587 765 l -1587 609 l -1226 609 b -1653 304 -1251 472 -1377 358 l -1586 152 b -1016 765 -1208 232 -1016 433 "},"검":{"ha":678,"x_min":0,"x_max":0,"o":"m 0 -49 l 1044 -49 l 1044 -879 l 556 -879 l 556 -49 z m -83 288 l 362 288 l 362 103 l -83 103 z "},"겁":{"ha":0,"x_min":0,"x_max":0,"o":"l -278 0 l -278 -208 l -434 -208 l -434 0 l -674 0 l -674 194 m -1077 800 l -1651 800 l -1651 646 l -1289 646 b -1717 312 -1313 498 -1438 377 l -1645 160 b -1077 800 -1264 255 -1077 463 z m -1317 144 l -1317 -52 l -1824 -52 l -1824 787 l -1317 787 l -1317 593 l -1427 593 l -1427 144 l -978 144 l -978 50 z "},"겂":{"ha":0,"x_min":0,"x_max":0,"o":"l -278 0 l -278 -208 l -434 -208 l -434 0 l -674 0 l -674 194 m -1077 800 l -1651 800 l -1651 646 l -1289 646 b -1717 312 -1313 498 -1438 377 l -1645 160 b -1077 800 -1264 255 -1077 463 z "},"것":{"ha":0,"x_min":0,"x_max":0,"o":"l -321 0 l -321 -203 l -480 -203 l -480 0 l -821 0 l -821 194 m -1229 921 l -1794 921 l -1794 766 l -1440 766 b -1862 392 -1466 600 -1587 472 l -1778 240 b -1229 921 -1396 358 -1229 579 z m -1150 244 l -1150 282 l -1344 282 l -1344 244 b -1659 -30 -1473 136 -1621 -142 b -1253 -258 -1585 -143 -1451 -228 l -1176 -103 b -1561 210 -1453 -62 -1562 81 z "},"겄":{"ha":0,"x_min":0,"x_max":0,"o":"l 678 0 l 678 1044 l 389 1044 l 389 841 l 231 841 l 231 1044 l -14 1044 l -14 1238 "},"겅":{"ha":0,"x_min":0,"x_max":0,"o":"l -309 0 l -309 -195 l -468 -195 l -468 0 l -703 0 l -703 194 m -1107 815 l -1679 815 l -1679 661 l -1317 661 b -1751 307 -1342 505 -1470 378 l -1675 153 b -1107 815 -1290 255 -1107 472 z m -1119 179 b -1548 -80 -1375 179 -1548 80 b -1119 -340 -1548 -240 -1375 -342 b -693 -80 -867 -342 -693 -240 b -1119 179 -693 80 -867 179 z m -1119 28 b -888 -80 -974 28 -888 -8 b -1119 -187 -888 -153 -974 -187 b -1352 -80 -1267 -187 -1352 -153 b -1119 28 -1352 -8 -1267 28 z "},"겆":{"ha":0,"x_min":0,"x_max":0,"o":"m 697 1044 l 111 1044 l 111 890 l 484 890 b 37 567 458 746 320 624 l 106 411 b 697 1044 490 495 697 709 z m 1086 1114 "},"겇":{"ha":-343,"x_min":0,"x_max":0,"o":"m 1101 353 z m 697 1187 l 815 1187 l 815 986 l 697 986 l 697 400 l 543 400 l 543 773 b 95 449 515 630 378 506 l 164 296 b 755 928 548 380 755 594 z m 1145 997 l 951 997 l 951 704 l 746 704 l 746 547 l 951 547 l 951 312 l 1145 312 z "},"겈":{"ha":0,"x_min":0,"x_max":0,"o":""},"겉":{"ha":0,"x_min":0,"x_max":0,"o":"l -278 0 l -278 -205 l -434 -205 l -434 0 l -647 0 l -647 194 m -1047 788 l -1626 788 l -1626 633 l -1261 633 b -1690 308 -1285 489 -1410 370 l -1618 156 b -1047 788 -1240 244 -1047 450 z "},"겊":{"ha":0,"x_min":0,"x_max":0,"o":"m 685 1046 l 109 1046 l 109 892 l 472 892 b 41 556 444 743 304 618 l 114 403 b 685 1046 481 495 684 715 z m 1086 1114 "},"겋":{"ha":0,"x_min":0,"x_max":0,"o":"m 663 1057 l 110 1057 l 110 903 l 452 903 b 38 594 431 763 318 652 l 103 444 b 663 1057 488 530 663 719 z m 1086 1115 l 892 1115 l 892 859 l 688 859 l 688 704 l 892 704 l 892 461 l 1086 461 z m 1097 401 l 755 401 l 755 524 l 557 524 l 557 401 l 213 401 l 213 258 l 1097 258 z m 656 222 b 298 46 434 222 298 157 b 656 -127 298 -66 434 -127 b 1013 46 879 -127 1013 -66 b 656 222 1013 157 879 222 z m 656 92 b 807 46 754 91 807 79 b 656 1 807 12 754 1 b 505 46 557 1 505 12 b 656 92 505 79 557 91 z "},"게":{"ha":1115,"x_min":0,"x_max":0,"o":"m -266 1218 l 849 1218 l 849 1036 l 406 1036 l 406 910 b 442 1236 431 1010 442 1119 l -50 1236 l -50 1080 l 250 1080 b -123 529 225 842 122 673 l -14 392 b 349 755 164 493 278 614 l 532 755 l 532 189 l 713 189 z "},"겍":{"ha":0,"x_min":0,"x_max":0,"o":"m NaN 1149 l NaN 1149 l NaN 993 l NaN 993 b NaN 629 NaN 832 NaN 718 l NaN 488 b NaN 762 NaN 558 NaN 648 l NaN 762 l NaN 522 l NaN 522 l NaN 1221 l NaN 1221 l NaN 920 l NaN 920 b NaN 1149 NaN 989 NaN 1065 z m NaN 1244 l NaN 1244 l NaN 513 l NaN 513 z "},"겎":{"ha":0,"x_min":0,"x_max":0,"o":"m 579 1019 l 99 1019 l 99 863 l 374 863 b 33 513 348 706 247 595 l 127 373 b 483 640 293 438 409 526 l 661 640 l 661 399 l 845 399 l 845 1090 l 661 1090 l 661 795 l 551 795 b 579 1019 570 863 579 937 z m 1105 1114 l 920 1114 l 920 389 l 1105 389 "},"겏":{"ha":526,"x_min":0,"x_max":0,"o":"b 729 -342 998 -27 843 -127 b NaN NaN 648 -247 507 NaN l NaN NaN b NaN NaN NaN NaN NaN NaN l NaN NaN l NaN NaN l NaN NaN l NaN NaN l NaN NaN l NaN NaN l NaN NaN b NaN NaN NaN NaN NaN NaN "},"겐":{"ha":0,"x_min":0,"x_max":0,"o":"l -924 0 l -924 186 m -1184 1088 l -1369 1088 l -1369 736 l -1492 736 b -1454 996 -1466 814 -1454 900 l -1933 996 l -1933 841 l -1657 841 b -2009 475 -1683 677 -1786 559 l -1912 330 b -1567 585 -1754 394 -1642 478 l -1369 585 l -1369 218 l -1184 218 z m -875 42 "},"겑":{"ha":214,"x_min":0,"x_max":0,"o":""},"겒":{"ha":-190,"x_min":0,"x_max":0,"o":"m 392 385 z m 103 1347 l -380 1347 l -380 876 l -536 876 l -536 1141 b -878 815 -559 996 -653 889 l -783 675 b -427 921 -615 736 -500 815 l -243 921 l -243 751 l -58 751 l -58 1347 l -243 1347 l -243 1077 l -355 1077 b -330 1297 -338 1142 -330 1215 z m 202 1370 l 16 1370 l 16 742 l 202 742 z "},"겓":{"ha":0,"x_min":0,"x_max":0,"o":"m 1124 50 l 446 50 l 446 189 l 1115 189 l 1115 342 l 251 342 l 251 -107 l 1124 -107 l 579 -107 l 579 1031 l 336 1031 l 336 1215 l 1025 1215 l 1025 1031 l 732 1031 l 732 920 b 762 1153 752 990 762 1067 z m 1289 1236 l 1103 1236 l 1103 511 l 1289 511 z "},"겔":{"ha":0,"x_min":0,"x_max":0,"o":"l -620 0 l -620 186 l -880 186 l -880 783 l -1067 783 l -1067 967 l -807 967 l -807 917 l -864 917 l -864 255 l -1222 255 l -1222 1153 l -1070 1153 l -1070 452 l -1008 452 l -1008 1114 "},"겕":{"ha":-486,"x_min":0,"x_max":0,"o":"l -633 0 l -633 186 l -894 186 l -894 796 l -633 796 l -633 742 l -1035 742 l -1035 937 "},"겖":{"ha":-25,"x_min":0,"x_max":0,"o":"l -635 0 l -635 186 l -895 186 l -895 798 l -1048 798 l -1048 1066 "},"겗":{"ha":-260,"x_min":0,"x_max":0,"o":"l -633 0 l -633 186 "},"겘":{"ha":-260,"x_min":0,"x_max":0,"o":"l -636 0 l -636 186 "},"겙":{"ha":1119,"x_min":0,"x_max":0,"o":"m 496 1016 l 529 1016 l 529 506 l 1077 506 l 1077 320 l 444 320 l 444 506 z "},"겚":{"ha":0,"x_min":0,"x_max":0,"o":"l -514 0 l -514 151 l -14 151 l -14 1171 l -274 1171 l -274 1782 l -427 1782 l -427 2051 "},"겛":{"ha":-179,"x_min":0,"x_max":0,"o":"l -623 0 l -623 186 m -883 785 l -1067 785 l -1067 536 l -1177 536 b -1150 741 -1159 597 -1150 665 l -1626 741 l -1626 587 l -1359 587 b -1695 292 -1383 454 -1480 355 l -1606 149 b -1251 382 -1441 204 -1325 280 l -1067 382 l -1067 193 l -883 193 z m -570 66 z "},"겜":{"ha":659,"x_min":0,"x_max":0,"o":"l 579 0 l 579 1031 l 345 1031 l 345 1215 l 1025 1215 l 1025 1031 l 732 1031 l 732 920 b 762 1153 752 990 762 1067 m 1289 475 l 434 475 l 434 9 l 1289 9 z m 629 319 l 1095 319 l 1095 165 l 629 165 z "},"겝":{"ha":574,"x_min":0,"x_max":0,"o":"m -132 -644 l 902 -644 l 902 -861 l 1086 -861 l 1086 -212 l 892 -212 l 892 -713 l 1750 -713 l 1750 -212 l 1556 -212 l 1556 -317 l 1086 -317 z m 1086 -560 l 1086 -469 l 1556 -469 l 1556 -560 z "},"겞":{"ha":121,"x_min":0,"x_max":0,"o":"m 532 80 l 1535 80 l 1535 -126 l 1720 -126 l 1720 513 l 1534 513 l 1534 -157 l 1720 -157 z "},"겟":{"ha":0,"x_min":0,"x_max":0,"o":"l -803 0 l -803 186 m -1063 966 l -1248 966 l -1248 656 l -1362 656 b -1335 887 -1343 727 -1335 804 l -1817 887 l -1817 732 l -1535 732 b -1885 350 -1562 562 -1666 441 l -1786 206 b -1428 500 -1617 281 -1500 378 l -1248 500 l -1248 290 l -1063 290 z m -1147 208 l -1147 243 l -1344 243 l -1344 208 b -1742 -98 -1344 84 -1454 -60 l -1667 -251 b -1246 -24 -1463 -221 -1324 -137 b -825 -251 -1169 -137 -1028 -221 l -751 -98 b -1147 208 -1035 -60 -1149 84 z "},"겠":{"ha":-605,"x_min":0,"x_max":0,"o":"m 583 1031 l 96 1031 l 96 875 l 380 875 b 30 514 353 715 250 599 l 125 370 b 484 644 293 439 410 529 l 661 644 l 661 425 l 845 425 l 845 1090 l 661 1090 l 661 799 l 553 799 b 583 1031 574 869 583 946 z m 1105 1114 l 920 1114 l 920 410 l 1105 410 z "},"겡":{"ha":0,"x_min":0,"x_max":0,"o":"m 581 1028 l 91 1028 l 91 873 l 377 873 b 20 498 352 707 247 588 l 117 357 b 486 643 292 427 411 522 l 661 643 l 661 412 l 845 412 l 845 1090 l 661 1090 l 661 798 l 552 798 b 581 1028 571 867 580 944 z m 1105 1114 l 920 1114 l 920 373 l 1105 373 z m 682 368 b 245 122 415 368 245 273 b 682 -123 245 -33 415 -125 b 1116 122 947 -125 1115 -33 b 682 368 1115 273 947 368 z m 682 218 b 921 122 834 220 921 187 b 682 20 921 56 834 20 b 439 122 528 20 439 56 b 682 218 439 187 528 220 z "},"겢":{"ha":579,"x_min":0,"x_max":0,"o":"m 14 -50 l 1044 -50 l 1044 -917 l 888 -917 l 888 -593 "},"겣":{"ha":534,"x_min":0,"x_max":0,"o":"m -210 696 l -678 696 l -678 541 l -412 541 b -760 194 -437 388 -530 276 l -661 54 b -305 316 -491 119 -376 205 l -121 316 l -121 137 l 64 137 l 64 749 l -121 749 l -121 472 l -237 472 b -210 696 -219 539 -211 614 z "},"겤":{"ha":526,"x_min":0,"x_max":0,"o":"b 859 1188 579 1031 745 1099 b NaN NaN 933 1302 NaN NaN l NaN NaN l NaN NaN l NaN NaN l NaN NaN l NaN NaN l NaN NaN l NaN NaN b NaN NaN NaN NaN NaN NaN m NaN NaN l NaN NaN l NaN NaN l NaN NaN l NaN NaN l NaN NaN l NaN NaN l NaN NaN l NaN NaN l NaN NaN l NaN NaN z "},"겥":{"ha":0,"x_min":0,"x_max":0,"o":"l -640 0 l -640 186 m -901 803 l -1085 803 l -1085 556 l -1194 556 b -1168 758 -1177 617 -1168 684 l -1644 758 l -1644 605 l -1377 605 b -1716 297 -1401 468 -1498 366 l -1624 155 b -1261 404 -1454 214 -1335 295 l -1085 404 l -1085 195 l -901 195 z "},"겦":{"ha":-536,"x_min":0,"x_max":0,"o":"m 1115 374 l 235 374 l 235 221 l 385 221 l 385 45 l 562 45 l 562 195 z m 35 -179 l 35 631 l 212 631 l 212 826 l 35 826 z "},"겧":{"ha":1123,"x_min":0,"x_max":0,"o":"m -103 967 l 283 967 l 283 499 l 127 499 l 127 765 b -216 431 103 616 11 507 l -121 290 b 235 545 49 354 163 436 l 419 545 l 419 385 l 604 385 l 604 963 l 419 963 l 419 701 l 304 701 b 330 921 321 767 329 840 z m 864 986 l 678 986 l 678 319 l 864 319 z "},"겨":{"ha":0,"x_min":0,"x_max":0,"o":"m 671 986 l 76 986 l 76 834 l 473 834 b 15 232 443 566 302 380 l 115 79 b 627 647 406 222 558 417 l 892 647 l 892 461 l 608 461 l 608 307 l 892 307 l 892 -130 l 1086 -130 l 1086 1115 l 892 1115 l 892 802 l 659 802 b 671 986 667 861 671 923 z "},"격":{"ha":0,"x_min":0,"x_max":0,"o":"m 701 1039 l 117 1039 l 117 882 l 492 882 b 45 528 464 726 317 595 l 117 373 b 647 766 384 443 564 575 l 892 766 l 892 656 l 624 656 l 624 500 l 892 500 l 892 376 l 1086 376 l 1086 1114 l 892 1114 l 892 920 l 692 920 b 701 1039 698 958 701 998 z m 1086 326 l 227 326 l 227 174 l 892 174 l 892 -126 l 1086 -126 z "},"겪":{"ha":0,"x_min":0,"x_max":0,"o":"l 699 0 l 699 1044 l 589 1044 l 589 1238 l 1298 1238 l 1298 1044 l 1122 1044 l 1122 844 b 1128 951 1126 878 1128 913 m 1046 262 l 613 262 l 613 107 l 849 107 l 849 -221 l 1046 -221 z m 1516 262 l 1097 262 l 1097 107 l 1322 107 l 1322 -221 l 1516 -221 z "},"겫":{"ha":0,"x_min":0,"x_max":0,"o":"l 990 0 l 990 286 l 699 286 l 699 1044 l 594 1044 l 594 1238 l 1298 1238 l 1298 1044 l 1122 1044 l 1122 844 b 1128 951 1126 878 1128 913 "},"견":{"ha":0,"x_min":0,"x_max":0,"o":"m 1085 1114 l 892 1114 l 892 879 l 693 879 b 705 1021 701 924 705 972 l 115 1021 l 115 867 l 494 867 b 47 477 460 697 304 558 l 129 326 b 643 724 378 399 555 537 l 892 724 l 892 601 l 624 601 l 624 445 l 892 445 l 892 199 l 1085 199 z m 1118 46 l 456 46 l 456 290 l 256 290 l 256 -110 l 1118 -110 z "}}}
